<svg width="111" height="60" viewBox="0 0 111 60" fill="none" xmlns="http://www.w3.org/2000/svg">
<mask id="mask0_217_18589" style="mask-type:luminance" maskUnits="userSpaceOnUse" x="1" y="0" width="110" height="60">
<path d="M110.934 0H1.08313V59.9228H110.934V0Z" fill="white"/>
</mask>
<g mask="url(#mask0_217_18589)">
<path d="M1.69348 53.9034C1.69311 53.8266 1.72317 53.7531 1.7772 53.6983C1.83123 53.6434 1.9049 53.6117 1.98237 53.6104H3.63842C4.81027 53.6104 5.58337 54.2257 5.58337 55.2359V55.2504C5.58337 56.3559 4.64751 56.9271 3.54077 56.9271H2.27941V58.4806C2.27941 58.5573 2.24854 58.6308 2.1936 58.6848C2.13866 58.7392 2.06415 58.7694 1.98644 58.7694C1.90875 58.7694 1.83423 58.7392 1.77929 58.6848C1.72435 58.6308 1.69348 58.5573 1.69348 58.4806V53.9034ZM3.56383 56.4001C4.42508 56.4001 4.9893 55.9462 4.9893 55.2722V55.261C4.9893 54.5294 4.43186 54.148 3.59366 54.148H2.27941V56.4038L3.56383 56.4001Z" fill="#182958"/>
<path d="M6.19238 57.6374V57.6225C6.19238 56.8197 6.85965 56.3997 7.83213 56.3997C8.23142 56.3955 8.6291 56.4499 9.01212 56.5616V56.4276C9.01212 55.7467 8.5903 55.3946 7.87013 55.3946C7.52667 55.3946 7.18717 55.4672 6.87459 55.6076C6.84192 55.6211 6.80698 55.629 6.77153 55.6299C6.70684 55.6299 6.64466 55.6053 6.59761 55.5616C6.55051 55.5179 6.52203 55.4583 6.51788 55.3946C6.51845 55.3448 6.53344 55.2965 6.56111 55.2551C6.58874 55.2137 6.62787 55.1806 6.67384 55.1606C7.0686 54.9872 7.49641 54.8997 7.92845 54.9034C8.47097 54.9034 8.886 55.0374 9.16808 55.3211C9.42851 55.5779 9.56278 55.9434 9.56278 56.4276V58.5002C9.56425 58.5365 9.55831 58.5723 9.54534 58.6058C9.53238 58.6397 9.51262 58.6704 9.48726 58.6965C9.46194 58.7225 9.43153 58.743 9.39791 58.7574C9.36425 58.7713 9.32809 58.7788 9.2915 58.7788C9.21956 58.7788 9.15058 58.7504 9.09971 58.7002C9.04884 58.6499 9.02027 58.582 9.02027 58.5109V58.1644C8.85832 58.3741 8.64791 58.543 8.40657 58.656C8.16522 58.7695 7.89993 58.8244 7.63275 58.816C6.91528 58.816 6.19238 58.4132 6.19238 57.6374ZM9.02027 57.3444V56.9788C8.65399 56.8713 8.2739 56.8169 7.89182 56.8169C7.17161 56.8169 6.77153 57.1248 6.77153 57.6011V57.616C6.77153 58.0923 7.21636 58.3704 7.73586 58.3704C8.44112 58.3704 9.02027 57.9448 9.02027 57.3444Z" fill="#182958"/>
<path d="M10.5773 58.3387C10.545 58.315 10.5187 58.2843 10.5006 58.2484C10.4824 58.2131 10.4729 58.174 10.4729 58.134C10.474 58.0689 10.5011 58.007 10.5484 57.9615C10.5957 57.9163 10.6592 57.8912 10.7252 57.8917C10.774 57.8917 10.8216 57.907 10.8608 57.9359C11.2172 58.1884 11.6428 58.3284 12.0815 58.3373C12.5413 58.3373 12.8763 58.1033 12.8763 57.7368V57.7219C12.8763 57.3419 12.4233 57.1945 11.9187 57.0531C11.3165 56.8843 10.6492 56.6796 10.6492 55.9824V55.9675C10.6492 55.3159 11.1917 54.8838 11.9553 54.8838C12.3825 54.8936 12.8011 55.0043 13.176 55.2066C13.2176 55.2298 13.2521 55.2643 13.2759 55.3052C13.2998 55.3466 13.3121 55.3931 13.3116 55.4405C13.3113 55.4726 13.3045 55.5047 13.2916 55.5345C13.2787 55.5638 13.26 55.5908 13.2366 55.6136C13.2131 55.6359 13.1854 55.6536 13.155 55.6656C13.1246 55.6773 13.0921 55.6833 13.0594 55.6829C13.0156 55.6824 12.9725 55.6726 12.9332 55.6531C12.6307 55.4731 12.2867 55.3722 11.9336 55.3601C11.4807 55.3601 11.1917 55.5945 11.1917 55.9103V55.9238C11.1917 56.2833 11.6665 56.4229 12.1791 56.5763C12.7732 56.7517 13.4106 56.9777 13.4106 57.6605V57.6698C13.4106 58.387 12.8098 58.8043 12.0449 58.8043C11.5198 58.7954 11.0091 58.6336 10.5773 58.3387Z" fill="#182958"/>
<path d="M14.1878 57.6374V57.6225C14.1878 56.8197 14.8551 56.3997 15.8276 56.3997C16.2269 56.3955 16.6246 56.4499 17.0076 56.5616V56.4276C17.0076 55.7467 16.5844 55.3946 15.8656 55.3946C15.5221 55.3946 15.1826 55.4672 14.87 55.6076C14.8373 55.6211 14.8024 55.629 14.767 55.6299C14.7018 55.6309 14.6389 55.6067 14.5913 55.5625C14.5436 55.5188 14.5148 55.4588 14.5106 55.3946C14.5112 55.3448 14.5262 55.2965 14.5538 55.2551C14.5815 55.2137 14.6206 55.1806 14.6666 55.1606C15.0613 54.9872 15.4891 54.8997 15.9211 54.9034C16.4637 54.9034 16.8787 55.0374 17.1608 55.3211C17.4212 55.5779 17.5542 55.9434 17.5542 56.4276V58.5002C17.5556 58.5365 17.5497 58.5723 17.5367 58.6058C17.5237 58.6397 17.504 58.6704 17.4786 58.6965C17.4533 58.7225 17.4229 58.743 17.3893 58.7574C17.3556 58.7713 17.3195 58.7788 17.2829 58.7788C17.211 58.7788 17.142 58.7504 17.0911 58.7002C17.0402 58.6499 17.0116 58.582 17.0116 58.5109V58.1644C16.8497 58.3741 16.6393 58.543 16.3979 58.656C16.1566 58.7695 15.8913 58.8244 15.6241 58.816C14.9066 58.816 14.1878 58.4132 14.1878 57.6374ZM17.0157 57.3444V56.9788C16.6495 56.8713 16.2694 56.8169 15.8872 56.8169C15.167 56.8169 14.767 57.1248 14.767 57.6011V57.616C14.767 58.0923 15.2118 58.3704 15.7313 58.3704C16.4365 58.3704 17.0157 57.9448 17.0157 57.3444Z" fill="#182958"/>
<path d="M18.7748 55.1992C18.7744 55.1248 18.8037 55.0527 18.8565 54.9992C18.9092 54.9457 18.9812 54.9145 19.0569 54.9131C19.0951 54.9122 19.1331 54.9192 19.1686 54.9336C19.204 54.948 19.2363 54.969 19.2633 54.9955C19.2904 55.0224 19.3118 55.0541 19.3261 55.089C19.3405 55.1238 19.3477 55.1615 19.3471 55.1992V55.9099C19.6293 55.2797 20.1853 54.8983 20.6682 54.8983C20.7064 54.8964 20.7445 54.9029 20.78 54.9169C20.8155 54.9308 20.8476 54.9522 20.8742 54.9792C20.9008 55.0062 20.9214 55.0383 20.9345 55.0736C20.9476 55.1094 20.953 55.1471 20.9503 55.1848C20.9521 55.2545 20.9271 55.3229 20.8804 55.3755C20.8337 55.4285 20.7686 55.462 20.698 55.4694C19.9548 55.5578 19.3417 56.1066 19.3417 57.1983V58.4866C19.3417 58.5615 19.3115 58.6336 19.2579 58.6866C19.2042 58.7397 19.1314 58.769 19.0555 58.769C18.9796 58.769 18.9068 58.7397 18.8532 58.6866C18.7995 58.6336 18.7693 58.5615 18.7693 58.4866L18.7748 55.1992Z" fill="#182958"/>
<path d="M24.1051 53.9034C24.1051 53.8266 24.1354 53.7531 24.1897 53.6983C24.2439 53.6434 24.3177 53.6117 24.3953 53.6104H25.9035C27.5311 53.6104 28.665 54.7155 28.665 56.1522V56.1671C28.6704 57.6164 27.542 58.7401 25.9035 58.7401H24.3953C24.3177 58.7383 24.2439 58.7066 24.1897 58.6522C24.1354 58.5973 24.1051 58.5238 24.1051 58.4471V53.9034ZM25.9035 58.2048C27.2178 58.2048 28.056 57.3257 28.056 56.1899V56.1764C28.056 55.0406 27.2178 54.1466 25.9035 54.1466H24.6829V58.2048H25.9035Z" fill="#182958"/>
<path d="M29.8138 53.7636C29.8138 53.6752 29.8495 53.5901 29.9131 53.5273C29.9767 53.4645 30.0629 53.4292 30.1529 53.4292C30.2428 53.4292 30.329 53.4645 30.3926 53.5273C30.4562 53.5901 30.4919 53.6752 30.4919 53.7636V53.859C30.4919 53.9473 30.4562 54.0325 30.3926 54.0952C30.329 54.158 30.2428 54.1934 30.1529 54.1934C30.0629 54.1934 29.9767 54.158 29.9131 54.0952C29.8495 54.0325 29.8138 53.9473 29.8138 53.859V53.7636ZM29.8667 55.1994C29.8663 55.125 29.8956 55.0529 29.9484 54.9994C30.0011 54.9459 30.0731 54.9148 30.1488 54.9134C30.187 54.9125 30.2249 54.9199 30.2603 54.9339C30.2957 54.9483 30.3278 54.9692 30.3548 54.9957C30.3817 55.0227 30.403 55.0543 30.4172 55.0892C30.4314 55.1245 30.4384 55.1618 30.4377 55.1994V58.4869C30.4391 58.5245 30.4329 58.5618 30.4194 58.5966C30.4058 58.6315 30.3852 58.6632 30.3588 58.6901C30.3324 58.7166 30.3008 58.738 30.2659 58.7525C30.2309 58.7664 30.1934 58.7738 30.1555 58.7734C30.1174 58.7738 30.0794 58.7669 30.044 58.7529C30.0086 58.7385 29.9765 58.7176 29.9496 58.6906C29.9226 58.6641 29.9014 58.632 29.8871 58.5971C29.8729 58.5622 29.8659 58.5245 29.8667 58.4869V55.1994Z" fill="#182958"/>
<path d="M31.8631 59.4756C31.8187 59.4542 31.7812 59.4211 31.7551 59.3797C31.729 59.3383 31.7152 59.2904 31.7153 59.2416C31.7199 59.176 31.7489 59.1142 31.7967 59.0686C31.8445 59.0225 31.9077 58.9956 31.9744 58.9928C32.0191 58.9928 32.0628 59.0053 32.1005 59.029C32.501 59.296 32.9733 59.4393 33.4568 59.4397C34.3032 59.4397 34.8525 58.9779 34.8525 58.0923V57.6453C34.5174 58.0844 34.0509 58.4481 33.3456 58.4481C33.1083 58.4523 32.8726 58.409 32.6525 58.3216C32.4323 58.2342 32.2323 58.1039 32.064 57.9383C31.8958 57.7732 31.7629 57.5765 31.6732 57.3597C31.5835 57.143 31.5388 56.9109 31.5417 56.6765V56.6621C31.5426 56.2811 31.6664 55.9109 31.8949 55.6044C32.1234 55.2979 32.4449 55.0714 32.8128 54.9569C33.1807 54.843 33.5759 54.8472 33.9412 54.9695C34.3065 55.0918 34.6228 55.3253 34.8443 55.637V55.2049C34.8429 55.1672 34.8491 55.1295 34.8626 55.0946C34.876 55.0593 34.8965 55.0272 34.9229 55.0002C34.9492 54.9728 34.9807 54.9509 35.0157 54.936C35.0507 54.9211 35.0883 54.9132 35.1264 54.9132C35.2034 54.9132 35.2773 54.943 35.3317 54.997C35.3861 55.0504 35.4167 55.1235 35.4167 55.1993V58.0774C35.4167 58.6621 35.2376 59.109 34.9257 59.4156C34.5853 59.7528 34.0726 59.9211 33.4636 59.9211C32.8982 59.9244 32.3436 59.77 31.8631 59.4756ZM34.8701 56.6658V56.6509C34.8701 55.8751 34.1919 55.3704 33.4595 55.3704C32.7271 55.3704 32.1304 55.8686 32.1304 56.6444V56.6593C32.1294 56.8304 32.1633 57.0002 32.23 57.1588C32.2968 57.3169 32.395 57.4602 32.519 57.5807C32.6429 57.7007 32.79 57.7951 32.9516 57.8579C33.1131 57.9211 33.2858 57.9518 33.4595 57.9476C34.1865 57.9449 34.8701 57.4244 34.8701 56.663V56.6658Z" fill="#182958"/>
<path d="M36.6957 53.7636C36.6957 53.6752 36.7314 53.5901 36.795 53.5273C36.8586 53.4645 36.9448 53.4292 37.0348 53.4292C37.1247 53.4292 37.2109 53.4645 37.2745 53.5273C37.3381 53.5901 37.3738 53.6752 37.3738 53.7636V53.859C37.3738 53.9473 37.3381 54.0325 37.2745 54.0952C37.2109 54.158 37.1247 54.1934 37.0348 54.1934C36.9448 54.1934 36.8586 54.158 36.795 54.0952C36.7314 54.0325 36.6957 53.9473 36.6957 53.859V53.7636ZM36.7486 55.1994C36.7482 55.1259 36.7768 55.0548 36.8283 55.0013C36.88 54.9478 36.9506 54.9162 37.0252 54.9134C37.0635 54.9125 37.1014 54.9199 37.1368 54.9339C37.1721 54.9483 37.2043 54.9692 37.2313 54.9957C37.2582 55.0227 37.2794 55.0543 37.2937 55.0892C37.3079 55.1245 37.3149 55.1618 37.3141 55.1994V58.4869C37.3156 58.5245 37.3094 58.5618 37.2959 58.5966C37.2823 58.6315 37.2617 58.6632 37.2353 58.6901C37.2089 58.7166 37.1773 58.738 37.1423 58.7525C37.1074 58.7664 37.0699 58.7738 37.032 58.7734C36.9938 58.7738 36.9559 58.7669 36.9205 58.7529C36.8851 58.7385 36.853 58.7176 36.826 58.6906C36.7991 58.6641 36.7779 58.632 36.7636 58.5971C36.7494 58.5622 36.7424 58.5245 36.7432 58.4869L36.7486 55.1994Z" fill="#182958"/>
<path d="M38.8495 57.7324V55.4482H38.5375C38.4713 55.4463 38.4083 55.4193 38.3614 55.3733C38.3146 55.3268 38.2873 55.2649 38.2853 55.1993C38.286 55.1338 38.3128 55.0705 38.3599 55.024C38.4071 54.9775 38.4708 54.9514 38.5375 54.9505H38.8495V54.0566C38.8486 54.0198 38.8551 53.9826 38.8688 53.9482C38.8825 53.9138 38.903 53.8821 38.9291 53.8556C38.9552 53.8291 38.9865 53.8077 39.021 53.7933C39.0556 53.7784 39.0927 53.7705 39.1302 53.7705C39.2068 53.7719 39.2798 53.8026 39.334 53.8556C39.3881 53.9091 39.4191 53.9812 39.4205 54.0566V54.9505H40.416C40.4836 54.951 40.5484 54.977 40.597 55.0235C40.6455 55.0696 40.674 55.1328 40.6764 55.1993C40.675 55.2663 40.6468 55.33 40.5981 55.3766C40.5493 55.4231 40.4839 55.4491 40.416 55.4482H39.4218V57.6603C39.4218 58.1203 39.6823 58.2891 40.0675 58.2891C40.1852 58.2845 40.3021 58.2677 40.416 58.2379C40.481 58.2384 40.5433 58.264 40.5892 58.3096C40.6352 58.3547 40.6611 58.4161 40.6615 58.4803C40.6605 58.5291 40.6443 58.5761 40.6153 58.6152C40.5861 58.6547 40.5454 58.684 40.4988 58.6998C40.3194 58.77 40.1276 58.8049 39.9345 58.8017C39.316 58.8017 38.8495 58.5017 38.8495 57.7324Z" fill="#182958"/>
<path d="M41.3655 57.6377V57.6228C41.3655 56.82 42.0328 56.4 43.0052 56.4C43.4045 56.3958 43.8022 56.4502 44.1852 56.5618V56.4279C44.1852 55.747 43.7621 55.3949 43.0432 55.3949C42.6983 55.3944 42.3573 55.4674 42.0436 55.6088C42.0105 55.6228 41.9751 55.6307 41.9392 55.6316C41.8736 55.6311 41.8109 55.6056 41.7639 55.5604C41.7169 55.5153 41.6893 55.4544 41.6869 55.3897C41.6875 55.34 41.7025 55.2916 41.7301 55.2497C41.7578 55.2083 41.7969 55.1758 41.8429 55.1553C42.2376 54.9823 42.6654 54.8944 43.0974 54.8986C43.64 54.8986 44.055 55.0325 44.3371 55.3158C44.5976 55.573 44.7305 55.9381 44.7305 56.4228V58.4953C44.7319 58.5311 44.726 58.567 44.713 58.6009C44.7001 58.6344 44.6803 58.6656 44.6549 58.6916C44.6296 58.7172 44.5992 58.7381 44.5656 58.7521C44.5319 58.7665 44.4958 58.7735 44.4592 58.7735C44.3872 58.7735 44.3183 58.7451 44.2674 58.6953C44.2165 58.6451 44.1879 58.5767 44.1879 58.506V58.1646C44.026 58.3744 43.8156 58.5432 43.5742 58.6563C43.3329 58.7697 43.0676 58.8246 42.8004 58.8163C42.0775 58.8163 41.3655 58.4135 41.3655 57.6377ZM44.1934 57.3446V56.979C43.8271 56.8716 43.447 56.8172 43.0649 56.8172C42.3447 56.8172 41.9433 57.1251 41.9433 57.6014V57.6163C41.9433 58.0925 42.3895 58.3707 42.909 58.3707C43.6074 58.3707 44.1866 57.9451 44.1866 57.3446H44.1934Z" fill="#182958"/>
<path d="M45.9986 53.6393C45.9959 53.6007 46.0013 53.5616 46.0144 53.5253C46.0275 53.489 46.0481 53.4555 46.0749 53.4272C46.1017 53.3988 46.134 53.3765 46.17 53.3607C46.206 53.3453 46.2448 53.3374 46.2841 53.3374C46.3233 53.3374 46.3621 53.3453 46.3982 53.3607C46.4341 53.3765 46.4665 53.3988 46.4933 53.4272C46.5201 53.4555 46.5406 53.489 46.5538 53.5253C46.5669 53.5616 46.5723 53.6007 46.5696 53.6393V58.4867C46.571 58.5244 46.5648 58.5616 46.5513 58.5965C46.5377 58.6314 46.5172 58.663 46.4908 58.69C46.4644 58.7165 46.4328 58.7379 46.3978 58.7523C46.3628 58.7662 46.3253 58.7737 46.2875 58.7732C46.2493 58.7737 46.2114 58.7667 46.176 58.7527C46.1406 58.7383 46.1084 58.7174 46.0815 58.6904C46.0545 58.6639 46.0333 58.6318 46.0191 58.5969C46.0048 58.5621 45.9978 58.5244 45.9986 58.4867V53.6393Z" fill="#182958"/>
<path d="M50.1407 56.591V53.8654C50.1407 53.7887 50.1718 53.7152 50.2265 53.6612C50.2817 53.6068 50.3561 53.5766 50.4335 53.5766C50.5113 53.5766 50.5857 53.6068 50.6409 53.6612C50.6956 53.7152 50.7267 53.7887 50.7267 53.8654V56.5533C50.7267 57.6603 51.3274 58.2822 52.3151 58.2822C53.2726 58.2822 53.8813 57.711 53.8813 56.591V53.8654C53.8785 53.8259 53.8841 53.7859 53.8978 53.7482C53.9115 53.711 53.9327 53.6766 53.96 53.6473C53.9874 53.6184 54.0208 53.5952 54.0576 53.5794C54.0949 53.5635 54.1349 53.5552 54.175 53.5552C54.2155 53.5552 54.2552 53.5635 54.2924 53.5794C54.3292 53.5952 54.3626 53.6184 54.39 53.6473C54.4178 53.6766 54.439 53.711 54.4522 53.7482C54.4659 53.7859 54.4716 53.8259 54.4687 53.8654V56.5417C54.4687 58.0347 53.5993 58.8161 52.2986 58.8161C50.9978 58.8161 50.1407 58.0403 50.1407 56.591Z" fill="#182958"/>
<path d="M55.8563 53.8735C55.8577 53.7981 55.8888 53.726 55.9425 53.6725C55.9967 53.619 56.0698 53.5888 56.1462 53.5874H56.2127C56.2678 53.5879 56.3211 53.6023 56.3687 53.6293C56.4164 53.6562 56.456 53.6948 56.4842 53.7409L58.3409 56.4948L60.1965 53.7409C60.2239 53.6944 60.264 53.6558 60.3111 53.6288C60.3587 53.6018 60.413 53.5874 60.4676 53.5874H60.5341C60.6105 53.5888 60.6836 53.6195 60.7373 53.6725C60.7911 53.726 60.8217 53.7981 60.8231 53.8735V58.4804C60.8231 58.5567 60.7934 58.6307 60.7392 58.6851C60.685 58.74 60.6114 58.7716 60.5341 58.7734C60.4559 58.7721 60.3809 58.7409 60.3257 58.686C60.2701 58.6316 60.2385 58.5576 60.2371 58.4804V54.6576L58.5742 57.066C58.5497 57.1097 58.5144 57.146 58.4715 57.1721C58.4281 57.1976 58.3791 57.2121 58.3286 57.2135C58.2772 57.2121 58.2272 57.1976 58.1834 57.1721C58.1391 57.1465 58.1023 57.1097 58.0764 57.066L56.4215 54.6641V58.4869C56.4215 58.5618 56.3918 58.6339 56.3381 58.6869C56.2843 58.7395 56.2113 58.7693 56.1354 58.7693C56.0595 58.7693 55.9868 58.7395 55.9331 58.6869C55.8794 58.6339 55.8492 58.5618 55.8492 58.4869L55.8563 53.8735Z" fill="#182958"/>
<path d="M62.3002 53.8654C62.2974 53.8259 62.3031 53.7859 62.3163 53.7482C62.3299 53.711 62.3511 53.6766 62.3785 53.6473C62.4063 53.6184 62.4393 53.5952 62.4765 53.5794C62.5133 53.5635 62.5534 53.5552 62.5935 53.5552C62.634 53.5552 62.6741 53.5635 62.7109 53.5794C62.7476 53.5952 62.7811 53.6184 62.8085 53.6473C62.8363 53.6766 62.8575 53.711 62.8707 53.7482C62.8844 53.7859 62.89 53.8259 62.8872 53.8654V56.6752L65.8494 53.6794C65.8791 53.6487 65.9145 53.6235 65.9536 53.6059C65.9932 53.5887 66.0356 53.5789 66.0785 53.578C66.154 53.5803 66.2247 53.6115 66.2775 53.6645C66.3298 53.7175 66.3595 53.7887 66.3609 53.8626C66.3595 53.9017 66.3506 53.9398 66.3341 53.9752C66.3176 54.0101 66.294 54.0417 66.2643 54.0673L64.4228 55.8659L66.3972 58.2742C66.4501 58.3329 66.4788 58.4087 66.4788 58.4868C66.4769 58.564 66.4453 58.638 66.3897 58.6924C66.3345 58.7468 66.2601 58.7784 66.1818 58.7798C66.1337 58.7794 66.087 58.7668 66.0455 58.7436C66.004 58.7203 65.9692 58.6868 65.9442 58.6463L64.0065 56.2659L62.8858 57.3724V58.4859C62.8886 58.5254 62.883 58.5654 62.8697 58.6026C62.8561 58.6403 62.8349 58.6747 62.8075 58.7035C62.7797 58.7329 62.7467 58.7556 62.7095 58.7719C62.6727 58.7877 62.6326 58.7956 62.5921 58.7956C62.552 58.7956 62.5119 58.7877 62.4751 58.7719C62.4379 58.7556 62.4049 58.7329 62.3771 58.7035C62.3497 58.6747 62.3285 58.6403 62.3148 58.6026C62.3016 58.5654 62.296 58.5254 62.2988 58.4859L62.3002 53.8654Z" fill="#182958"/>
<path d="M67.6004 53.8735C67.6018 53.7981 67.6329 53.726 67.6871 53.6725C67.7409 53.619 67.814 53.5888 67.8908 53.5874H67.9573C68.012 53.5883 68.0653 53.6032 68.1129 53.6297C68.16 53.6567 68.2001 53.6948 68.2284 53.7409L70.0836 56.4948L71.9393 53.7409C71.9671 53.6944 72.0067 53.6558 72.0543 53.6288C72.1019 53.6018 72.1557 53.5874 72.2104 53.5874H72.2891C72.3655 53.5888 72.4386 53.619 72.4928 53.6725C72.547 53.726 72.5781 53.7981 72.5795 53.8735V58.4804C72.5795 58.5572 72.5489 58.6307 72.4947 58.6855C72.4405 58.74 72.3669 58.7716 72.2891 58.7734C72.2108 58.7716 72.1364 58.7404 72.0812 58.6855C72.0256 58.6311 71.994 58.5576 71.9921 58.4804V54.6576L70.3292 57.066C70.3052 57.1097 70.2698 57.146 70.2269 57.1721C70.1845 57.1976 70.1355 57.2121 70.085 57.2135C70.0336 57.2121 69.9832 57.1981 69.9389 57.1721C69.8945 57.1465 69.8578 57.1097 69.8314 57.066L68.177 54.6641V58.4869C68.177 58.5618 68.1468 58.6339 68.0931 58.6869C68.0393 58.7395 67.9667 58.7693 67.8908 58.7693C67.8149 58.7693 67.7418 58.7395 67.6881 58.6869C67.6348 58.6339 67.6046 58.5618 67.6046 58.4869L67.6004 53.8735Z" fill="#182958"/>
<path d="M76.3239 53.8655C76.3239 53.7888 76.355 53.7153 76.4097 53.6613C76.4649 53.6069 76.5394 53.5767 76.6172 53.5767C76.695 53.5767 76.7694 53.6069 76.8241 53.6613C76.8793 53.7153 76.9099 53.7888 76.9099 53.8655V58.4804C76.9099 58.5571 76.8793 58.6306 76.8241 58.6846C76.7694 58.739 76.695 58.7692 76.6172 58.7692C76.5394 58.7692 76.4649 58.739 76.4097 58.6846C76.355 58.6306 76.3239 58.5571 76.3239 58.4804V53.8655Z" fill="#182958"/>
<path d="M78.3357 55.1995C78.3352 55.125 78.3644 55.0529 78.4172 54.9995C78.47 54.946 78.5422 54.9148 78.6176 54.9134C78.6558 54.9125 78.694 54.9199 78.7293 54.9339C78.7647 54.9483 78.7967 54.9692 78.8236 54.9957C78.8505 55.0227 78.8717 55.0543 78.8863 55.0892C78.9005 55.1246 78.9075 55.1618 78.9066 55.1995V55.6088C79.0358 55.3785 79.2267 55.1878 79.4587 55.0576C79.6906 54.9269 79.9542 54.8618 80.221 54.8692C81.1484 54.8692 81.6911 55.4846 81.6911 56.385V58.4869C81.6939 58.5255 81.6882 58.5646 81.675 58.6009C81.6623 58.6376 81.6416 58.6711 81.6147 58.699C81.5878 58.7274 81.5558 58.7502 81.5195 58.7655C81.4836 58.7809 81.445 58.7888 81.4054 58.7888C81.3662 58.7888 81.3276 58.7809 81.2917 58.7655C81.2554 58.7502 81.2234 58.7274 81.1965 58.699C81.1696 58.6711 81.1489 58.6376 81.1357 58.6009C81.123 58.5646 81.1173 58.5255 81.1201 58.4869V56.5241C81.1201 55.8218 80.7335 55.3813 80.0579 55.3813C79.3828 55.3813 78.9066 55.8581 78.9066 56.5683V58.4869C78.908 58.5246 78.9024 58.5618 78.8887 58.5962C78.8755 58.6311 78.8547 58.6632 78.8288 58.6897C78.8024 58.7167 78.7708 58.7381 78.7359 58.7525C78.701 58.7664 78.6638 58.7739 78.6256 58.7734C78.5874 58.7739 78.5497 58.7669 78.5143 58.7529C78.4785 58.7385 78.4465 58.7176 78.4196 58.6906C78.3922 58.6641 78.371 58.6325 78.3564 58.5971C78.3423 58.5622 78.3352 58.525 78.3357 58.4869V55.1995Z" fill="#182958"/>
<path d="M86.5617 58.487C86.5617 58.5619 86.5316 58.634 86.4778 58.687C86.4241 58.7396 86.3515 58.7693 86.2756 58.7693C86.1996 58.7693 86.1266 58.7396 86.0728 58.687C86.0191 58.634 85.9894 58.5619 85.9894 58.487V57.9749C85.6773 58.4284 85.2242 58.8163 84.5189 58.8163C83.5995 58.8163 82.6868 58.0991 82.6868 56.8549V56.84C82.6868 55.6024 83.5995 54.8693 84.5189 54.8693C85.2322 54.8693 85.6924 55.2503 85.9894 55.6721V53.6396C85.9875 53.6024 85.9941 53.5651 86.0073 53.5303C86.021 53.4954 86.0417 53.4633 86.0681 53.4368C86.0945 53.4098 86.1261 53.3889 86.161 53.3744C86.1959 53.36 86.2336 53.3526 86.2713 53.353C86.3095 53.3526 86.3477 53.3596 86.383 53.374C86.4184 53.3879 86.4505 53.4093 86.4778 53.4358C86.5047 53.4624 86.5264 53.4944 86.5405 53.5293C86.5551 53.5642 86.5622 53.6019 86.5617 53.6396V58.487ZM83.2752 56.8321V56.847C83.2752 57.7405 83.906 58.3121 84.6316 58.3121C85.3571 58.3121 86.0205 57.7177 86.0205 56.847V56.8321C86.0271 56.6461 85.9964 56.461 85.93 56.287C85.8635 56.1126 85.7631 55.9535 85.6339 55.8177C85.5047 55.6824 85.3496 55.5735 85.1775 55.4972C85.0054 55.4214 84.8201 55.3796 84.6316 55.3749C83.8815 55.3749 83.2752 55.9168 83.2752 56.8321Z" fill="#182958"/>
<path d="M87.6004 56.8669V56.852C87.5985 56.3288 87.8074 55.826 88.1812 55.4544C88.5551 55.0827 89.0629 54.873 89.5937 54.8711C90.1241 54.8692 90.6338 55.0753 91.0105 55.4441C91.3867 55.8125 91.5998 56.3139 91.6017 56.8372V56.852C91.6031 57.113 91.5522 57.3711 91.4518 57.6125C91.3509 57.8534 91.2029 58.0725 91.0157 58.2562C90.8285 58.4404 90.606 58.586 90.3613 58.6841C90.1166 58.7827 89.8545 58.832 89.59 58.8297C89.3278 58.8325 89.0681 58.7841 88.8253 58.6865C88.5825 58.5888 88.3618 58.4446 88.1765 58.2613C87.9908 58.0785 87.8446 57.8609 87.7456 57.6213C87.6466 57.3818 87.5976 57.1255 87.6004 56.8669ZM91.0157 56.8669V56.852C91.0157 56.0399 90.3985 55.3734 89.59 55.3734C88.7588 55.3734 88.1864 56.0427 88.1864 56.8372V56.852C88.1864 57.6655 88.7956 58.3237 89.6051 58.3237C90.4367 58.3186 91.0157 57.6604 91.0157 56.8669Z" fill="#182958"/>
<path d="M92.6338 55.1995C92.6333 55.125 92.6625 55.0529 92.7153 54.9995C92.7681 54.946 92.8402 54.9148 92.9157 54.9134C92.9543 54.9125 92.9921 54.9199 93.0274 54.9339C93.0632 54.9483 93.0953 54.9692 93.1222 54.9957C93.1495 55.0227 93.1707 55.0543 93.1854 55.0892C93.1995 55.1241 93.2066 55.1618 93.2061 55.1995V55.6088C93.3348 55.3785 93.5258 55.1878 93.7572 55.0571C93.9887 54.9269 94.2523 54.8618 94.5191 54.8692C95.4465 54.8692 95.9892 55.4846 95.9892 56.385V58.4869C95.992 58.5255 95.9863 58.5646 95.9736 58.6009C95.9604 58.6376 95.9396 58.6711 95.9128 58.699C95.8864 58.7274 95.8538 58.7502 95.818 58.7655C95.7817 58.7809 95.7431 58.7888 95.7039 58.7888C95.6643 58.7888 95.6257 58.7809 95.5898 58.7655C95.5535 58.7502 95.5215 58.7274 95.4946 58.699C95.4677 58.6711 95.447 58.6376 95.4342 58.6009C95.421 58.5646 95.4154 58.5255 95.4182 58.4869V56.5241C95.4182 55.8218 95.0316 55.3813 94.3565 55.3813C93.6809 55.3813 93.2061 55.8581 93.2061 56.5683V58.4869C93.2075 58.5246 93.2014 58.5618 93.1877 58.5967C93.174 58.6316 93.1538 58.6632 93.1274 58.6902C93.101 58.7167 93.0694 58.7381 93.0345 58.7525C92.9996 58.7664 92.9619 58.7739 92.9242 58.7734C92.8855 58.7739 92.8478 58.7669 92.8124 58.7529C92.7766 58.7385 92.7445 58.7176 92.7177 58.6906C92.6903 58.6641 92.6691 58.6325 92.655 58.5971C92.6403 58.5622 92.6333 58.525 92.6338 58.4869V55.1995Z" fill="#182958"/>
<path d="M98.8849 58.824C97.8312 58.824 96.9698 58.0212 96.9698 56.8547V56.8398C96.9698 55.7482 97.7482 54.8691 98.8104 54.8691C99.9457 54.8691 100.593 55.784 100.593 56.7877C100.593 56.8589 100.564 56.9268 100.513 56.977C100.462 57.0273 100.393 57.0552 100.321 57.0552H97.5487C97.6303 57.8757 98.2163 58.337 98.9051 58.337C99.3177 58.3398 99.7146 58.1822 100.011 57.8984C100.059 57.8557 100.122 57.8333 100.187 57.8366C100.252 57.8403 100.312 57.8687 100.356 57.9161C100.399 57.964 100.421 58.0263 100.418 58.0905C100.415 58.1543 100.386 58.2143 100.337 58.257C100.148 58.445 99.9212 58.5924 99.6713 58.6901C99.4214 58.7877 99.1536 58.8333 98.8849 58.824ZM100.02 56.6338C99.9603 55.9459 99.5605 55.3454 98.7995 55.3454C98.1319 55.3454 97.6261 55.8952 97.553 56.6338H100.02Z" fill="#182958"/>
<path d="M101.394 58.3387C101.361 58.315 101.336 58.2843 101.317 58.2484C101.299 58.2131 101.29 58.174 101.29 58.134C101.29 58.1019 101.297 58.0698 101.31 58.0401C101.322 58.0103 101.341 57.9838 101.365 57.961C101.388 57.9387 101.416 57.921 101.446 57.9089C101.476 57.8973 101.509 57.8912 101.542 57.8917C101.591 57.8917 101.638 57.907 101.677 57.9359C102.033 58.1894 102.459 58.3294 102.898 58.3373C103.358 58.3373 103.693 58.1033 103.693 57.7368V57.7219C103.693 57.3419 103.24 57.1945 102.735 57.0531C102.133 56.8843 101.466 56.6796 101.466 55.9824V55.9675C101.466 55.3159 102.015 54.8838 102.772 54.8838C103.199 54.8936 103.618 55.0043 103.993 55.2066C104.034 55.2298 104.069 55.2643 104.093 55.3052C104.116 55.3466 104.129 55.3931 104.128 55.4405C104.128 55.4726 104.121 55.5047 104.108 55.5345C104.095 55.5638 104.077 55.5908 104.053 55.6136C104.03 55.6359 104.002 55.6536 103.971 55.6656C103.941 55.6773 103.909 55.6833 103.876 55.6829C103.832 55.6824 103.789 55.6726 103.75 55.6531C103.447 55.4726 103.102 55.3722 102.748 55.3601C102.294 55.3601 102.006 55.5945 102.006 55.9103V55.9238C102.006 56.2833 102.48 56.4229 102.993 56.5763C103.586 56.7517 104.225 56.9777 104.225 57.6605V57.6698C104.225 58.387 103.624 58.8043 102.859 58.8043C102.335 58.7954 101.825 58.6331 101.394 58.3387Z" fill="#182958"/>
<path d="M105.299 53.7636C105.299 53.6752 105.334 53.5901 105.398 53.5273C105.462 53.4645 105.548 53.4292 105.638 53.4292C105.728 53.4292 105.814 53.4645 105.878 53.5273C105.941 53.5901 105.977 53.6752 105.977 53.7636V53.859C105.977 53.9473 105.941 54.0325 105.878 54.0952C105.814 54.158 105.728 54.1934 105.638 54.1934C105.548 54.1934 105.462 54.158 105.398 54.0952C105.334 54.0325 105.299 53.9473 105.299 53.859V53.7636ZM105.351 55.1994C105.35 55.125 105.379 55.0529 105.432 54.9994C105.485 54.9459 105.557 54.9148 105.632 54.9134C105.671 54.9125 105.709 54.9199 105.744 54.9339C105.78 54.9483 105.812 54.9692 105.839 54.9957C105.866 55.0227 105.888 55.0543 105.902 55.0892C105.916 55.1241 105.923 55.1618 105.923 55.1994V58.4869C105.924 58.5245 105.918 58.5618 105.904 58.5966C105.891 58.6315 105.871 58.6632 105.844 58.6901C105.818 58.7166 105.786 58.738 105.751 58.7525C105.716 58.7664 105.679 58.7738 105.64 58.7734C105.602 58.7738 105.565 58.7669 105.529 58.7529C105.493 58.7385 105.461 58.7176 105.434 58.6906C105.407 58.6641 105.386 58.6325 105.371 58.5971C105.357 58.5622 105.35 58.525 105.351 58.4869V55.1994Z" fill="#182958"/>
<path d="M106.962 57.6376V57.6227C106.962 56.8199 107.631 56.3999 108.603 56.3999C109.002 56.3957 109.4 56.4506 109.783 56.5618V56.4278C109.783 55.7469 109.36 55.3948 108.639 55.3948C108.296 55.3948 107.957 55.4673 107.645 55.6078C107.612 55.6213 107.577 55.6292 107.541 55.6306C107.475 55.6301 107.412 55.6046 107.365 55.5594C107.318 55.5143 107.291 55.4529 107.289 55.3883C107.289 55.3385 107.304 55.2897 107.331 55.2483C107.359 55.2069 107.399 55.1739 107.444 55.1539C107.839 54.9804 108.267 54.8929 108.699 54.8971C109.242 54.8971 109.657 55.0311 109.939 55.3148C110.198 55.5715 110.332 55.9367 110.332 56.4213V58.4939C110.333 58.5297 110.328 58.566 110.315 58.5994C110.302 58.6334 110.282 58.6641 110.257 58.6901C110.231 58.7162 110.201 58.7367 110.167 58.7506C110.134 58.765 110.097 58.772 110.061 58.772C110.025 58.7734 109.989 58.7669 109.956 58.7539C109.922 58.7408 109.892 58.7213 109.867 58.6962C109.841 58.6711 109.821 58.6413 109.808 58.6083C109.795 58.5753 109.788 58.5399 109.789 58.5046V58.1646C109.627 58.3743 109.417 58.5432 109.175 58.6562C108.934 58.7697 108.668 58.8246 108.401 58.8162C107.689 58.8162 106.962 58.4134 106.962 57.6376ZM109.789 57.3446V56.979C109.424 56.8715 109.043 56.8171 108.661 56.8171C107.941 56.8171 107.541 57.125 107.541 57.6013V57.6162C107.541 58.0925 107.986 58.3706 108.505 58.3706C109.21 58.3706 109.789 57.945 109.789 57.3446Z" fill="#182958"/>
<path d="M99.651 13.5516C99.0004 13.5516 98.3766 13.2966 97.9165 12.8426C97.4563 12.3887 97.1975 11.773 97.1975 11.1311C97.1975 9.4632 96.5261 7.86362 95.3305 6.68422C94.1349 5.50483 92.5135 4.84227 90.8228 4.84227C89.1322 4.84227 87.5108 5.50483 86.3156 6.68422C85.12 7.86362 84.4482 9.4632 84.4482 11.1311C84.4562 11.4536 84.3982 11.7745 84.2785 12.0747C84.1587 12.3749 83.9791 12.6485 83.7509 12.8793C83.5222 13.1101 83.2492 13.2935 82.948 13.4188C82.6462 13.544 82.3223 13.6085 81.9956 13.6085C81.6684 13.6085 81.3445 13.544 81.0433 13.4188C80.742 13.2935 80.469 13.1101 80.2404 12.8793C80.0117 12.6485 79.8325 12.3749 79.7123 12.0747C79.5926 11.7745 79.535 11.4536 79.5426 11.1311C79.5751 8.19985 80.7783 5.39962 82.8909 3.33821C85.0036 1.2768 87.855 0.120605 90.8266 0.120605C93.7978 0.120605 96.6492 1.2768 98.7618 3.33821C100.874 5.39962 102.078 8.19985 102.11 11.1311C102.11 11.4494 102.047 11.7646 101.923 12.0586C101.799 12.3526 101.618 12.6197 101.39 12.8445C101.161 13.0694 100.89 13.2476 100.592 13.3689C100.294 13.4902 99.974 13.5523 99.651 13.5516Z" fill="#182958"/>
<path d="M73.1585 12.1348V46.9829H108.482V12.1348L90.8205 29.5588L73.1585 12.1348Z" fill="#009EA9"/>
<path d="M108.482 49.4017H73.1585C72.8365 49.4017 72.5173 49.3393 72.2198 49.218C71.9223 49.0966 71.6522 48.9184 71.424 48.6933C71.1963 48.4687 71.0157 48.2021 70.8926 47.9086C70.7696 47.6147 70.7064 47.3003 70.7064 46.9826V12.1345C70.706 11.6559 70.8497 11.1878 71.119 10.7897C71.3886 10.3916 71.7715 10.0813 72.2198 9.89809C72.6682 9.71488 73.1613 9.66697 73.6375 9.76042C74.1132 9.85391 74.5503 10.0846 74.8935 10.4232L90.8205 26.1358L106.747 10.4232C107.09 10.0846 107.527 9.85391 108.003 9.76042C108.479 9.66697 108.972 9.71488 109.421 9.89809C109.869 10.0813 110.252 10.3916 110.522 10.7897C110.791 11.1878 110.935 11.6559 110.935 12.1345V46.9826C110.935 47.624 110.676 48.2393 110.216 48.6933C109.756 49.1468 109.133 49.4017 108.482 49.4017ZM75.6106 44.5567H106.029V17.9764L92.555 31.2699C92.3273 31.4947 92.0571 31.6731 91.7592 31.7948C91.4617 31.9165 91.1425 31.9792 90.8205 31.9792C90.498 31.9792 90.1793 31.9165 89.8813 31.7948C89.5838 31.6731 89.3132 31.4947 89.0855 31.2699L75.6106 17.9764V44.5567Z" fill="#182958"/>
<path d="M1.08318 39.3476V28.7129C1.08102 28.3855 1.1448 28.0609 1.27083 27.7581C1.39686 27.4553 1.58263 27.1802 1.81733 26.9487C2.05204 26.7173 2.33101 26.5342 2.63805 26.41C2.94509 26.2859 3.27408 26.2231 3.60591 26.2254C3.93808 26.2229 4.26744 26.2856 4.57481 26.4099C4.88219 26.5342 5.16145 26.7175 5.39634 26.9492C5.63122 27.1809 5.81708 27.4564 5.943 27.7596C6.06898 28.0629 6.13253 28.3878 6.12999 28.7155V39.2218C6.12999 42.9068 7.99764 44.8135 11.0778 44.8135C14.1579 44.8135 16.0256 42.971 16.0256 39.3824V28.7129C16.0178 28.3811 16.0773 28.0511 16.2006 27.7423C16.3239 27.4336 16.5085 27.1522 16.7436 26.9149C16.9787 26.6775 17.2596 26.4889 17.5695 26.3602C17.8796 26.2314 18.2126 26.165 18.549 26.165C18.8854 26.165 19.2184 26.2314 19.5284 26.3602C19.8385 26.4889 20.1193 26.6775 20.3543 26.9149C20.5895 27.1522 20.7741 27.4336 20.8974 27.7423C21.0207 28.0511 21.0802 28.3811 21.0724 28.7129V39.187C21.0724 46.0405 17.173 49.4016 11.0113 49.4016C4.84964 49.4016 1.08318 46.007 1.08318 39.3476Z" fill="#182958"/>
<path d="M49.0393 28.8628C49.0393 28.2027 49.3052 27.5697 49.7781 27.103C50.2515 26.6362 50.8931 26.374 51.5621 26.374C52.2312 26.374 52.8728 26.6362 53.3457 27.103C53.819 27.5697 54.0849 28.2027 54.0849 28.8628L54.075 36.4602L63.3931 27.3615C64.0168 26.7487 64.6396 26.3941 65.5236 26.3954C66.9328 26.3954 67.8498 27.4658 67.8484 28.6928C67.8484 29.4689 67.4863 30.0496 66.9276 30.5661L60.4648 36.507L67.5 45.2444C67.8918 45.7288 68.1864 46.2466 68.185 46.9905C68.185 48.3808 67.0997 49.4138 65.6269 49.4124C64.6434 49.4124 64.0536 48.9254 63.4977 48.2082L56.9547 39.7397L54.0684 42.3863L54.0618 46.9129C54.0614 47.2398 53.9954 47.5631 53.8685 47.865C53.7413 48.1668 53.555 48.4408 53.3202 48.6719C53.0859 48.9026 52.8073 49.0854 52.5013 49.2101C52.1948 49.3347 51.8667 49.3989 51.5357 49.3984C51.2043 49.398 50.8762 49.3333 50.5707 49.2077C50.2647 49.0822 49.9865 48.8984 49.7527 48.6673C49.5188 48.4357 49.3335 48.1612 49.2072 47.8589C49.0808 47.5566 49.0158 47.2329 49.0162 46.9063L49.0393 28.8628Z" fill="#182958"/>
<path d="M23.5816 28.9393C23.5789 28.6117 23.6423 28.2869 23.7681 27.9837C23.8939 27.6806 24.0796 27.4052 24.3144 27.1735C24.5492 26.9419 24.8284 26.7587 25.1357 26.6345C25.443 26.5104 25.7723 26.4479 26.1043 26.4505H26.6617C27.1264 26.4432 27.5845 26.5594 27.9881 26.7868C28.3915 27.0142 28.7257 27.3445 28.9553 27.7431L35.0505 37.5375L41.1769 27.711C41.7018 26.8707 42.422 26.4505 43.4379 26.4505H43.9953C44.3274 26.4479 44.6566 26.5104 44.9639 26.6345C45.2712 26.7587 45.5504 26.9419 45.7852 27.1735C46.02 27.4052 46.2057 27.6806 46.3315 27.9837C46.4574 28.2869 46.5207 28.6117 46.5181 28.9393V46.9131C46.5181 47.5699 46.2537 48.1992 45.7831 48.6634C45.3126 49.128 44.6743 49.3885 44.0089 49.3885C43.3434 49.3885 42.7052 49.128 42.2347 48.6634C41.7641 48.1992 41.4997 47.5699 41.4997 46.9131V35.6308L37.0755 42.3545C36.5519 43.1306 35.8968 43.6149 34.9786 43.6149C34.0604 43.6149 33.4053 43.1306 32.8818 42.3545L28.5294 35.7258V46.9759C28.5291 47.2973 28.4642 47.615 28.3385 47.9113C28.2129 48.2075 28.0289 48.4759 27.7973 48.7015C27.5658 48.9271 27.2912 49.1052 26.9894 49.2257C26.6876 49.3457 26.3647 49.4057 26.0392 49.402C25.7157 49.4052 25.3948 49.3443 25.0953 49.2234C24.7958 49.1029 24.5237 48.9243 24.295 48.6987C24.0663 48.4727 23.8855 48.2043 23.7632 47.9089C23.641 47.6131 23.5797 47.2968 23.5829 46.9773L23.5816 28.9393Z" fill="#182958"/>
<path d="M31.7031 13.3415C31.7017 13.1764 31.7335 13.0127 31.7969 12.8599C31.8602 12.707 31.9537 12.5682 32.072 12.4513C32.1903 12.3346 32.331 12.2421 32.4858 12.1795C32.6407 12.1168 32.8066 12.0852 32.9739 12.0865H36.4244C39.1804 12.0865 40.8473 13.6921 40.8473 16.0283V16.0564C40.8473 18.695 38.7681 20.0625 36.1762 20.0625H34.2448V22.3265C34.2448 22.659 34.1109 22.9779 33.8726 23.213C33.6343 23.4481 33.311 23.5802 32.9739 23.5802C32.6369 23.5802 32.3137 23.4481 32.0753 23.213C31.837 22.9779 31.7031 22.659 31.7031 22.3265V13.3415ZM36.2589 17.836C37.5298 17.836 38.2731 17.0867 38.2731 16.11V16.0765C38.2731 14.9525 37.481 14.3504 36.2088 14.3504H34.2448V17.836H36.2589Z" fill="#009EA9"/>
<path d="M42.62 20.9135V20.8814C42.62 18.976 44.0888 18.0955 46.1857 18.0955C46.9225 18.0894 47.6547 18.2108 48.3491 18.4541V18.3083C48.3491 17.282 47.7047 16.712 46.4502 16.712C45.8632 16.7059 45.2787 16.7881 44.7168 16.9555C44.6005 16.9984 44.4775 17.0206 44.3533 17.0211C44.2175 17.0234 44.0824 16.999 43.9563 16.9492C43.8301 16.8995 43.7152 16.8254 43.6183 16.7314C43.5214 16.6373 43.4446 16.5252 43.3922 16.4014C43.3397 16.2777 43.3129 16.145 43.313 16.0109C43.3135 15.8017 43.3787 15.5976 43.4999 15.426C43.6211 15.2543 43.7925 15.1232 43.9912 15.0501C44.7846 14.7571 45.6432 14.5952 46.815 14.5952C48.1851 14.5952 49.1751 14.9525 49.7989 15.572C50.458 16.2236 50.755 17.1843 50.755 18.3565V22.3305C50.7555 22.4879 50.7239 22.6438 50.6621 22.7891C50.6008 22.9344 50.5108 23.0662 50.3972 23.1767C50.2835 23.2874 50.1487 23.3745 50.0007 23.4332C49.8526 23.4919 49.6942 23.5209 49.5344 23.5187C48.8074 23.5187 48.3289 23.0142 48.3289 22.4924V22.479C47.7183 23.148 46.876 23.5869 45.6554 23.5869C43.9898 23.5842 42.62 22.6395 42.62 20.9135ZM48.3817 20.3381V19.8979C47.8772 19.6789 47.331 19.5681 46.7798 19.5727C45.7069 19.5727 45.0464 19.9956 45.0464 20.777V20.8091C45.0464 21.4781 45.6079 21.8675 46.4176 21.8675C47.5895 21.8742 48.3817 21.2386 48.3817 20.3381Z" fill="#009EA9"/>
<path d="M52.5306 13.4392C52.5291 13.2741 52.5612 13.1104 52.6244 12.9575C52.6876 12.8047 52.7814 12.6658 52.8997 12.549C53.0176 12.4322 53.1586 12.3398 53.3132 12.2771C53.4683 12.2145 53.6343 12.1829 53.8016 12.1841H57.0378C60.6685 12.1841 63.1776 14.6434 63.1776 17.8521V17.8842C63.1776 21.0955 60.6685 23.5842 57.0378 23.5842H53.8016C53.6343 23.5855 53.4683 23.5539 53.3137 23.4913C53.159 23.4288 53.0181 23.3364 52.9002 23.2198C52.7819 23.1031 52.688 22.9644 52.6249 22.8117C52.5612 22.659 52.5291 22.4955 52.5306 22.3305V13.4392ZM57.0378 21.3203C59.1169 21.3203 60.5205 19.9367 60.5205 17.9163V17.8842C60.5205 15.865 59.1169 14.4481 57.0378 14.4481H55.0736V21.3203H57.0378Z" fill="#009EA9"/>
<path d="M64.9503 12.674C64.9503 11.9568 65.5604 11.5166 66.3539 11.5166C67.1473 11.5166 67.7565 11.9568 67.7565 12.674V12.7115C67.7565 13.4273 67.1459 13.8836 66.3539 13.8836C65.5618 13.8836 64.9503 13.4273 64.9503 12.7115V12.674ZM65.0993 15.8974C65.0993 15.5691 65.2313 15.2543 65.467 15.0222C65.7023 14.7901 66.021 14.6597 66.3539 14.6597C66.6867 14.6597 67.0059 14.7901 67.2412 15.0222C67.4764 15.2543 67.6084 15.5691 67.6084 15.8974V22.3454C67.6084 22.6737 67.4764 22.9885 67.2412 23.2206C67.0059 23.4527 66.6867 23.5831 66.3539 23.5831C66.021 23.5831 65.7023 23.4527 65.467 23.2206C65.2313 22.9885 65.0993 22.6737 65.0993 22.3454V15.8974Z" fill="#009EA9"/>
</g>
</svg>
