<svg width="182" height="106" viewBox="0 0 182 106" fill="none" xmlns="http://www.w3.org/2000/svg">
<mask id="mask0_3276_2713" style="mask-type:luminance" maskUnits="userSpaceOnUse" x="-1" y="0" width="183" height="101">
<path d="M173.381 67.8826C181.808 52.2386 177.362 33.42 177.362 17.5273C177.362 -13.4538 132.954 6.07045 93.2 6.07045C75.7508 6.07045 56.6165 2.74401 40.7832 3.72902C36.6569 2.8522 30.9195 3.5627 24.9928 3.5627C12.1772 3.5627 -0.00244141 7.66424 -0.00244141 16.8265C-0.00244141 21.7403 2.9873 26.1551 7.73794 29.1908C6.85996 33.5701 6.47286 38.6599 6.65405 44.5748C7.86477 84.2516 8.23046 106.416 99.7544 98.6376C108.414 97.9013 116.138 96.8791 123.025 95.6067C124.789 95.8134 126.995 95.9345 129.746 95.9652C145.022 96.1379 170.516 101.178 178.535 87.8315C185.495 76.2471 181.029 70.5211 173.383 67.8826H173.381Z" fill="white"/>
</mask>
<g mask="url(#mask0_3276_2713)">
<path d="M185.23 -6.69116H-3.08441V118.824H185.23V-6.69116Z" fill="#DCE9EE"/>
<path d="M100.249 47.3586H81.5969V63.7067H100.249V47.3586Z" fill="#80B5BA"/>
<path d="M95.2113 31.0251H76.5596V47.3732H95.2113V31.0251Z" fill="#80B5BA"/>
<path d="M138.193 48.4229H119.541V64.7709H138.193V48.4229Z" fill="#80B5BA"/>
<path d="M145.592 32.3267H126.94V48.6747H145.592V32.3267Z" fill="#80B5BA"/>
<path d="M34.6225 39.1975H11.4508V63.705H34.6225V39.1975Z" fill="#C7DDE2"/>
<path d="M51.5841 39.1975H34.6225V63.705H51.5841V39.1975Z" fill="#ACCCD1"/>
<path d="M32.1088 43.1376L30.7911 42.3189L29.4716 43.1376V39.1975H32.1088V43.1376Z" fill="white"/>
<path d="M74.7559 39.1975H51.5842V63.705H74.7559V39.1975Z" fill="#C7DDE2"/>
<path d="M91.7175 39.1975H74.7559V63.705H91.7175V39.1975Z" fill="#ACCCD1"/>
<path d="M72.2422 43.1376L70.9244 42.3189L69.6066 43.1376V39.1975H72.2422V43.1376Z" fill="white"/>
<path d="M158.08 40.2634H134.908V64.7709H158.08V40.2634Z" fill="#C7DDE2"/>
<path d="M175.041 40.2634H158.08V64.7709H175.041V40.2634Z" fill="#ACCCD1"/>
<path d="M155.566 44.2035L154.248 43.3832L152.931 44.2035V40.2634H155.566V44.2035Z" fill="white"/>
<path d="M154.608 27.2563H142.085V40.5008H154.608V27.2563Z" fill="#C7DDE2"/>
<path d="M163.774 27.2563H154.608V40.5008H163.774V27.2563Z" fill="#ACCCD1"/>
<path d="M153.248 29.3862L152.537 28.9438L151.824 29.3862V27.2563H153.248V29.3862Z" fill="white"/>
<path d="M52.6433 14.9292H29.4716V39.4367H52.6433V14.9292Z" fill="#C7DDE2"/>
<path d="M69.6049 14.9292H52.6433V39.4367H69.6049V14.9292Z" fill="#ACCCD1"/>
<path d="M29.2772 14.9986L24.324 9.88135H47.7263L52.6433 14.9614L29.2772 14.9986Z" fill="#ACCCD1"/>
<path d="M69.5736 14.9987L73.8021 9.94604H56.8306L52.6433 14.9486H69.5736" fill="#80B5BA"/>
<path d="M181.998 63.7068H4.37097V100.181H181.998V63.7068Z" fill="#80B5BA"/>
</g>
<path d="M131.446 70.1689L153.858 92.1396C157.093 95.311 157.093 100.453 153.858 103.622C152.926 104.536 151.827 105.187 150.656 105.573C147.766 106.529 144.446 105.88 142.143 103.622L119.73 81.6516L131.444 70.1689H131.446Z" fill="#303D66"/>
<path d="M122.992 78.4543L150.656 105.573C147.766 106.529 144.446 105.88 142.143 103.622L119.73 81.6516L122.992 78.4543Z" fill="#222D49"/>
<path d="M122.027 67.3269L116.835 72.416L122.995 78.454L128.186 73.3649L122.027 67.3269Z" fill="#518EA6"/>
<path d="M118.437 70.8461L116.835 72.4172L122.993 78.454L124.596 76.8829L118.437 70.8461Z" fill="#3C7282"/>
<path d="M97.8008 81.1963C88.0113 81.1963 78.8065 77.4597 71.8831 70.6728C64.9598 63.8859 61.1481 54.8641 61.1481 45.2659C61.1481 35.6676 64.9598 26.6459 71.8831 19.859C78.8065 13.072 88.0096 9.33545 97.8008 9.33545C107.592 9.33545 116.795 13.072 123.718 19.859C130.642 26.6459 134.454 35.6676 134.454 45.2659C134.454 54.8641 130.642 63.8859 123.718 70.6728C116.795 77.4597 107.592 81.1963 97.8008 81.1963ZM97.8008 14.8257C80.6794 14.8257 66.7487 28.4803 66.7487 45.2659C66.7487 62.0515 80.6777 75.7061 97.8008 75.7061C114.924 75.7061 128.853 62.0515 128.853 45.2659C128.853 28.4803 114.924 14.8257 97.8008 14.8257Z" fill="#518EA6"/>
<g opacity="0.43">
<path d="M97.8008 78.4512C116.497 78.4512 131.653 63.5936 131.653 45.2659C131.653 26.9381 116.497 12.0806 97.8008 12.0806C79.1046 12.0806 63.9484 26.9381 63.9484 45.2659C63.9484 63.5936 79.1046 78.4512 97.8008 78.4512Z" fill="white"/>
</g>
<path d="M71.8782 44.4245C73.4794 44.4245 74.7773 43.1521 74.7773 41.5825C74.7773 40.0129 73.4794 38.7405 71.8782 38.7405C70.2771 38.7405 68.9791 40.0129 68.9791 41.5825C68.9791 43.1521 70.2771 44.4245 71.8782 44.4245Z" fill="white"/>
<path d="M92.3913 17.7677C92.3287 17.7613 92.2644 17.7581 92.2002 17.7581C92.1854 17.7581 92.1722 17.7581 92.1573 17.7597C91.9185 17.7629 91.6879 17.8065 91.4737 17.8808C88.6174 18.4686 79.3814 21.2767 72.234 33.5344C71.6624 34.5162 71.9144 35.7951 72.8814 36.4104C73.2454 36.6413 73.649 36.7511 74.0476 36.7511C74.7921 36.7511 75.5169 36.37 75.9106 35.6886C79.808 28.9775 84.1814 25.5865 87.1629 23.9249C89.5531 22.5927 91.4622 22.1244 92.2792 21.9742C93.4307 21.9339 94.3515 21.0054 94.3515 19.867C94.3515 18.7285 93.49 17.8614 92.3913 17.7677Z" fill="white"/>
</svg>