<svg width="298" height="251" viewBox="0 0 298 251" fill="none" xmlns="http://www.w3.org/2000/svg">
<path d="M285.576 173.248C290.807 190.423 287.072 207.857 281.933 217.555C275.376 229.918 251.436 239.381 234.35 242.877C217.267 246.373 185.9 241.666 172.848 239.409C159.797 237.149 132.612 246.512 121.907 249.363C115.027 251.196 106.297 250.672 91.0722 248.792C82.6048 247.745 72.1285 246.278 58.8428 244.559C56.5885 244.266 54.4542 243.892 52.4342 243.438C21.1617 236.421 17.465 210.879 21.4798 193.004C22.7073 187.544 21.6332 180.508 19.4822 173.248C14.131 155.197 2.10357 135.765 2.10357 135.765C1.85806 134.348 1.64323 132.947 1.46189 131.563C-4.14033 89.3654 18.5029 61.9068 40.2394 45.6665C54.1277 35.2907 69.9914 27.8694 86.798 23.6091L146.135 8.57411C267.525 -16.2174 290.763 61.2902 296.747 94.5101C299.744 111.147 291.876 122.122 284.993 131.563C278.135 140.974 272.254 148.864 279.081 159.318C282.027 163.829 284.142 168.53 285.576 173.248Z" fill="#C5EBEE"/>
<path d="M164.451 36.9171H111.369V45.7278H164.451V36.9171Z" fill="#80B5BA"/>
<path d="M163.159 43.998H119.214V133.837H163.159V43.998Z" fill="#80B5BA"/>
<path d="M252.602 15.6996H150.638V33.5078H252.602V15.6996Z" fill="#80B5BA"/>
<path d="M248.841 33.5078H158.391V119.145H248.841V33.5078Z" fill="#ACCCD1"/>
<path d="M235.65 41.3894H169.311V45.4348H235.65V41.3894Z" fill="#80B5BA"/>
<path d="M233.717 45.7278H173.747V116.241H233.717V45.7278Z" fill="#CFF6FF"/>
<path d="M250.9 115.379H155.414V121.129H250.9V115.379Z" fill="#A3DFE5"/>
<path d="M254.323 121.107H150.638V126.857H254.323V121.107Z" fill="#84CED1"/>
<path d="M256.932 126.857H145.46V133.84H256.932V126.857Z" fill="#6DB2B2"/>
<path d="M237.257 111.582H170.918V115.627H237.257V111.582Z" fill="#80B5BA"/>
<path d="M196.94 70.1232H180.331V76.3252H196.94V70.1232Z" fill="#80B5BA"/>
<path d="M188.637 65.6536C189.358 65.6536 189.942 65.069 189.942 64.3479C189.942 63.6268 189.358 63.0422 188.637 63.0422C187.916 63.0422 187.331 63.6268 187.331 64.3479C187.331 65.069 187.916 65.6536 188.637 65.6536Z" fill="#80B5BA"/>
<path d="M192.509 71.4679L188.609 65.0538L184.343 71.0299L183.71 70.5779L188.662 63.6421L193.173 71.0661L192.509 71.4679Z" fill="#80B5BA"/>
<path d="M154.887 48.7828H125.065V78.6046H154.887V48.7828Z" fill="#CFF6FF"/>
<path d="M157.091 46.7294H122.353V49.5361H157.091V46.7294Z" fill="#ACCCD1"/>
<path d="M157.261 77.8568H122.523V80.6635H157.261V77.8568Z" fill="#ACCCD1"/>
<path d="M136.524 49.5361H135.569V77.8569H136.524V49.5361Z" fill="#ACCCD1"/>
<path d="M200.497 80.5603H197.082V89.8453H200.497V80.5603Z" fill="#A3DFE5"/>
<path d="M213.414 80.5603H209.999V89.8453H213.414V80.5603Z" fill="#A3DFE5"/>
<path opacity="0.5" d="M215.59 33.5078L159.233 15.6996H252.602V33.5078H215.59Z" fill="url(#paint0_linear_3380_136)"/>
<path d="M193.173 33.5078L221.924 41.8079L235.65 41.3894L248.838 48.7688V33.5078H193.173Z" fill="url(#paint1_linear_3380_136)"/>
<path d="M233.717 95.5172L232.531 79.1402L193.416 45.725L179.625 45.7278L233.717 95.5172Z" fill="url(#paint2_linear_3380_136)"/>
<path d="M202.204 45.725L233.717 68.6723L233.513 73.0776L197.082 45.7278L202.204 45.725Z" fill="url(#paint3_linear_3380_136)"/>
<path d="M173.616 73.2256L222.978 111.442L208.097 111.06L173.616 83.8106V73.2256Z" fill="url(#paint4_linear_3380_136)"/>
<path d="M173.747 89.848L202.522 111.582L195.023 111.442L172.636 95.5172L173.747 89.848Z" fill="url(#paint5_linear_3380_136)"/>
<path d="M135.569 49.7565L154.887 61.8844V55.7883L145.228 49.7565H135.569Z" fill="url(#paint6_linear_3380_136)"/>
<path d="M207.346 44.3746H204.489V114.478H207.346V44.3746Z" fill="#80B5BA"/>
<path d="M281.933 217.555C278.236 224.525 269.012 230.576 258.606 235.151C252.287 237.93 245.532 240.168 239.313 241.739C237.612 242.168 235.952 242.55 234.35 242.877C229.992 243.77 224.702 244.127 219.028 244.127C202.453 244.13 182.569 241.091 172.848 239.409C159.797 237.149 132.612 246.512 121.907 249.363C115.027 251.196 106.297 250.672 91.0723 248.792C82.6048 247.745 72.1285 246.278 58.8428 244.559C56.5885 244.266 54.4542 243.892 52.4343 243.438C21.1617 236.421 17.4651 210.879 21.4798 193.004C22.7074 187.544 21.6332 180.508 19.4822 173.248C14.1311 155.197 2.1036 135.765 2.1036 135.765C1.85809 134.348 1.64326 132.947 1.46191 131.563H284.993C278.136 140.974 272.254 148.864 279.081 159.318C282.028 163.829 284.142 168.53 285.576 173.248C290.807 190.423 287.072 207.857 281.933 217.555Z" fill="#C5EBEE"/>
<path opacity="0.3" d="M198.089 134.861C198.089 134.861 105.348 148.077 100.633 157.822C95.9184 167.568 179.363 165.001 182.078 178.326C184.792 191.651 41.4363 239.746 41.4363 239.746C41.4363 239.746 94.5374 255.858 126.99 247.837C159.443 239.816 169.894 239.043 177.642 240.207C185.389 241.37 212.234 243.075 212.234 243.075C212.234 243.075 259.181 202.517 251.229 181.317C243.278 160.116 169.749 163.584 184.153 157.262C198.558 150.94 265.263 132.442 265.263 132.442L198.092 134.861H198.089Z" fill="white"/>
<path d="M261.454 182.385L258.606 235.151C252.287 237.93 245.532 240.168 239.313 241.739L239.74 183.92L261.454 182.385Z" fill="#263A69"/>
<path d="M238.206 180.128L234.35 242.877C229.992 243.77 224.702 244.127 219.028 244.127L215.97 180.385L238.206 180.128Z" fill="#263A69"/>
<path d="M104.715 48.6238C104.715 48.6238 105.07 49.4663 105.346 50.3396C104.997 49.352 104.715 48.6238 104.715 48.6238C104.715 48.6238 103.817 50.5516 102.815 50.1666C103.884 50.1666 104.715 48.6238 104.715 48.6238ZM84.2342 131.508C84.382 133.036 84.4797 134.373 84.5159 135.458C84.5299 135.899 84.5327 136.376 84.5215 136.884L84.4211 139.007H81.6367C81.6367 139.007 82.9006 136.117 84.2342 131.505V131.508Z" fill="white"/>
<path d="M118.288 72.4918L126.259 115.532L131.063 126.263L128.871 125.699L120.835 123.883L114.421 69.063L118.288 72.4918Z" fill="#3E4249"/>
<path d="M112.957 151.475C112.957 151.475 118.079 175.533 117.959 181.476C117.839 187.415 112.583 250.368 112.583 250.368L91.0725 248.794L92.2192 179.785L90.7795 157.46L112.957 151.478V151.475Z" fill="#916640"/>
<path d="M100.455 166.301L91.0723 248.792C82.6048 247.745 84.103 247.851 70.8173 246.133C68.563 245.84 65.4243 245.695 63.4044 245.24C64.5929 238.689 61.2896 178.306 61.1111 172.238C60.8377 162.914 69.1768 150.63 69.1768 150.63L100.385 147.564L100.455 166.298V166.301Z" fill="#B78554"/>
<path d="M80.0715 30.4166C80.0715 30.4166 76.6036 27.9057 75.7638 31.1337C74.9268 34.3644 74.8069 37.4724 76.4808 39.2692C78.1548 41.0631 79.3517 42.26 80.4286 42.26C81.5055 42.26 82.3425 40.706 82.3425 40.706C82.3425 40.706 82.9982 42.2963 82.9982 43.256C82.9982 44.2157 82.4876 47.2345 82.2477 49.6282C82.0077 52.022 79.2485 59.9343 79.2485 59.9343L70.8145 65.9299C70.8145 65.9299 84.8339 79.3272 87.9447 80.4042C91.0555 81.4811 95.1261 82.2651 97.2743 82.5971C98.7028 82.8175 101.283 79.7792 101.283 79.7792L103.116 78.6409L104.604 72.6202C104.604 72.6202 104.849 71.7246 104.372 70.0507C103.892 68.3767 102.902 69.4759 101.8 65.3468C100.745 61.3907 101.122 58.8909 101.122 58.0539C101.122 57.2169 101.242 57.0523 101.242 57.0523C101.242 57.0523 103.873 56.4971 104.83 55.7801C105.786 55.0631 108.777 50.0384 109.974 47.5246C111.171 45.0137 112.485 40.706 112.485 37.3553V27.7857C112.485 25.6319 112.245 23.2409 112.245 23.2409C112.245 23.2409 107.101 17.2592 104.949 16.1823C102.796 15.1054 79.4689 27.4258 80.0687 30.4166H80.0715Z" fill="#F5AA89"/>
<path d="M79.3489 35.3883C79.3573 34.7243 80.0101 34.2444 80.1747 33.6027C80.331 32.9917 79.9767 32.3082 79.4103 32.0376C78.8439 31.7669 78.1186 31.9036 77.6526 32.3249C77.3402 32.6067 77.1393 32.9917 76.983 33.3823C76.4892 34.6183 76.4167 36.1053 77.1504 37.2129C76.6622 36.1165 76.8017 34.7661 77.5048 33.7952C77.6387 33.6111 77.7977 33.4325 78.0097 33.3516C78.2218 33.2707 78.4924 33.3042 78.6291 33.4855C78.6933 33.5692 78.7184 33.678 78.7323 33.7813C78.8049 34.356 78.5008 34.9084 78.4115 35.4803C78.3445 35.9016 78.3975 36.3424 78.5594 36.7358C78.6152 36.8725 78.6877 37.0092 78.8077 37.0985C79.003 37.2492 79.2708 37.2408 79.5107 37.291C80.0799 37.4082 80.7578 37.9718 80.2082 36.9786C79.9181 36.4513 79.3461 36.0467 79.3545 35.3883H79.3489Z" fill="#B65734"/>
<path d="M106.629 37.8044C106.66 37.8992 106.685 38.0024 106.665 38.1001C106.649 38.1782 106.604 38.248 106.559 38.3149C106.194 38.8617 105.717 39.336 105.17 39.6987C106.007 39.2886 106.788 38.7613 107.48 38.1392C107.553 38.0722 107.631 37.9941 107.634 37.8936C107.634 37.8099 107.583 37.7374 107.533 37.6704C106.811 36.7051 104.838 33.0782 104.64 33.3265C104.461 33.5525 106.412 37.1459 106.629 37.8044Z" fill="#953919"/>
<path d="M104.057 16.1684C104.057 16.1684 102.109 23.5478 96.3482 25.3417L97.5758 22.8866C97.5758 22.8866 94.3646 25.2468 90.587 26.3824C86.8094 27.5151 84.9206 28.1763 83.7851 28.9324C82.6524 29.6884 80.0717 30.4166 80.0717 30.4166C80.0717 30.4166 78.5846 29.3509 77.5496 29.5936C76.5145 29.8363 75.9398 30.9216 75.5659 32.71C75.1921 34.4983 76.0374 38.3764 76.0374 38.3764C76.0374 38.3764 74.0035 34.5457 70.8955 31.4433C62.3332 22.8977 70.106 14.7929 71.7688 12.6586C72.6532 11.5203 73.6018 9.40831 73.945 8.59643C74.768 6.66021 76.1072 5.66699 78.5037 3.93722C81.9047 1.48206 84.823 2.01215 89.2618 1.44579C93.7006 0.879433 96.0637 1.54065 97.8576 1.16122C99.6515 0.784575 100.692 0.5 100.692 0.5L99.6543 2.01215C99.6543 2.01215 102.394 2.20187 105.229 4.18552C108.063 6.16918 109.196 8.15283 111.18 9.94677C113.163 11.7407 113.163 12.7814 114.201 13.4426L115.239 14.1038H112.971C112.971 14.1038 114.198 18.6375 114.103 20.8108C114.009 22.9842 113.442 26.0057 113.442 26.0057L112.488 27.7857C112.488 27.7857 111.835 23.7375 110.136 22.5099C108.437 21.2823 104.679 18.6124 104.054 16.1684H104.057Z" fill="#484C55"/>
<path d="M97.8966 17.4963C97.8966 17.4963 93.4299 22.0411 89.3621 24.354C85.2944 26.6669 84.9763 27.144 84.9763 27.144C84.9763 27.144 95.9827 22.8363 97.8966 17.4935V17.4963Z" fill="#383C41"/>
<path d="M103.08 14.7845C103.08 14.7845 102.282 19.1703 100.527 21.2433C98.7725 23.3162 97.9746 24.5131 97.9746 24.5131C97.9746 24.5131 103.638 20.2863 103.077 14.7845H103.08Z" fill="#383C41"/>
<path d="M105.153 14.7845C105.153 14.7845 106.749 18.2943 109.14 20.4481C111.534 22.602 112.491 24.195 112.491 24.195C112.491 24.195 105.234 20.0492 105.153 14.7845Z" fill="#383C41"/>
<path d="M81.8654 29.8251C81.8654 29.8251 79.9543 27.7829 78.3585 28.4999C76.7626 29.2169 75.7275 31.9288 75.7275 31.9288C75.7275 31.9288 78.4003 29.6159 79.2373 30.0148L80.0743 30.4138L81.8682 29.8251H81.8654Z" fill="#383C41"/>
<path d="M105.75 26.7059C105.75 26.7059 108.284 23.7458 111.475 26.1368L110.566 24.2731C110.566 24.2731 108.172 22.8363 106.099 25.23L105.75 26.7031V26.7059Z" fill="#373B41"/>
<path d="M97.2773 27.875C97.2773 27.875 90.0207 26.4717 87.9478 30.1404L88.6424 27.49C88.8712 27.8889 91.5356 24.9846 96.5771 26.095L97.2773 27.875Z" fill="#373B41"/>
<path d="M105.647 32.4533C105.842 31.8646 108.409 28.2349 111.81 32.7964L111.919 31.0555C111.919 31.0555 111.894 31.0025 111.841 30.9104C110.806 29.1332 108.409 28.7259 106.819 30.0316L106.144 30.5868L105.647 32.4561V32.4533Z" fill="#373B41"/>
<path d="M98.2845 33.4186C98.2845 33.4186 94.6604 29.0189 90.866 33.7674L90.4336 32.5454C90.4336 32.5454 94.0661 28.9631 97.7321 31.1253L98.2845 33.4214V33.4186Z" fill="#373B41"/>
<path d="M80.8248 57.786C80.8248 57.786 92.1185 78.3591 100.915 67.8186L102.023 63.8569C102.023 63.8569 109.38 72.6341 112.03 74.6596C114.681 76.6851 112.597 120.178 112.597 120.178L107.731 152.304C98.9455 157.005 88.9659 157.909 78.2636 156.522L66.8695 117.982L54.2422 73.3985L80.8248 57.7832V57.786Z" fill="#F6F8FB"/>
<path d="M80.6715 55.6433L96.7974 69.4145L87.7133 80.3065L70.8174 62.6154L80.6715 55.6433Z" fill="#DAE1EA"/>
<path d="M101.245 62.0128L96.7974 69.4146L103.463 77.2432L108.311 69.6266L101.245 62.0128Z" fill="#DAE1EA"/>
<path d="M92.7742 74.2384L95.6171 83.7409L100.455 82.7672L101.244 74.6401L96.7973 69.4146L92.7742 74.2384Z" fill="#484C55"/>
<path d="M95.6171 83.7409C95.6171 83.7409 95.6199 130.913 94.9029 139.3C94.1859 147.687 94.9029 149.467 94.9029 149.467L101.855 154.357L107.949 148.331C107.949 148.331 107.087 115.803 104.534 103.541C101.981 91.2793 100.455 82.7644 100.455 82.7644L95.6171 83.7381V83.7409Z" fill="#484C55"/>
<path d="M61.8979 63.7063C61.8979 63.7063 47.5631 80.937 47.9788 92.9672C48.1686 98.5053 53.7373 117.976 54.2423 136.716C54.8337 158.684 50.3587 179.877 50.3587 179.877L56.8034 180.491C68.2116 183.811 90.4335 185.181 90.4335 185.181C90.4335 185.181 92.0656 101.878 88.6228 86.1151C85.18 70.3519 80.6715 55.6433 80.6715 55.6433" fill="#484C55"/>
<path d="M100.634 61.6835C101.312 58.0845 104.657 85.5627 105.784 115.884C106.766 142.299 108.897 178.496 105.789 183.462L122.669 180.94C122.669 180.94 120.71 122.895 120.721 118.76C120.732 114.626 119.728 99.0103 119.619 93.0537C119.558 89.6918 118.846 80.538 118.406 75.1423C118.196 72.5699 116.695 70.2794 114.419 69.063L100.631 61.6835H100.634Z" fill="#3E4249"/>
<path d="M108.532 42.9769C108.532 42.9769 100.929 45.7892 95.1484 44.955C95.1484 44.955 98.6387 46.2216 103.898 45.5799C103.898 45.5799 107.751 44.6425 108.532 42.9769Z" fill="#953919"/>
<path d="M84.304 45.7642C84.304 45.7642 90.7822 56.352 101.245 57.0495L100.862 61.6613C100.862 61.6613 88.4331 57.9228 84.304 45.7642Z" fill="#953919"/>
<path d="M56.0334 75.1674C56.0334 75.1674 66.7775 89.0027 66.9812 101.566C67.1849 114.129 66.1972 116.107 66.1972 116.107C66.1972 116.107 76.0792 87.591 56.0334 75.1674Z" fill="#303D66"/>
<path d="M82.086 84.2458L74.8098 93.8182L88.6229 119.634L77.968 94.2032L82.6747 84.6588L82.086 84.2458Z" fill="#383C44"/>
<path d="M78.6962 56.4552L69.7265 69.6628L85.5846 87.1418L65.7732 71.1638L78.6962 56.4552Z" fill="#383C44"/>
<path d="M107.382 65.3301L112.58 73.9957L105.867 89.1562L110.633 74.4281L107.382 65.3301Z" fill="#282C33"/>
<path d="M107.924 84.8235L112.22 96.3432L107.382 117.098L114.633 96.3432L107.924 84.8235Z" fill="#282C33"/>
<g style="mix-blend-mode:multiply" opacity="0.2">
<path d="M107.262 155.169L100.455 160.091L90.6929 166.75L90.7766 157.454C90.7766 157.454 99.046 157.094 101.487 155.312L107.726 152.301L107.26 155.166L107.262 155.169Z" fill="#373B41"/>
</g>
<g style="mix-blend-mode:multiply" opacity="0.2">
<path d="M68.6189 101.555C68.6189 101.555 111.28 106.543 119.946 97.4954L121.028 121.43C121.028 121.43 88.4359 133.117 81.0537 130.732L66.3228 129.828L68.6189 101.558V101.555Z" fill="#373B41"/>
</g>
<path d="M61.8979 63.7063L76.534 118.869L125.101 122.449L123.567 141.819L70.742 141.01C57.3726 143.315 57.6962 132.612 56.1785 128.441C50.4842 112.798 46.2435 86.0342 47.3065 81.3276C47.6747 79.6927 47.8338 77.6616 49.0307 75.2204C51.6588 69.8525 56.2706 65.7178 61.8979 63.7035V63.7063Z" fill="#484C55"/>
<path d="M51.19 111.509L59.9672 142.729C60.7261 145.019 62.3108 145.351 64.699 145.019L121.366 141.378L88.0174 141.278L62.7516 140.592L51.1873 111.509H51.19Z" fill="#383C44"/>
<path d="M211.57 30.0148C210.968 31.5939 210.647 33.2679 210.599 34.9586C210.527 37.5588 210.432 41.4508 210.359 42.2794C210.251 43.5209 209.821 45.1921 210.683 46.4309C210.714 46.4755 210.744 46.5229 210.778 46.5731C212.814 49.6839 215.858 51.9996 219.435 53.0179C227.802 55.4033 241.743 59.2451 242.918 58.7234C244.606 57.9729 248.057 54.0363 249.405 48.3727C250.752 42.7091 252.317 38.1782 251.076 33.7031C249.834 29.228 246.313 19.8426 240.552 18.1157C234.788 16.3887 229.881 15.6884 227.4 16.2827C224.92 16.8769 219.561 19.0977 216.19 22.6465C214.77 24.1447 212.53 27.8777 212.011 28.9546C211.877 29.2336 211.724 29.6075 211.57 30.012V30.0148Z" fill="#455177"/>
<path d="M228.608 62.7298C228.608 62.7298 230.536 68.9123 229.406 70.843C228.276 72.7708 223.489 76.1634 223.489 76.1634C223.489 76.1634 230.271 83.9808 234.794 83.5819C239.316 83.1829 245.189 81.5731 248.978 77.3826C252.767 73.1949 251.285 72.5141 251.285 72.5141C251.285 72.5141 248.294 73.0386 245.501 68.5161C242.709 63.9936 242.112 49.7649 242.112 49.7649C242.112 49.7649 228.547 60.2049 228.614 62.7298H228.608Z" fill="#F5AA89"/>
<path d="M212.516 38.1921C212.516 38.1921 212.184 51.2239 214.246 54.7476C216.308 58.2713 221.226 64.1219 222.423 64.5208C223.62 64.9198 228.076 65.2518 230.6 63.4578C233.128 61.6639 238.248 58.0732 239.975 55.2805C241.704 52.4878 242.368 50.5599 242.368 50.5599C242.368 50.5599 243.964 51.0258 244.762 50.2949C245.56 49.5639 249.285 44.7094 248.088 42.7146C246.891 40.7198 244.232 40.9206 242.834 42.5807C242.834 42.5807 231.864 27.0211 225.414 27.155C218.964 27.289 212.527 34.9334 212.513 38.1921H212.516Z" fill="#F5AA89"/>
<path d="M240.555 54.3152C240.555 54.3152 237.486 61.4575 232.271 65.5503C230.433 66.9927 229.456 66.4013 229.456 66.4013L229.03 64.253C229.03 64.253 233.457 62.6767 237.988 57.5208C239.096 56.2626 240.555 54.3152 240.555 54.3152Z" fill="#953919"/>
<path d="M243.049 48.0713C243.049 48.0713 244.957 47.8648 244.541 46.4113C244.126 44.9605 243.545 43.0103 244.873 42.8457C246.201 42.6811 247.569 43.5516 246.824 44.9187C246.824 44.9187 245.585 42.8457 245.044 43.5906C244.502 44.3383 246.04 46.9916 245.044 47.5719C244.048 48.1522 243.052 48.0685 243.052 48.0685L243.049 48.0713Z" fill="#953919"/>
<path d="M220.272 42.165C220.272 42.165 220.869 44.7123 219.809 46.1463C219.134 47.0586 218.559 47.7449 218.227 48.1216C218.071 48.3001 218.154 48.5429 218.406 48.6433L221.201 49.7621L219.533 48.3476C219.385 48.222 219.36 48.0379 219.471 47.8928C220.146 47.0251 222.242 43.998 220.272 42.1678V42.165Z" fill="#953919"/>
<path d="M219.053 52.5827C219.053 52.5827 228.371 53.283 231.805 50.8641C231.805 50.8641 229.133 58.2101 223.249 57.7972L219.973 57.8139L219.05 52.58L219.053 52.5827Z" fill="#B65734"/>
<path d="M220.146 57.6353C220.146 57.6353 222.272 55.487 224.25 55.0267C226.228 54.5663 229.73 54.4938 229.73 54.4938C229.73 54.4938 225.428 57.8585 223.249 57.7999L220.146 57.6353Z" fill="#DD7657"/>
<path d="M219.245 52.5966C219.245 52.5966 219.853 53.7014 220.378 53.8911C220.905 54.0809 225.746 54.145 227.64 53.3638C229.534 52.5854 230.609 51.9968 230.609 51.9968L231.231 51.2156C231.231 51.2156 225.221 52.5938 222.317 52.7333C219.413 52.8728 219.248 52.5966 219.248 52.5966H219.245Z" fill="#DEE1EB"/>
<path d="M229.984 54.1591C229.984 54.1591 226.965 56.352 225.093 56.5417C223.221 56.7314 220.294 56.9406 220.146 57.069C219.998 57.1973 219.973 57.8167 219.973 57.8167C219.973 57.8167 224.984 58.1682 226.544 57.1694C228.103 56.1706 229.677 55.0407 229.984 54.1591Z" fill="#DEE1EB"/>
<path d="M225.246 37.6899C225.246 37.6899 229.735 35.1678 233.12 37.1793L232.154 35.4998C232.154 35.4998 228.988 34.4982 226.245 36.1917L225.246 37.6871V37.6899Z" fill="#383C41"/>
<path d="M217.739 38.0638C217.739 38.0638 213.95 37.0929 212.496 38.6274L212.856 37.6286C212.856 37.6286 214.031 35.9491 216.433 36.7051L217.739 38.0666V38.0638Z" fill="#383C41"/>
<path d="M224.44 42.3324C224.44 42.3324 226.859 38.8031 233.136 42.2459L234.149 41.5624C234.149 41.5624 230.238 37.5867 226.24 39.5397L225.202 40.293L224.443 42.3296L224.44 42.3324Z" fill="#383C41"/>
<path d="M218.551 42.5165C218.551 42.5165 214.299 40.2455 212.05 43.0438L213.043 40.8955C213.043 40.8955 215.685 39.3555 217.99 40.9737L218.551 42.5165Z" fill="#383C41"/>
<path d="M214.843 40.438C214.843 40.438 213.501 40.9095 212.376 40.2344L213.752 41.1578C213.752 41.1578 212.594 41.3448 211.76 41.1578C211.76 41.1578 212.812 41.6879 213.303 41.6377C213.794 41.5875 214.592 41.2667 214.592 41.2667L214.845 40.4353L214.843 40.438Z" fill="#383C41"/>
<path d="M229.755 39.3611C229.755 39.3611 232.082 39.5424 232.852 38.4906C232.852 38.4906 232.615 39.9218 231.303 39.986C231.303 39.986 233.443 40.4966 234.149 39.8381C234.149 39.8381 233.839 40.5691 232.642 40.6165C232.642 40.6165 234.456 41.3559 235.036 41.0657C235.036 41.0657 234.674 41.6907 233.549 41.5428C232.425 41.3921 229.758 39.3611 229.758 39.3611H229.755Z" fill="#383C41"/>
<path d="M224.013 27.1551C224.013 27.1551 218.958 33.6836 217.259 34.2834C215.56 34.8832 214.804 35.8513 214.804 35.8513L215.261 34.727C215.261 34.727 213.367 38.4237 212.784 40.4352C212.201 42.4468 212.622 45.4516 212.622 45.4516L213.191 51.2156C213.191 51.2156 211.291 40.9263 211.721 37.8043C212.15 34.6824 213.417 31.0136 214.804 30.0036C216.193 28.9937 222.147 25.6959 223.106 25.908C224.063 26.12 224.736 26.385 224.016 27.1551H224.013Z" fill="#455177"/>
<path d="M223.053 26.759C223.053 26.759 226.753 31.9762 229.451 33.3293C232.149 34.6824 231.808 34.5234 231.808 34.5234L231.552 33.678C231.552 33.678 233.798 35.7817 236.03 37.7039C238.264 39.629 239.006 41.0407 239.006 40.7059C239.006 40.3711 238.102 37.9941 238.102 37.9941C238.102 37.9941 241.986 43.1583 242.145 44.397C242.145 44.397 243.529 42.8179 242.837 41.1161C242.145 39.4142 239.062 35.2125 235.711 31.5967C232.361 27.981 228.48 26.0447 226.086 25.8969C223.692 25.7462 223.053 26.759 223.053 26.759Z" fill="#455177"/>
<path d="M248.325 27.1551C248.325 27.1551 254.253 24.6274 257.236 24.6191C262.944 24.6023 268.797 31.0471 269.871 34.727C270.946 38.4098 270.697 48.6238 269.623 50.8669C268.549 53.1072 262.768 66.0721 262.523 68.6333C262.274 71.1945 262.671 73.5855 264.604 74.8856C266.538 76.1857 268.287 74.5508 268.384 76.5595C268.41 77.0534 256.988 71.9366 254.926 70.8625C252.861 69.7883 252.035 68.9625 252.035 68.9625L255.422 72.0175C255.422 72.0175 250.551 70.7732 249.393 66.5241C248.238 62.275 248.238 55.7521 249.31 53.11C250.384 50.4679 250.713 46.6903 250.632 46.018C250.551 45.3456 250.303 42.9211 250.303 42.9211L248.327 27.1579L248.325 27.1551Z" fill="#455177"/>
<path d="M251.483 36.1331C251.483 36.1331 255.913 45.8421 254.839 50.2167C253.765 54.5942 252.805 60.3749 253.243 63.4299C253.681 66.4849 258.081 72.3187 258.081 72.3187C258.081 72.3187 252.856 69.127 252.03 68.9624C251.204 68.7978 249.125 65.5252 249.008 64.8388C248.891 64.1525 247.878 57.1581 248.964 54.2259C250.049 51.2909 251.288 45.8756 250.791 44.3969C250.294 42.9182 250.018 40.7058 250.018 40.7058L251.48 36.1331H251.483Z" fill="#303D66"/>
<path d="M258.36 50.9673C258.36 50.9673 256.095 58.754 256.904 63.3575C257.71 67.9609 258.589 70.695 260.213 72.3188L261.836 73.9425C261.836 73.9425 258.251 71.4316 256.728 68.2845C255.207 65.1347 254.884 64.1665 255.288 61.7449C255.693 59.3232 258.36 50.9701 258.36 50.9701V50.9673Z" fill="#303D66"/>
<path d="M269.966 49.7621C269.966 49.7621 267.985 59.1056 265.254 63.8681C262.523 68.6305 261.739 70.0701 262.539 71.228C263.34 72.3858 264.883 74.5089 267.165 73.9398C269.447 73.3706 271.052 72.4472 271.177 71.0885C271.177 71.0885 270.466 76.3503 268.384 76.5595C266.303 76.766 262.933 75.039 262.241 72.5699C261.552 70.1008 262.104 66.3149 263.586 63.8067C265.067 61.2985 269.966 49.7621 269.966 49.7621Z" fill="#303D66"/>
<path d="M223.996 24.8701C223.996 24.8701 227.347 29.4875 229.448 31.5827C231.549 33.678 234.994 35.5863 234.994 35.5863L223.996 24.8701Z" fill="#303D66"/>
<path d="M229.219 27.8693C229.088 27.8107 234.69 32.735 237.483 35.5863C240.276 38.4376 241.42 41.395 241.42 41.395C241.42 41.395 239.584 32.3918 229.219 27.8693Z" fill="#303D66"/>
<path d="M222.055 26.1368C222.055 26.1368 218.645 31.6302 217.061 32.9136C215.476 34.1998 212.976 35.9128 212.976 35.9128L222.057 26.134L222.055 26.1368Z" fill="#303D66"/>
<path d="M247.583 46.2076C247.583 46.2076 245.515 51.196 244.185 53.1016C242.851 55.0071 242.801 57.7999 242.801 57.7999L242.117 51.2156L242.374 50.5599C242.374 50.5599 243.127 50.9003 243.947 50.5962C244.768 50.2921 246.082 49.3575 247.585 46.2048L247.583 46.2076Z" fill="#303D66"/>
<path d="M248.325 27.1551C248.325 27.1551 251.765 33.0614 251.483 36.1331C251.483 36.1331 253.115 30.3802 250.741 26.1367L248.322 27.1551H248.325Z" fill="#589CA6"/>
<path d="M224.39 75.4965C224.39 75.4965 230.162 81.6511 232.576 81.9636C234.989 82.2761 244.81 80.9788 246.406 77.9879L251.28 72.5113L255.417 72.0175C255.417 72.0175 250.409 91.7368 251.885 94.1445C251.885 94.1445 245.376 98.6308 236.021 97.3167C226.667 96.0026 217.594 93.8544 217.594 93.8544L222.632 76.5762L224.387 75.4965H224.39Z" fill="#FCECBE"/>
<path d="M219.245 76.593C219.245 76.593 213.152 79.1151 212.496 83.0462C211.841 86.9744 196.175 113.49 194.3 114.801C187.928 119.26 157.986 126.134 157.986 126.134L161.334 136.951C161.334 136.951 199.375 132.944 201.769 130.771C204.601 128.196 219.798 105.79 219.798 105.79L219.951 81.0235L219.245 76.5958V76.593Z" fill="#FCECBE"/>
<path d="M217.222 85.9561C217.222 85.9561 208.83 98.0282 210.27 106.303C211.709 114.575 207.898 118.311 207.179 120.468C206.459 122.627 201.512 130.512 201.512 130.512C201.512 130.512 214.982 114.824 215.42 111.71C215.858 108.596 214.095 107.467 214.095 107.467L213.342 103.374L214.971 93.8544L217.222 85.9561Z" fill="url(#paint7_linear_3380_136)"/>
<path d="M227.063 73.3482L225.428 71.7022L219.951 73.538C219.951 73.538 212.87 101.131 212.996 104.043C213.121 106.953 219.842 124.753 219.89 126.048C219.937 127.342 218.693 138.343 218.185 139.735C217.68 141.127 213.88 159.608 213.88 159.608L207.5 195.701C207.5 195.701 222.833 199.214 231.061 198.96C239.288 198.706 255.763 201.134 260.637 196.703L264.897 192.192C264.897 192.192 265.851 176.557 265.902 169.353C265.929 165.442 263.622 154.229 262.674 151.062C261.725 147.898 261.786 139.227 261.786 139.227L261.831 123.174L257.707 104.97C257.707 104.97 258.193 103.728 258.078 98.0533C257.964 92.3813 261.831 73.9397 261.831 73.9397L254.917 70.8596L250.468 94.6077C250.468 94.6077 228.011 99.0046 220.593 92.6798L223.48 76.1577L227.057 73.3455L227.063 73.3482Z" fill="#52A96F"/>
<path d="M255.127 105.388C254.443 108.158 220.049 113.083 212.996 104.041L219.89 126.045C219.89 126.045 251.162 128.799 258.084 125.063L261.836 123.171L257.713 104.967L255.127 105.385V105.388Z" fill="url(#paint8_linear_3380_136)"/>
<path d="M215.97 148.855C215.97 148.855 213.57 175.592 215.97 180.387C218.369 185.181 223.296 198.709 223.296 198.709L207.756 195.199L215.97 148.855Z" fill="url(#paint9_linear_3380_136)"/>
<path d="M223.486 76.1605C223.486 76.1605 221.681 90.2525 223.051 91.8791C224.42 93.5056 230.84 95.9329 230.84 95.9329C230.84 95.9329 221.491 95.1907 220.595 92.6798L223.483 76.1577L223.486 76.1605Z" fill="url(#paint10_linear_3380_136)"/>
<path d="M253.849 76.593C253.849 76.593 249.452 93.3355 247.583 93.9688C245.714 94.6021 238.128 96.0278 238.128 96.0278C238.128 96.0278 250.367 95.1825 250.473 94.6133C250.579 94.0442 253.849 76.5958 253.849 76.5958V76.593Z" fill="url(#paint11_linear_3380_136)"/>
<path d="M65.0393 83.741L76.5339 118.869L87.1301 119.371L77.6024 117.098L65.0393 83.741Z" fill="#383C44"/>
<path d="M141.841 124.979C140.407 123.545 138.814 123.69 136.688 124.689C134.562 125.688 132.835 126.26 131.064 126.26C129.292 126.26 125.104 123.88 125.104 123.88L123.472 134.49C123.472 134.49 134.819 139.339 136.621 140.564C138.423 141.789 140.937 144.911 142.321 145.201C143.705 145.491 152.82 141.627 152.658 137.665C152.239 136.41 149.067 133.43 147.731 132.093C146.394 130.757 145.186 129.711 144.383 129.228C143.577 128.746 141.838 124.976 141.838 124.976L141.841 124.979Z" fill="url(#paint12_linear_3380_136)"/>
<path d="M142.229 123.788C139.992 123.936 136.85 126.525 136.85 128.104C136.85 129.683 136.722 132.741 138.46 132.741C140.198 132.741 140.296 129.778 141.068 129.005C141.841 128.232 145.32 129.424 146.704 131.29C148.088 133.159 152.661 137.665 152.661 137.665C152.661 137.665 157.889 136.351 160.64 135.09C161.159 136.725 158.534 127.058 158.534 127.058C152.384 129.778 145.158 123.59 142.226 123.782L142.229 123.788Z" fill="url(#paint13_linear_3380_136)"/>
<path d="M130.441 136.175C129.164 136.524 128.089 138.814 129.635 139.236C131.181 139.654 132.824 137.947 132.082 136.884C131.34 135.821 131.147 135.983 130.439 136.175H130.441Z" fill="url(#paint14_linear_3380_136)"/>
<path d="M132.735 138.15C131.237 138.413 131.117 141.097 132.735 142.185C134.353 143.273 138.541 145.814 139.883 145.22C141.227 144.626 142.321 144.118 141.621 143.008C140.92 141.897 135.486 137.671 132.732 138.153L132.735 138.15Z" fill="url(#paint15_linear_3380_136)"/>
<path d="M151.296 140.285C151.246 140.285 151.193 140.271 151.148 140.243C148.378 138.527 145.895 136.231 143.97 133.603C143.878 133.477 143.906 133.299 144.031 133.207C144.157 133.115 144.335 133.143 144.427 133.268C146.311 135.838 148.738 138.083 151.447 139.763C151.581 139.844 151.62 140.02 151.539 140.151C151.486 140.237 151.394 140.285 151.299 140.285H151.296Z" fill="#E07E58"/>
<path d="M148.942 142.224C148.894 142.224 148.844 142.21 148.799 142.185C146.33 140.731 144.118 138.784 142.402 136.557C142.307 136.435 142.329 136.256 142.452 136.161C142.575 136.066 142.754 136.089 142.848 136.212C144.522 138.382 146.679 140.279 149.087 141.697C149.221 141.775 149.265 141.95 149.187 142.084C149.134 142.174 149.039 142.224 148.944 142.224H148.942Z" fill="#E07E58"/>
<path d="M146.347 143.873C146.3 143.873 146.252 143.861 146.21 143.836C144.121 142.676 142.246 141.125 140.792 139.347C140.695 139.227 140.711 139.049 140.831 138.948C140.951 138.848 141.13 138.867 141.23 138.987C142.639 140.709 144.455 142.215 146.484 143.34C146.62 143.415 146.671 143.588 146.592 143.725C146.542 143.817 146.445 143.87 146.344 143.87L146.347 143.873Z" fill="#E07E58"/>
<path d="M139.467 144.456C139.439 144.456 139.408 144.453 139.38 144.442C139.233 144.394 139.149 144.235 139.196 144.088C139.383 143.507 139.481 142.902 139.489 142.294C139.492 142.07 139.484 141.811 139.394 141.593C139.316 141.398 139.168 141.25 139.012 141.208C138.834 141.161 138.602 141.242 138.418 141.415C138.239 141.582 138.108 141.811 137.972 142.051L137.932 142.121C137.771 142.402 137.573 142.723 137.271 142.941C137.213 142.983 137.054 143.083 136.872 143.05C136.769 143.033 136.68 142.977 136.621 142.891C136.521 142.748 136.551 142.584 136.563 142.531C136.627 142.196 136.766 141.895 136.9 141.604C136.976 141.443 137.045 141.292 137.101 141.136C137.165 140.966 137.349 140.382 137.062 140.028C136.903 139.83 136.599 139.735 136.309 139.794C136.033 139.847 135.759 140.025 135.539 140.296C135.313 140.572 135.156 140.915 135.036 141.211L135.011 141.272C134.9 141.554 134.771 141.875 134.504 141.931C134.378 141.956 134.253 141.917 134.158 141.819L134.124 141.786L134.105 141.741C134.049 141.621 134.063 141.493 134.124 141.055C134.183 140.648 134.261 140.09 134.211 139.741C134.121 139.113 133.826 138.594 133.402 138.312C133.27 138.226 133.234 138.05 133.321 137.922C133.407 137.791 133.583 137.754 133.711 137.841C134.272 138.209 134.657 138.873 134.771 139.66C134.802 139.886 134.794 140.162 134.771 140.435C134.864 140.263 134.972 140.092 135.103 139.933C135.408 139.562 135.801 139.314 136.203 139.236C136.699 139.138 137.21 139.308 137.503 139.671C137.829 140.073 137.877 140.678 137.634 141.331C137.57 141.507 137.489 141.677 137.414 141.842C137.383 141.909 137.352 141.973 137.324 142.04C137.366 141.973 137.405 141.906 137.444 141.836L137.483 141.766C137.634 141.501 137.793 141.225 138.033 140.999C138.365 140.687 138.786 140.558 139.16 140.656C139.489 140.742 139.774 141.013 139.922 141.376C140.047 141.685 140.061 142.015 140.058 142.294C140.05 142.96 139.944 143.619 139.74 144.255C139.701 144.375 139.59 144.45 139.473 144.45L139.467 144.456Z" fill="#E07E58"/>
<path d="M152.41 137.718C152.334 137.718 152.259 137.687 152.203 137.629L147.516 132.618C146.832 131.887 146.124 131.131 145.334 130.503C144.464 129.811 143.588 129.359 142.728 129.159C142.321 129.064 141.568 128.966 141.105 129.382C140.803 129.655 140.683 130.085 140.558 130.54C140.513 130.704 140.466 130.877 140.407 131.042C140.131 131.842 139.593 132.548 138.892 133.028C138.764 133.117 138.588 133.084 138.499 132.956C138.41 132.827 138.443 132.652 138.571 132.562C139.171 132.152 139.632 131.547 139.869 130.858C139.919 130.71 139.964 130.554 140.008 130.389C140.151 129.876 140.298 129.345 140.722 128.963C141.208 128.525 141.964 128.4 142.854 128.609C143.797 128.829 144.748 129.318 145.683 130.06C146.503 130.713 147.226 131.485 147.926 132.23L152.613 137.241C152.719 137.355 152.714 137.534 152.599 137.64C152.543 137.69 152.477 137.715 152.407 137.715L152.41 137.718Z" fill="#E07E58"/>
<path d="M262.149 74.8884C262.149 74.8884 256.689 89.2316 256.689 96.0195C256.689 102.807 262.149 124.123 262.149 124.123L245.161 138.173L244.662 139.364C244.662 139.364 249.332 141.984 248.783 147.343L248.638 148.772H247.042C247.042 148.772 248.947 150.797 249.661 150.557C250.376 150.318 272.645 134.125 274.548 131.505C276.453 128.885 276.216 122.574 274.071 114.835C271.928 107.096 266.211 83.2778 265.377 80.3009C264.543 77.3241 262.144 74.8884 262.144 74.8884H262.149Z" fill="#FCECBE"/>
<path d="M244.659 139.367C244.659 139.367 231.421 145.51 230.701 146.838C229.981 148.166 228.486 154.257 229.094 155.088C229.702 155.92 232.029 157.747 232.029 157.747L232.637 157.195C232.637 157.195 232.969 158.247 233.413 158.523C233.856 158.799 234.021 158.523 234.021 158.523C234.021 158.523 234.852 160.074 235.461 160.183C236.069 160.294 236.431 160.294 236.802 159.795C237.176 159.296 236.32 157.747 236.802 157.248C237.285 156.748 239.944 153.705 239.944 153.705C239.944 153.705 243.443 154.037 244.656 152.764C245.87 151.492 247.039 148.775 247.039 148.775H248.635C248.635 148.775 250.2 142.693 244.659 139.367Z" fill="#F5AA89"/>
<path d="M239.255 148.814C239.255 148.814 233.708 155.097 233.644 155.867C233.58 156.637 234.024 158.523 234.024 158.523C234.024 158.523 233.837 156.508 234.384 155.803C234.928 155.097 239.255 148.814 239.255 148.814Z" fill="#B65734"/>
<path d="M235.6 147.821C235.6 147.821 231.689 154.648 231.786 155.482C231.884 156.316 232.64 157.192 232.64 157.192C232.64 157.192 231.82 156.059 232.235 155.256C232.651 154.452 235.6 147.818 235.6 147.818V147.821Z" fill="#B65734"/>
<path d="M231.435 148.334C231.435 148.334 229.641 152.63 229.897 153.816C230.154 155.002 232.034 157.747 232.034 157.747C232.034 157.747 229.289 155.13 229.417 154.039C229.546 152.948 231.437 148.334 231.437 148.334H231.435Z" fill="#B65734"/>
<path d="M244.659 139.367C244.659 139.367 247.443 142.369 247.706 144.523C247.968 146.677 247.039 148.775 247.039 148.775H248.635C248.635 148.775 249.226 145.728 248.411 143.968C247.597 142.207 246.417 139.875 244.659 139.367Z" fill="#B65734"/>
<path d="M258.187 87.1976C258.187 87.1976 256.416 97.2805 258.793 101.903C261.17 106.526 264.791 116.023 264.417 119.145C264.043 122.27 262.146 124.125 262.146 124.125L257.554 103.357C257.554 103.357 255.208 93.1095 258.187 87.1976Z" fill="url(#paint16_linear_3380_136)"/>
<path d="M192.833 82.159C192.833 64.8781 178.987 50.8698 161.907 50.8698C144.826 50.8698 130.98 64.8781 130.98 82.159C130.98 99.44 144.826 113.448 161.907 113.448C162.649 113.448 163.385 113.42 164.116 113.367V117.622L169.824 112.413C183.068 108.876 192.833 96.6724 192.833 82.1618V82.159Z" fill="white"/>
<path d="M177.761 80.7873C177.844 71.7968 171.147 64.446 162.802 64.3688C154.457 64.2916 147.625 71.5173 147.542 80.5077C147.459 89.4982 154.156 96.849 162.501 96.9261C170.846 97.0033 177.678 89.7777 177.761 80.7873Z" fill="#B27E09"/>
<path d="M173.752 80.7896C173.822 73.2737 168.222 67.1285 161.246 67.0639C154.269 66.9994 148.557 73.04 148.487 80.5559C148.418 88.0718 154.017 94.217 160.994 94.2815C167.971 94.3461 173.683 88.3055 173.752 80.7896Z" fill="#E9B522"/>
<path d="M155.886 95.9497C148.071 92.8501 144.059 83.4759 146.947 75.053C149.834 66.6274 158.542 62.2946 166.356 65.3942C174.171 68.4939 178.183 77.8681 175.295 86.2909C172.408 94.7166 163.7 99.0494 155.886 95.9497ZM165.497 67.8968C158.963 65.305 151.684 68.9291 149.271 75.9737C146.857 83.0183 150.211 90.8553 156.745 93.4472C163.279 96.039 170.558 92.4149 172.971 85.3703C175.385 78.3256 172.031 70.4887 165.497 67.8968Z" fill="#F7DE61"/>
<path d="M147.812 75.3963C150.646 67.1268 159.086 62.8024 166.786 65.5728C166.644 65.5115 166.501 65.4501 166.356 65.3943C158.542 62.2946 149.834 66.6302 146.947 75.0531C144.059 83.4787 148.071 92.853 155.886 95.9498C156.031 96.0084 156.176 96.0614 156.321 96.1144C148.788 92.8474 144.977 83.6629 147.812 75.3963Z" fill="#FFF2BD"/>
<path d="M165.497 67.8996C165.372 67.8494 165.243 67.802 165.118 67.7573C171.403 70.4943 174.581 78.1638 172.215 85.0718C169.849 91.9797 162.802 95.5954 156.368 93.2909C156.494 93.344 156.617 93.397 156.745 93.4472C163.279 96.039 170.558 92.4149 172.971 85.3703C175.385 78.3257 172.031 70.4887 165.497 67.8968V67.8996Z" fill="#CE9811"/>
<path d="M165.12 86.8044C164.459 87.4767 163.569 87.8813 162.45 88.018L162.462 90.1021L160.659 90.0407L160.648 87.9929C159.859 87.9036 159.125 87.7139 158.447 87.4293C157.769 87.1419 157.175 86.7653 156.664 86.2966L157.431 84.5584C158.461 85.4456 159.571 85.9534 160.76 86.0818L160.74 82.1758C159.951 81.9359 159.284 81.6764 158.74 81.403C158.196 81.1268 157.741 80.7306 157.373 80.2089C157.004 79.69 156.818 79.0232 156.815 78.2085C156.812 77.5334 156.965 76.9223 157.281 76.3755C157.596 75.8287 158.037 75.3823 158.609 75.0336C159.178 74.6848 159.833 74.4728 160.576 74.3974L160.564 72.3134L162.367 72.3747L162.378 74.4393C163.061 74.5509 163.706 74.749 164.306 75.0336C164.908 75.3181 165.416 75.6669 165.832 76.0826L165.065 77.8207C164.2 77.0395 163.268 76.5569 162.266 76.3699L162.289 80.4461C163.078 80.686 163.734 80.9371 164.253 81.1993C164.772 81.4616 165.21 81.8438 165.567 82.3432C165.924 82.8426 166.102 83.4899 166.108 84.2767C166.114 85.2922 165.784 86.1348 165.123 86.8044H165.12ZM159.524 79.2296C159.808 79.5086 160.21 79.7514 160.729 79.9578L160.709 76.3337C160.205 76.4285 159.808 76.635 159.521 76.9502C159.234 77.2655 159.091 77.6673 159.094 78.1555C159.094 78.5935 159.239 78.9534 159.524 79.2324V79.2296ZM163.444 85.4512C163.7 85.1527 163.829 84.7593 163.826 84.2711C163.826 83.8833 163.692 83.5652 163.432 83.3197C163.173 83.0742 162.794 82.8594 162.297 82.678L162.314 86.0399C162.808 85.945 163.184 85.747 163.441 85.4512H163.444Z" fill="#CE9811"/>
<path d="M159.183 78.7832C159.468 79.0622 159.87 79.3049 160.389 79.5114L160.369 75.8873C159.864 75.9821 159.468 76.1886 159.181 76.5038C158.893 76.8191 158.751 77.2209 158.754 77.7091C158.754 78.1471 158.899 78.507 159.183 78.786V78.7832ZM163.103 85.0048C163.36 84.7063 163.488 84.3129 163.486 83.8247C163.486 83.4369 163.352 83.1188 163.092 82.8733C162.833 82.6278 162.453 82.413 161.957 82.2316L161.973 85.5935C162.467 85.4986 162.844 85.3005 163.101 85.0048H163.103ZM164.78 86.3579C164.119 87.0303 163.229 87.4349 162.11 87.5716L162.121 89.6557L160.319 89.5943L160.308 87.5465C159.518 87.4572 158.784 87.2675 158.107 86.9829C157.429 86.6955 156.834 86.3189 156.324 85.8502L157.091 84.112C158.12 84.9992 159.231 85.507 160.419 85.6353L160.4 81.7294C159.61 81.4895 158.943 81.23 158.399 80.9566C157.855 80.6804 157.401 80.2842 157.032 79.7625C156.664 79.2436 156.477 78.5768 156.474 77.7621C156.472 77.0869 156.625 76.4759 156.94 75.9291C157.256 75.3823 157.696 74.9359 158.268 74.5871C158.837 74.2384 159.493 74.0264 160.235 73.951L160.224 71.8669L162.026 71.9283L162.038 73.9929C162.721 74.1045 163.366 74.3026 163.965 74.5871C164.568 74.8717 165.076 75.2205 165.492 75.6362L164.724 77.3743C163.859 76.5931 162.928 76.1105 161.926 75.9235L161.948 79.9996C162.738 80.2396 163.393 80.4907 163.912 80.7529C164.431 81.0152 164.869 81.3974 165.226 81.8968C165.584 82.3962 165.762 83.0435 165.768 83.8302C165.773 84.8458 165.444 85.6883 164.783 86.3579H164.78Z" fill="#F7DE61"/>
<path d="M93.9934 38.3457C90.1293 38.3457 86.9878 35.2042 86.9878 31.3402C86.9878 27.4761 90.1293 24.3346 93.9934 24.3346C97.8574 24.3346 100.999 27.4761 100.999 31.3402C100.999 35.2042 97.8574 38.3457 93.9934 38.3457ZM93.9934 24.8926C90.439 24.8926 87.5458 27.7858 87.5458 31.3402C87.5458 34.8946 90.439 37.7877 93.9934 37.7877C97.5477 37.7877 100.441 34.8946 100.441 31.3402C100.441 27.7858 97.5477 24.8926 93.9934 24.8926Z" fill="#383C41"/>
<path d="M110.016 37.7263C106.152 37.7263 103.01 34.5849 103.01 30.7208C103.01 26.8567 106.152 23.7152 110.016 23.7152C113.88 23.7152 117.022 26.8567 117.022 30.7208C117.022 34.5849 113.88 37.7263 110.016 37.7263ZM110.016 24.2732C106.462 24.2732 103.568 27.1664 103.568 30.7208C103.568 34.2752 106.462 37.1683 110.016 37.1683C113.57 37.1683 116.464 34.2752 116.464 30.7208C116.464 27.1664 113.57 24.2732 110.016 24.2732Z" fill="#383C41"/>
<path d="M100.991 30.3274L100.617 29.9117C100.661 29.8699 101.735 28.9241 103.448 29.5685L103.25 30.0903C101.867 29.5685 101.024 30.2939 100.991 30.3274Z" fill="#383C41"/>
<path d="M87.8392 28.228L80.9001 29.5957L81.008 30.1432L87.9471 28.7755L87.8392 28.228Z" fill="#383C41"/>
<path d="M191.711 167.897L223.316 179.127C223.316 179.127 213.78 199.387 203.055 202.367C192.328 205.346 174.319 209.621 179.218 185.811C181.377 175.321 193.371 163.076 193.371 163.076L191.714 167.894L191.711 167.897Z" fill="white"/>
<path d="M194.208 157.884C197.378 164.839 180.814 193.23 184.985 201.139C189.156 209.049 214.034 199.688 223.316 179.129C223.316 179.129 208.119 211.013 194.116 208.329C180.111 205.648 163.427 192.833 163.427 192.833L186.667 157.836L192.428 156.176" fill="#BCD9E2"/>
<path d="M82.0105 220.987C82.0105 220.987 105.334 148.535 132.79 141.864C132.79 141.864 181.402 147.915 193.882 156.902C193.882 156.902 156.142 184.048 148.155 249.444L82.0105 220.99V220.987Z" fill="white"/>
<path d="M105.092 182.087L148.916 197.747C150.211 198.21 150.814 199.694 150.211 200.927L149.884 201.597C149.363 202.662 148.118 203.156 147.005 202.741L103.507 186.411C102.263 185.945 101.671 184.522 102.215 183.311C102.709 182.215 103.959 181.682 105.092 182.087Z" fill="#BCD9E2"/>
<path d="M101.175 191.179L144.999 206.839C146.294 207.302 146.896 208.786 146.294 210.02L145.967 210.689C145.445 211.755 144.201 212.249 143.088 211.833L99.5899 195.503C98.3456 195.038 97.7541 193.615 98.2982 192.404C98.792 191.307 100.042 190.774 101.175 191.179Z" fill="#BCD9E2"/>
<path d="M96.8084 200.436L140.633 216.096C141.927 216.559 142.53 218.043 141.927 219.277L141.601 219.946C141.079 221.012 139.835 221.506 138.722 221.09L95.2237 204.761C93.9794 204.295 93.3879 202.872 93.9319 201.661C94.4258 200.564 95.6757 200.032 96.8084 200.436Z" fill="#BCD9E2"/>
<path d="M128.218 151.539C125.263 153.735 119.34 159.148 114.154 170.076C113.004 172.497 114.201 175.382 116.723 176.295L148.311 187.745C150.487 188.534 152.909 187.563 153.941 185.49C156.391 180.563 161.097 171.764 166.055 166.092C168.287 163.539 167.001 159.524 163.711 158.701L132.032 150.783C130.712 150.454 129.311 150.728 128.22 151.539H128.218Z" fill="#BCD9E2"/>
<path d="M184.722 165.369C184.722 165.369 191.047 158.38 193.371 161.564C194.953 163.729 192.967 168.346 192.967 168.346C192.967 168.346 196.993 158.4 193.885 156.905L191.714 155.56L184.722 165.372V165.369Z" fill="white"/>
<path d="M163.684 215.926C163.684 214.827 166.379 213.931 166.529 212.876C166.686 211.794 164.353 210.184 164.657 209.155C164.967 208.108 167.804 208.005 168.256 207.029C168.711 206.041 166.934 203.84 167.523 202.933C168.114 202.021 170.868 202.718 171.579 201.901C172.293 201.083 171.211 198.475 172.034 197.766C172.854 197.057 175.301 198.492 176.219 197.906C177.131 197.323 176.83 194.516 177.823 194.064C178.808 193.617 180.744 195.676 181.799 195.372C182.834 195.071 183.344 192.295 184.435 192.139C185.498 191.988 186.77 194.51 187.878 194.51C188.986 194.51 190.255 191.988 191.321 192.139C192.412 192.292 192.922 195.071 193.957 195.372C195.009 195.679 196.948 193.617 197.933 194.064C198.929 194.516 198.625 197.323 199.537 197.906C200.455 198.492 202.902 197.057 203.722 197.766C204.545 198.475 203.463 201.083 204.177 201.901C204.888 202.716 207.642 202.021 208.233 202.933C208.822 203.84 207.045 206.038 207.5 207.029C207.949 208.005 210.789 208.111 211.099 209.155C211.403 210.181 209.07 211.791 209.227 212.876C209.377 213.934 212.072 214.829 212.072 215.926C212.072 217.022 209.377 217.921 209.227 218.975C209.07 220.058 211.403 221.668 211.099 222.697C210.789 223.743 207.952 223.847 207.5 224.823C207.045 225.811 208.822 228.012 208.233 228.919C207.642 229.831 204.888 229.134 204.177 229.951C203.463 230.768 204.545 233.377 203.722 234.086C202.902 234.794 200.455 233.36 199.537 233.946C198.625 234.529 198.926 237.336 197.933 237.788C196.948 238.234 195.012 236.175 193.957 236.479C192.922 236.781 192.412 239.557 191.321 239.713C190.258 239.864 188.986 237.342 187.878 237.342C186.77 237.342 185.501 239.864 184.435 239.713C183.344 239.56 182.834 236.781 181.799 236.479C180.747 236.173 178.808 238.234 177.823 237.788C176.827 237.336 177.131 234.529 176.219 233.946C175.301 233.36 172.854 234.794 172.034 234.086C171.211 233.377 172.293 230.768 171.579 229.951C170.868 229.136 168.114 229.831 167.523 228.919C166.934 228.012 168.711 225.813 168.256 224.823C167.807 223.847 164.967 223.741 164.657 222.697C164.353 221.67 166.686 220.061 166.529 218.975C166.379 217.918 163.684 217.022 163.684 215.926Z" fill="#518EA6"/>
<path d="M207.271 215.926C207.271 226.567 198.589 235.19 187.875 235.19C181.015 235.19 174.986 231.653 171.54 226.313C170.446 224.625 169.615 222.753 169.096 220.758C168.901 220.022 168.753 219.268 168.65 218.498C168.538 217.658 168.479 216.796 168.479 215.926C168.479 205.285 177.162 196.661 187.875 196.661C189.764 196.661 191.586 196.929 193.31 197.428C193.804 197.571 194.289 197.733 194.769 197.914C196.373 198.517 197.877 199.328 199.244 200.313C204.107 203.812 207.271 209.501 207.271 215.923V215.926Z" fill="#5B9BB1"/>
<path d="M194.766 197.917C193.653 210.723 182.901 220.772 169.805 220.772C169.568 220.772 169.331 220.772 169.093 220.761C168.898 220.024 168.75 219.271 168.647 218.501C168.535 217.661 168.477 216.799 168.477 215.929C168.477 205.288 177.159 196.664 187.873 196.664C189.761 196.664 191.583 196.932 193.307 197.431C193.801 197.574 194.287 197.735 194.766 197.917Z" fill="#437C8E"/>
<path d="M185.256 224.7L200.645 212.871L199.242 210.896L185.256 224.7Z" fill="#303D66"/>
<path d="M185.256 224.7L176.426 215.92L179.308 213.061L185.267 218.986L196.371 208.025L199.242 210.896L185.256 224.7Z" fill="white"/>
<path d="M25.3188 112.458C17.6186 116.079 17.0718 121.422 16.829 122.379V122.393C16.829 122.393 16.8262 122.384 16.8262 122.379C16.5779 121.425 16.0367 116.082 8.33643 112.458C15.6405 109.676 16.7398 103.053 16.8234 102.436C16.8262 102.428 16.8262 102.417 16.8262 102.408C16.829 102.417 16.829 102.428 16.829 102.436C16.8318 102.436 16.829 102.442 16.829 102.442C16.9239 103.081 18.0287 109.682 25.3188 112.458Z" fill="white"/>
<path d="M36.3865 107.475C31.5961 109.726 31.2586 113.052 31.1051 113.646V113.655C31.1051 113.655 31.1051 113.649 31.1051 113.646C30.9517 113.052 30.6141 109.729 25.8237 107.475C30.3658 105.745 31.0493 101.624 31.1023 101.242V101.245C31.1609 101.641 31.85 105.748 36.3837 107.475H36.3865Z" fill="white"/>
<path d="M27.0458 98.6532C24.133 100.023 23.9266 102.046 23.8345 102.406V102.411C23.8345 102.411 23.8345 102.408 23.8345 102.406C23.7397 102.046 23.536 100.023 20.6233 98.6532C23.3853 97.6014 23.8038 95.096 23.8345 94.8616C23.8345 94.8588 23.8345 94.856 23.8345 94.8505C23.8345 94.8533 23.8345 94.8588 23.8345 94.8616C23.8708 95.1044 24.2893 97.6014 27.0458 98.6504V98.6532Z" fill="white"/>
<defs>
<linearGradient id="paint0_linear_3380_136" x1="159.233" y1="24.6023" x2="252.602" y2="24.6023" gradientUnits="userSpaceOnUse">
<stop stop-color="white" stop-opacity="0"/>
<stop offset="0.12" stop-color="white" stop-opacity="0.02"/>
<stop offset="0.25" stop-color="white" stop-opacity="0.06"/>
<stop offset="0.37" stop-color="white" stop-opacity="0.15"/>
<stop offset="0.5" stop-color="white" stop-opacity="0.26"/>
<stop offset="0.63" stop-color="white" stop-opacity="0.41"/>
<stop offset="0.76" stop-color="white" stop-opacity="0.59"/>
<stop offset="0.89" stop-color="white" stop-opacity="0.79"/>
<stop offset="1" stop-color="white"/>
</linearGradient>
<linearGradient id="paint1_linear_3380_136" x1="193.173" y1="41.1383" x2="248.838" y2="41.1383" gradientUnits="userSpaceOnUse">
<stop stop-color="white" stop-opacity="0"/>
<stop offset="0.12" stop-color="white" stop-opacity="0.02"/>
<stop offset="0.25" stop-color="white" stop-opacity="0.06"/>
<stop offset="0.37" stop-color="white" stop-opacity="0.15"/>
<stop offset="0.5" stop-color="white" stop-opacity="0.26"/>
<stop offset="0.63" stop-color="white" stop-opacity="0.41"/>
<stop offset="0.76" stop-color="white" stop-opacity="0.59"/>
<stop offset="0.89" stop-color="white" stop-opacity="0.79"/>
<stop offset="1" stop-color="white"/>
</linearGradient>
<linearGradient id="paint2_linear_3380_136" x1="179.625" y1="70.6197" x2="233.717" y2="70.6197" gradientUnits="userSpaceOnUse">
<stop stop-color="white"/>
<stop offset="0.86" stop-color="white" stop-opacity="0"/>
</linearGradient>
<linearGradient id="paint3_linear_3380_136" x1="197.082" y1="59.4013" x2="233.717" y2="59.4013" gradientUnits="userSpaceOnUse">
<stop stop-color="white"/>
<stop offset="0.15" stop-color="white" stop-opacity="0.88"/>
<stop offset="0.48" stop-color="white" stop-opacity="0.58"/>
<stop offset="0.96" stop-color="white" stop-opacity="0.1"/>
<stop offset="0.99" stop-color="white" stop-opacity="0.07"/>
<stop offset="1" stop-color="white" stop-opacity="0"/>
</linearGradient>
<linearGradient id="paint4_linear_3380_136" x1="173.616" y1="92.3339" x2="222.978" y2="92.3339" gradientUnits="userSpaceOnUse">
<stop stop-color="white" stop-opacity="0"/>
<stop offset="0.12" stop-color="white" stop-opacity="0.02"/>
<stop offset="0.25" stop-color="white" stop-opacity="0.06"/>
<stop offset="0.37" stop-color="white" stop-opacity="0.15"/>
<stop offset="0.5" stop-color="white" stop-opacity="0.26"/>
<stop offset="0.63" stop-color="white" stop-opacity="0.41"/>
<stop offset="0.76" stop-color="white" stop-opacity="0.59"/>
<stop offset="0.89" stop-color="white" stop-opacity="0.79"/>
<stop offset="1" stop-color="white"/>
</linearGradient>
<linearGradient id="paint5_linear_3380_136" x1="172.636" y1="100.715" x2="202.522" y2="100.715" gradientUnits="userSpaceOnUse">
<stop stop-color="white" stop-opacity="0"/>
<stop offset="0.12" stop-color="white" stop-opacity="0.02"/>
<stop offset="0.25" stop-color="white" stop-opacity="0.06"/>
<stop offset="0.37" stop-color="white" stop-opacity="0.15"/>
<stop offset="0.5" stop-color="white" stop-opacity="0.26"/>
<stop offset="0.63" stop-color="white" stop-opacity="0.41"/>
<stop offset="0.76" stop-color="white" stop-opacity="0.59"/>
<stop offset="0.89" stop-color="white" stop-opacity="0.79"/>
<stop offset="1" stop-color="white"/>
</linearGradient>
<linearGradient id="paint6_linear_3380_136" x1="135.569" y1="55.8218" x2="154.887" y2="55.8218" gradientUnits="userSpaceOnUse">
<stop stop-color="white" stop-opacity="0"/>
<stop offset="0.12" stop-color="white" stop-opacity="0.02"/>
<stop offset="0.25" stop-color="white" stop-opacity="0.06"/>
<stop offset="0.37" stop-color="white" stop-opacity="0.15"/>
<stop offset="0.5" stop-color="white" stop-opacity="0.26"/>
<stop offset="0.63" stop-color="white" stop-opacity="0.41"/>
<stop offset="0.76" stop-color="white" stop-opacity="0.59"/>
<stop offset="0.89" stop-color="white" stop-opacity="0.79"/>
<stop offset="1" stop-color="white"/>
</linearGradient>
<linearGradient id="paint7_linear_3380_136" x1="209.369" y1="130.512" x2="209.369" y2="85.9561" gradientUnits="userSpaceOnUse">
<stop stop-color="#999999" stop-opacity="0"/>
<stop offset="0.13" stop-color="#A7A49B" stop-opacity="0.22"/>
<stop offset="0.28" stop-color="#B6B09E" stop-opacity="0.45"/>
<stop offset="0.44" stop-color="#C3BAA0" stop-opacity="0.65"/>
<stop offset="0.58" stop-color="#CDC1A2" stop-opacity="0.8"/>
<stop offset="0.72" stop-color="#D5C7A3" stop-opacity="0.91"/>
<stop offset="0.86" stop-color="#D9CAA4" stop-opacity="0.98"/>
<stop offset="0.96" stop-color="#DBCCA5"/>
</linearGradient>
<linearGradient id="paint8_linear_3380_136" x1="237.416" y1="127.024" x2="237.416" y2="104.041" gradientUnits="userSpaceOnUse">
<stop stop-color="#73A872" stop-opacity="0"/>
<stop offset="0.11" stop-color="#62A371" stop-opacity="0.18"/>
<stop offset="0.31" stop-color="#479D71" stop-opacity="0.47"/>
<stop offset="0.5" stop-color="#329771" stop-opacity="0.7"/>
<stop offset="0.69" stop-color="#239471" stop-opacity="0.87"/>
<stop offset="0.86" stop-color="#1A9171" stop-opacity="0.97"/>
<stop offset="1" stop-color="#3B6942"/>
</linearGradient>
<linearGradient id="paint9_linear_3380_136" x1="215.523" y1="198.709" x2="215.523" y2="148.855" gradientUnits="userSpaceOnUse">
<stop stop-color="#73A872" stop-opacity="0"/>
<stop offset="0.11" stop-color="#62A371" stop-opacity="0.18"/>
<stop offset="0.31" stop-color="#479D71" stop-opacity="0.47"/>
<stop offset="0.5" stop-color="#329771" stop-opacity="0.7"/>
<stop offset="0.69" stop-color="#239471" stop-opacity="0.87"/>
<stop offset="0.86" stop-color="#1A9171" stop-opacity="0.97"/>
<stop offset="1" stop-color="#040504"/>
</linearGradient>
<linearGradient id="paint10_linear_3380_136" x1="225.721" y1="95.9329" x2="225.721" y2="76.1605" gradientUnits="userSpaceOnUse">
<stop stop-color="#999999" stop-opacity="0"/>
<stop offset="0.13" stop-color="#A7A49B" stop-opacity="0.22"/>
<stop offset="0.28" stop-color="#B6B09E" stop-opacity="0.45"/>
<stop offset="0.44" stop-color="#C3BAA0" stop-opacity="0.65"/>
<stop offset="0.58" stop-color="#CDC1A2" stop-opacity="0.8"/>
<stop offset="0.72" stop-color="#D5C7A3" stop-opacity="0.91"/>
<stop offset="0.86" stop-color="#D9CAA4" stop-opacity="0.98"/>
<stop offset="0.96" stop-color="#DBCCA5"/>
</linearGradient>
<linearGradient id="paint11_linear_3380_136" x1="245.99" y1="96.025" x2="245.99" y2="76.593" gradientUnits="userSpaceOnUse">
<stop stop-color="#999999" stop-opacity="0"/>
<stop offset="0.13" stop-color="#A7A49B" stop-opacity="0.22"/>
<stop offset="0.28" stop-color="#B6B09E" stop-opacity="0.45"/>
<stop offset="0.44" stop-color="#C3BAA0" stop-opacity="0.65"/>
<stop offset="0.58" stop-color="#CDC1A2" stop-opacity="0.8"/>
<stop offset="0.72" stop-color="#D5C7A3" stop-opacity="0.91"/>
<stop offset="0.86" stop-color="#D9CAA4" stop-opacity="0.98"/>
<stop offset="0.96" stop-color="#DBCCA5"/>
</linearGradient>
<linearGradient id="paint12_linear_3380_136" x1="130.38" y1="119.101" x2="137.991" y2="135.899" gradientUnits="userSpaceOnUse">
<stop stop-color="#FFC085"/>
<stop offset="1" stop-color="#FA976E"/>
</linearGradient>
<linearGradient id="paint13_linear_3380_136" x1="141.557" y1="121.994" x2="157.225" y2="140.603" gradientUnits="userSpaceOnUse">
<stop stop-color="#FFC085"/>
<stop offset="1" stop-color="#FA976E"/>
</linearGradient>
<linearGradient id="paint14_linear_3380_136" x1="132.467" y1="137.526" x2="129.3" y2="137.771" gradientUnits="userSpaceOnUse">
<stop stop-color="#FFC085"/>
<stop offset="1" stop-color="#FA976E"/>
</linearGradient>
<linearGradient id="paint15_linear_3380_136" x1="142.212" y1="141.25" x2="133.081" y2="141.959" gradientUnits="userSpaceOnUse">
<stop stop-color="#FFC085"/>
<stop offset="1" stop-color="#FA976E"/>
</linearGradient>
<linearGradient id="paint16_linear_3380_136" x1="260.562" y1="124.125" x2="260.562" y2="87.1976" gradientUnits="userSpaceOnUse">
<stop stop-color="#999999" stop-opacity="0"/>
<stop offset="0.13" stop-color="#A7A49B" stop-opacity="0.22"/>
<stop offset="0.28" stop-color="#B6B09E" stop-opacity="0.45"/>
<stop offset="0.44" stop-color="#C3BAA0" stop-opacity="0.65"/>
<stop offset="0.58" stop-color="#CDC1A2" stop-opacity="0.8"/>
<stop offset="0.72" stop-color="#D5C7A3" stop-opacity="0.91"/>
<stop offset="0.86" stop-color="#D9CAA4" stop-opacity="0.98"/>
<stop offset="0.96" stop-color="#DBCCA5"/>
</linearGradient>
</defs>
</svg>
