<svg width="422" height="236" viewBox="0 0 422 236" fill="none" xmlns="http://www.w3.org/2000/svg">
<path d="M53.0702 138.642L56.0471 158.672L34.8479 165.064L22.421 158.151L20.0142 141.667L31.0624 143.753L53.0702 136.972V138.642Z" fill="#F9A450"/>
<path d="M42.0072 134.156L53.0702 136.972L31.0624 143.753L20.0142 141.667L42.0072 134.156Z" fill="#935C2F"/>
<path d="M57.299 141.876L53.0701 136.972L31.0623 143.753L35.8928 151.579L57.299 141.876Z" fill="#CF781D"/>
<path d="M27.3824 151.579L31.0623 143.753L20.0141 141.667L13.1799 147.919L27.3824 151.579Z" fill="#CF781D"/>
<path d="M15.5552 138.954L20.0142 141.667L42.0093 134.156C42.0093 134.156 38.8699 131.34 35.0063 131.025L15.5573 138.954H15.5552Z" fill="#CF781D"/>
<path d="M53.0701 136.972L56.047 130.608L43.6729 129.148L42.0071 134.156L53.0701 136.972Z" fill="#CF781D"/>
<path d="M35.213 162.638L31.0623 143.753L33.1376 163.264L34.8478 165.064L35.213 162.638Z" fill="#FFBC7C"/>
<path d="M38.0295 153.456L39.233 160.237L51.1384 156.274L50.0258 150.229L38.0295 153.456Z" fill="#FFBC7C"/>
<path d="M23.4365 174.102L24.6969 190.091H46.6626L44.7265 174.102H23.4365Z" fill="#F9A450"/>
<path d="M55.5954 165.623L44.7266 174.102L46.6626 190.091L56.6489 182.096L55.5954 165.623Z" fill="#F9A450"/>
<path d="M34.3792 167.333L23.4365 174.102H44.7265L55.5953 165.623L34.3792 167.333Z" fill="#F9A450"/>
<path d="M31.1785 170.31L51.1785 169.067L49.8315 170.12L31.1785 170.31Z" fill="#D38946"/>
<path d="M25.4465 173.729L44.7266 174.102L45.9174 188.754V174.102L54.924 166.888L45.322 172.763L25.4465 173.729Z" fill="#D38946"/>
<path d="M25.4465 178.192L25.968 184.216H34.0816L33.634 177.821L25.4465 178.192Z" fill="#EBF0FF"/>
<path d="M33.0028 181.316H26.3396V181.763H33.0028V181.316Z" fill="#C8CACD"/>
<path d="M33.0028 182.468H26.5635V182.915H33.0028V182.468Z" fill="#C8CACD"/>
<path d="M36.0915 167.816L33.4124 169.268L41.414 168.858L43.6837 167.186L36.0915 167.816Z" fill="#C8CACD"/>
<path d="M34.7381 97.4534L29.9392 122.221L50.5008 127.319L51.8119 98.4722L34.7381 97.4534Z" fill="#F1F3F7"/>
<path d="M57.4299 98.7275L51.8118 98.4723L50.5007 127.319L53.9653 125.558L57.4299 125.037V98.7275Z" fill="#C8CACD"/>
<path d="M38.1689 97.658C38.1689 97.658 40.6307 91.4081 42.4316 90.3282C44.3993 89.1491 47.3023 88.9803 49.1538 90.5897C50.7415 91.9692 49.0694 98.3077 49.0694 98.3077L51.8119 98.4722C51.8119 98.4722 52.9858 91.5051 50.4987 89.7776C48.0116 88.048 39.8199 85.8691 37.1914 97.599L38.1668 97.658H38.1689Z" fill="#0E2457"/>
<path d="M54.5968 98.6979C54.5968 98.6979 54.7319 91.2689 49.838 89.379L47.4312 88.5542C47.4312 88.5542 51.5481 88.5542 54.4342 91.4418C56.1063 93.1145 56.8178 98.6979 56.8178 98.6979H54.5989H54.5968Z" fill="#0E2457"/>
<path style="mix-blend-mode:multiply" opacity="0.2" d="M54.5966 98.6979L53.9653 125.558L57.4299 125.037V98.7274L54.5966 98.6979Z" fill="url(#paint0_linear_3316_92045)"/>
<path d="M139.689 154.264L135.635 175.182L153.001 179.489L154.109 155.127L139.689 154.264Z" fill="#F1F3F7"/>
<path d="M158.853 155.34L154.109 155.127L153.001 179.489L155.927 178.002L158.853 177.561V155.34Z" fill="#C8CACD"/>
<path d="M142.586 154.439C142.586 154.439 144.663 149.161 146.185 148.25C147.847 147.255 150.298 147.113 151.863 148.472C153.203 149.636 151.793 154.989 151.793 154.989L154.109 155.129C154.109 155.129 155.101 149.246 153 147.786C150.9 146.326 143.981 144.485 141.762 154.392L142.586 154.441V154.439Z" fill="#0E2457"/>
<path d="M156.461 155.316C156.461 155.316 156.575 149.041 152.441 147.447L150.408 146.75C150.408 146.75 153.885 146.75 156.322 149.189C157.734 150.602 158.334 155.316 158.334 155.316H156.459H156.461Z" fill="#0E2457"/>
<path style="mix-blend-mode:multiply" opacity="0.2" d="M156.461 155.316L155.927 178.002L158.853 177.561V155.34L156.461 155.316Z" fill="url(#paint1_linear_3316_92045)"/>
<path d="M13.7437 109.213L14.7254 130.351L32.4938 130.452L27.8659 106.678L13.7437 109.213Z" fill="#F1F3F7"/>
<path d="M32.4939 105.777L27.866 106.678L32.4939 130.452L34.9704 128.334L37.6918 127.227L32.4939 105.777Z" fill="#C8CACD"/>
<path d="M16.5813 108.705C16.5813 108.705 17.3519 103.126 18.6081 101.89C19.9783 100.54 22.3133 99.8309 24.1396 100.778C25.7061 101.59 25.5964 107.087 25.5964 107.087L27.866 106.68C27.866 106.68 27.4458 100.77 25.077 99.8498C22.7081 98.9302 15.5995 98.7699 15.7726 108.85L16.5791 108.705H16.5813Z" fill="#0E2457"/>
<path d="M30.1798 106.313C30.1798 106.313 28.8223 100.229 24.4583 99.6557L22.3323 99.4574C22.3323 99.4574 25.6892 98.6454 28.6112 100.43C30.3044 101.463 31.9871 105.876 31.9871 105.876L30.1777 106.315L30.1798 106.313Z" fill="#0E2457"/>
<path style="mix-blend-mode:multiply" opacity="0.2" d="M30.1799 106.313L34.9704 128.334L37.6918 127.227L32.4939 105.777L30.1799 106.313Z" fill="url(#paint2_linear_3316_92045)"/>
<path d="M126.13 152.06L119.676 164.437L129.774 170.379L135.023 155.289L126.13 152.06Z" fill="#F1F3F7"/>
<path d="M137.962 156.308L135.023 155.289L129.774 170.379L131.89 169.991L133.809 170.261L137.962 156.308Z" fill="#C8CACD"/>
<path d="M127.917 152.707C127.917 152.707 130.207 149.782 131.333 149.493C132.561 149.176 134.128 149.545 134.856 150.691C135.481 151.671 133.594 154.77 133.594 154.77L135.023 155.289C135.023 155.289 136.746 151.779 135.699 150.471C134.654 149.163 130.653 146.717 127.408 152.524L127.917 152.709V152.707Z" fill="#0E2457"/>
<path d="M136.463 155.848C136.463 155.848 137.707 151.929 135.41 150.157L134.263 149.341C134.263 149.341 136.446 149.988 137.521 151.975C138.144 153.125 137.639 156.198 137.639 156.198L136.463 155.848Z" fill="#0E2457"/>
<path style="mix-blend-mode:multiply" opacity="0.2" d="M136.463 155.848L131.89 169.991L133.809 170.261L137.962 156.308L136.463 155.848Z" fill="url(#paint3_linear_3316_92045)"/>
<path opacity="0.64" d="M23.0164 46.4291L20.8186 93.4163L115.104 63.5694L106.314 63.6707L27.4796 88.3792L23.0164 46.4291Z" fill="white"/>
<path opacity="0.64" d="M34.2884 61.4684L32.6775 85.386L38.9543 82.3929L40.0099 57.2393L34.2884 61.4684Z" fill="white"/>
<path opacity="0.64" d="M42.6383 55.0435L41.7432 81.391L48.2775 78.9927V50.4473L42.6383 55.0435Z" fill="white"/>
<path opacity="0.64" d="M49.6521 48.6544L50.0258 77.2885L57.924 75.2234V43.5225L49.6521 48.6544Z" fill="white"/>
<path opacity="0.64" d="M79.1254 35.8571L78.6799 71.492L86.0419 69.4481L87.4607 31.2567L79.1254 35.8571Z" fill="white"/>
<path opacity="0.64" d="M90.6213 29.9596L88.9429 67.5118L96.345 64.9701L98.49 25.2579L90.6213 29.9596Z" fill="white"/>
<path opacity="0.64" d="M100.278 23.7074L98.4961 64.3477L107.42 61.5465L109.219 18.8834L100.278 23.7074Z" fill="white"/>
<g opacity="0.64">
<path d="M33.2306 53.9404C43.3563 45.1298 54.4193 35.7285 64.6695 27.0677C66.0777 25.8865 67.9145 24.296 69.3354 23.1338C71.3369 21.6066 74.4109 22.444 75.3926 24.7643C75.6607 25.3549 75.741 25.9708 75.7473 26.6015L75.8486 29.5567L75.8993 31.0332L75.9014 31.126C75.9225 30.702 75.7283 30.1156 75.4116 29.7613C74.8584 29.0694 73.8493 28.8079 73.0153 29.1243C72.8675 29.1812 72.7092 29.2571 72.5994 29.3331C72.6353 29.3099 72.6944 29.2635 72.7303 29.2382C82.6173 22.1572 93.5326 14.4117 103.523 7.46997L108.134 14.3949C102.41 18.0609 93.9527 23.3089 88.0919 26.9685C84.1269 29.4491 80.1197 31.8959 76.14 34.3554C73.9358 35.9184 70.7858 34.8553 70.0427 32.2482C69.9392 31.8917 69.8885 31.4719 69.8927 31.1239L69.8949 31.0311L69.9455 29.5546L70.0469 26.5994L70.0532 26.4138V26.3674C70.0659 27.6077 71.5395 28.3501 72.5318 27.5992C60.1218 36.5364 46.6055 46.2899 34.0941 55.0415L33.2285 53.9362L33.2306 53.9404Z" fill="white"/>
<path d="M94.9514 7.00166L117.358 4.5L110.986 19.6871L94.9514 7.00166Z" fill="white"/>
</g>
<path d="M79.5327 51.0233C79.5327 51.0233 81.5595 55.4107 80.8839 58.7561C80.2083 62.1015 77.3476 65.6093 76.1948 65.7211C75.0421 65.8329 69.9096 67.5034 69.7935 64.2466L78.5784 49.6122L79.5327 51.0233Z" fill="#474D66"/>
<path d="M79.1971 51.3418C79.1971 51.3418 79.7523 57.5011 78.4814 59.6526C77.2104 61.8041 73.9506 64.6221 73.4735 64.7213C72.9963 64.8204 70.9695 64.4492 70.9695 64.4492L79.1971 51.3397V51.3418Z" fill="#373D4F"/>
<path d="M64.2535 59.7791C64.2535 59.7791 63.8967 63.9872 62.744 65.2971C61.5912 66.607 59.3469 67.0837 57.9261 66.7272C56.5052 66.3707 56.2666 66.2906 56.2666 66.2906C56.2666 66.2906 62.7334 72.6649 66.54 72.7219C72.4621 72.8105 71.9259 69.347 71.9259 69.347C71.9259 69.347 69.462 68.4737 69.6204 67.3621C69.7787 66.2505 70.6929 62.5971 70.6929 62.5971C70.6929 62.5971 64.6927 58.5472 64.2556 59.7791H64.2535Z" fill="#E39975"/>
<path d="M69.7934 66.4234C69.7934 66.4234 65.2922 63.6434 64.1162 60.916L70.4268 63.6687L69.7934 66.4213V66.4234Z" fill="#A55D41"/>
<path d="M79.235 50.6458C79.235 50.6458 79.235 53.8224 78.7177 56.0857C78.2004 58.349 74.9027 62.9157 73.3931 63.9873C71.8835 65.0588 67.87 64.1855 65.6426 62.2407C63.4153 60.2959 61.7875 59.1042 61.589 57.2775C61.589 57.2775 58.9668 58.4693 58.211 55.8094C57.4552 53.1496 58.1709 51.441 60.5566 52.5526C60.5566 52.5526 64.8488 44.8895 66.9157 43.9361C68.9827 42.9826 70.412 41.118 74.7844 42.4279C79.1568 43.7378 79.2582 49.6165 79.235 50.6458Z" fill="#F4AA88"/>
<path d="M71.9236 52.6708C71.9236 52.6708 72.2804 54.6556 72.5591 54.8539C72.8378 55.0522 71.5647 55.6871 71.5647 55.6871C71.5647 55.6871 73.1545 55.4888 73.1946 55.0522C73.2347 54.6156 71.9236 52.6708 71.9236 52.6708Z" fill="#A55D41"/>
<path d="M60.5969 53.7044C60.5969 53.7044 59.4441 52.8311 59.0071 53.3859C58.57 53.9406 59.0071 55.3708 59.3639 55.6893C59.3639 55.6893 58.8466 53.9828 59.404 54.0208C59.9614 54.0588 59.8009 54.4574 60.0395 54.7759C60.2781 55.0944 60.6349 55.0143 60.5969 55.2526C60.5588 55.491 60.599 55.6893 60.599 55.6893C60.599 55.6893 61.112 54.6177 60.5969 53.7044Z" fill="#A55D41"/>
<path d="M69.0018 51.3419C69.0018 51.3419 68.0876 48.8803 64.8679 51.0634C64.8679 51.0634 65.742 48.8803 67.8089 49.395C67.8089 49.395 69.4789 49.9117 69.0018 51.3397V51.3419Z" fill="#474D66"/>
<path d="M77.6177 53.0947C77.6177 53.0947 76.8956 51.1499 74.3516 52.8754C74.3516 52.8754 75.0419 51.1499 76.6761 51.557C76.6761 51.557 77.9956 51.9641 77.6177 53.0947Z" fill="#474D66"/>
<path d="M70.1883 48.2812C70.1883 48.2812 67.2769 46.1022 64.4309 48.6545L65.6892 47.3172C65.6892 47.3172 66.9159 46.3153 67.7224 46.4418C68.8308 46.6148 70.1714 47.0578 70.1714 47.0578L70.1883 48.2812Z" fill="#474D66"/>
<path d="M75.1436 49.2325C75.1436 49.2325 78.2577 49.2452 79.1254 52.4999L78.8383 50.9158C78.8383 50.9158 78.4202 49.5827 77.7784 49.2473C76.898 48.7875 75.7242 48.3951 75.7242 48.3951L75.1436 49.2325Z" fill="#474D66"/>
<path d="M66.9792 44.7101C66.9792 44.7101 62.1085 51.7173 60.5588 52.5526C60.5588 52.5526 58.1351 52.0569 57.9261 53.9616C57.9261 53.9616 58.7537 57.2711 60.3414 57.5432L61.5912 57.2774C61.5912 57.2774 62.592 59.5935 64.1184 60.916C64.1184 60.916 63.7531 63.6033 63.2486 64.4491C63.2486 64.4491 62.8031 62.6161 61.6503 62.536C60.4976 62.4558 54.3369 61.5425 55.5699 56.2629C55.5699 56.2629 56.5643 52.6095 56.5643 52.4112C56.5643 52.213 55.1265 52.3332 55.4094 50.3272C55.6902 48.3213 61.1753 39.19 68.0116 40.3818L68.5837 40.2236C69.5824 39.9473 69.7998 38.6353 72.2235 38.7935C74.6473 38.9517 79.1379 39.8249 80.7277 43.8369C82.3175 47.8488 82.1592 48.1652 82.3175 49.7134C82.4758 51.2617 83.2718 53.0208 83.8271 53.2128C84.3823 53.4047 84.7412 53.2128 84.7412 53.2128C84.7412 53.2128 82.9129 54.3581 82.119 52.85C82.119 52.85 82.6363 55.0331 83.9073 54.7948C83.9073 54.7948 83.2317 55.5879 82.3977 55.1512C81.5638 54.7146 79.1992 50.9832 79.1992 50.9832C79.1992 50.9832 77.3645 46.4334 75.0062 44.2735C72.1454 41.6537 70.315 43.6386 70.315 43.6386C70.315 43.6386 68.5837 41.9764 66.9813 44.7101H66.9792Z" fill="#474D66"/>
<path d="M57.3983 52.2953C57.2399 52.6518 56.2455 55.7504 54.2187 56.0668L52.1919 56.3853C52.1919 56.3853 55.0527 57.4167 56.2645 55.6913L57.3962 52.2974L57.3983 52.2953Z" fill="#474D66"/>
<path d="M76.0365 64.7212C76.0365 64.7212 78.4202 70.5978 83.1895 70.3995C87.9589 70.2012 92.9837 70.9247 94.5165 74.4093C96.3849 78.6575 94.1195 81.1992 94.1195 81.1992C94.1195 81.1992 93.5622 82.1125 90.5431 83.2642C87.5239 84.4159 85.6555 84.2176 85.6555 84.2176C85.6555 84.2176 89.1728 82.3931 90.7415 80.9229C91.6684 80.0538 91.8542 77.548 88.873 76.8329C85.8919 76.1179 83.4682 78.1027 80.3287 76.7528C77.1893 75.4028 71.6641 70.6378 72.8971 67.5414L73.1357 65.7231L76.0365 64.7233V64.7212Z" fill="#474D66"/>
<path d="M70.0553 42.8244C70.0553 42.8244 67.3929 41.3162 65.6448 43.8959C63.8967 46.4756 64.055 48.3783 62.6236 49.6122C61.1922 50.8462 59.8262 51.3418 59.8262 51.3418C59.8262 51.3418 63.8566 49.6945 65.3661 46.0812C66.8757 42.4679 70.0553 42.8244 70.0553 42.8244Z" fill="#373D4F"/>
<path d="M69.6183 42.1894C69.6183 42.1894 66.8757 41.1179 65.1677 43.261L63.4597 45.404C63.4597 45.404 65.8433 39.924 69.6204 42.1873L69.6183 42.1894Z" fill="#373D4F"/>
<path d="M69.0883 41.2762C69.0883 41.2762 66.122 40.3987 64.0952 42.3857L62.0684 44.3727C62.0684 44.3727 66.0143 38.2578 69.0883 41.2762Z" fill="#373D4F"/>
<path d="M57.9239 53.9617C57.9239 53.9617 57.3286 56.3642 58.8233 57.5159C60.3181 58.6676 61.7495 59.4227 62.3048 60.4141C62.8601 61.4055 63.6602 63.3038 63.6602 63.3038L64.1184 60.9182C64.1184 60.9182 62.0282 58.7878 61.5912 57.2796C61.5912 57.2796 60.487 57.9546 59.8262 57.4969C59.1654 57.0392 57.9957 55.1745 57.926 53.9638L57.9239 53.9617Z" fill="#373D4F"/>
<path d="M56.4631 57.2713C56.4166 56.9021 56.8642 59.8573 59.5223 61.2874C62.1804 62.7175 62.3472 62.8398 62.3472 62.8398C62.3472 62.8398 56.6615 58.8532 56.4631 57.2713Z" fill="#373D4F"/>
<path d="M58.53 58.0137C58.53 58.0137 61.7856 61.2452 62.0664 62.0425L62.3472 62.8398C62.3472 62.8398 63.1938 63.7236 63.2466 64.4513L63.557 63.6709C63.557 63.6709 62.134 60.1989 58.53 58.0137Z" fill="#373D4F"/>
<path d="M70.3127 43.6387C70.3127 43.6387 72.1474 41.2678 74.4192 42.3246C76.6909 43.3813 79.7248 49.1862 79.9106 49.6123C80.6664 51.3419 80.8543 53.4238 80.8543 53.4238L80.0604 52.2953C80.0604 52.2953 76.3742 44.0563 73.4733 43.1029C70.7709 42.2149 70.3127 43.6387 70.3127 43.6387Z" fill="#373D4F"/>
<path d="M70.6569 42.3856C70.6569 42.3856 71.4444 40.9175 73.5113 41.1158C75.5783 41.3141 80.6242 48.779 80.6242 48.779C80.6242 48.779 74.3579 35.6337 70.6548 42.3856H70.6569Z" fill="#373D4F"/>
<path d="M70.0742 40.7594C70.0742 40.7594 73.2665 37.5827 76.8071 40.7594C76.8071 40.7594 73.4945 38.6479 70.0742 40.7594Z" fill="#373D4F"/>
<path d="M76.807 65.4595L73.068 66.2252L72.897 67.5414L77.5755 67.322L76.807 65.4595Z" fill="#33A8BD"/>
<path d="M85.6343 76.8583C85.6343 76.8583 92.023 76.5799 91.2819 79.921C91.2819 79.921 90.7773 81.058 89.5401 81.8785C89.5401 81.8785 92.8675 80.8217 92.1518 78.1218C91.436 75.4219 89.4514 75.9091 85.6343 76.8562V76.8583Z" fill="#373D4F"/>
<path d="M88.9426 70.752C88.9426 70.752 94.9492 73.6797 95.1582 76.5378C95.1582 76.5378 94.6958 71.1042 88.9426 70.752Z" fill="#373D4F"/>
<path d="M74.4446 67.5415C74.4446 67.5415 76.8514 73.8357 81.8593 74.787C81.8593 74.787 73.636 72.8232 73.5156 67.512L74.4467 67.5415H74.4446Z" fill="#373D4F"/>
<path d="M75.817 67.4044C75.817 67.4044 76.8114 70.657 78.6778 71.4923C78.6778 71.4923 74.8226 69.5475 74.9429 67.5415L75.817 67.4044Z" fill="#373D4F"/>
<path d="M80.0309 72.7219C80.0309 72.7219 83.6475 74.7068 86.9052 74.7869C90.1629 74.8671 92.0504 76.1053 92.0504 76.1053C92.0504 76.1053 91.1953 74.557 88.1762 74.4136C85.1571 74.2702 80.7044 73.9517 80.0288 72.7219H80.0309Z" fill="#373D4F"/>
<path d="M74.1681 58.309C74.1681 58.309 74.016 58.5685 73.8155 58.9292C73.4692 59.5514 72.9836 60.4816 72.8971 60.9162C72.7577 61.6059 69.538 61.2347 67.7899 59.6126C66.0397 57.9926 66.2001 56.6891 66.2001 56.6891L67.4352 56.9401L74.1681 58.309Z" fill="#B75934"/>
<path d="M74.1679 58.3089C74.1679 58.3089 74.0159 58.5683 73.8153 58.929C73.0384 58.8447 71.1403 58.6168 69.7933 58.3089C68.7103 58.06 67.9016 57.4398 67.4351 56.9399L74.1679 58.3089Z" fill="#EEEEFF"/>
<path d="M83.9875 82.0936C83.9875 82.0936 88.4148 90.0753 91.4361 92.0201C94.4573 93.9649 98.589 97.0635 102.286 99.0884C105.983 101.113 109.439 104.767 109.439 104.767C109.439 104.767 111.267 108.3 110.948 108.34C110.63 108.38 109.318 108.021 109.04 107.308C108.761 106.595 110.391 109.015 109.874 109.135C109.356 109.255 106.614 107.349 106.059 106.553C105.503 105.758 100.734 103.377 100.734 103.377C100.734 103.377 100.852 105.68 101.528 106.355C102.204 107.03 103.158 107.983 103.078 108.538C102.997 109.093 102.799 109.331 102.799 109.331L99.0641 106.749C99.0641 106.749 97.8121 102.858 97.4848 102.581C97.1576 102.305 95.1688 101.312 92.308 99.4449C89.4472 97.5781 85.6322 95.4751 84.2409 93.6886C82.8496 91.902 78.9163 87.3754 78.9163 87.3754L80.1535 82.4037L83.9854 82.0936H83.9875Z" fill="#F4AA88"/>
<path d="M83.6414 82.3931C83.6414 82.3931 81.0234 84.3568 80.9052 85.4284C80.7869 86.4999 79.7883 88.3814 79.7883 88.3814L78.4814 87.0568L79.4315 83.047L83.6414 82.3931Z" fill="#A55D41"/>
<path d="M56.7016 65.4594C56.7016 65.4594 54.6748 64.2023 52.8865 65.7231C51.0983 67.2439 45.8518 70.1632 45.8518 70.1632C45.8518 70.1632 47.64 71.4731 47.9969 73.2006C48.3537 74.9282 46.804 74.7278 48.6535 76.1073C50.5008 77.4889 53.2433 80.6444 54.793 82.9077C56.3427 85.171 57.4764 88.6851 57.924 90.0541C58.3695 91.423 61.4097 94.4014 61.4097 94.4014L80.029 83.5025L85.3156 81.8784C85.3156 81.8784 81.1585 76.8729 79.2372 74.4768C77.316 72.0806 75.1055 69.5494 73.5136 69.4481L71.9217 69.3469C71.9217 69.3469 68.8013 72.7408 65.9996 71.8085C63.198 70.8762 58.6081 68.0771 58.7875 66.8263C58.7875 66.8263 57.5947 65.4004 56.7016 65.4594Z" fill="#FCEDBE"/>
<path d="M79.4737 127.693C79.4737 127.693 62.4063 129.287 62.1867 127.693C61.9671 126.098 84.1248 116.794 90.3235 118.104C96.5222 119.414 98.074 120.844 98.4899 121.974C98.9058 123.105 79.4737 127.693 79.4737 127.693Z" fill="#157631"/>
<path d="M85.4189 120.907C85.4189 120.907 89.0503 129.182 91.833 130.929C91.833 130.929 92.9456 146.097 95.9668 149.748L102.723 146.175V136.126L97.109 121.605C97.109 121.605 86.7955 117.714 85.4189 120.905V120.907Z" fill="#A55D41"/>
<path d="M75.7284 123.964C75.7284 123.964 76.7313 132.12 76.2541 134.025C75.777 135.93 67.0279 158.244 67.0279 158.244L58.0508 156.894C58.0508 156.894 58.2894 145.063 64.2495 137.598L63.6731 126.322L63.5548 125.368L75.7263 123.961L75.7284 123.964Z" fill="#A55D41"/>
<path d="M56.7017 65.4594C56.7017 65.4594 57.1197 72.2472 57.9241 75.2255C58.7285 78.2039 60.0987 84.7554 59.9805 87.4342C59.8622 90.1131 59.4041 92.2456 59.4041 92.2456L61.8278 96.0698C61.8278 96.0698 61.2324 100.299 61.1121 103.99C60.9939 107.684 60.3373 111.613 61.053 118.283C61.7687 124.953 62.1846 127.693 62.1846 127.693C62.1846 127.693 62.7209 125.906 67.4311 125.727C72.1414 125.548 72.439 125.071 78.1606 123.107C83.8821 121.143 84.7773 120.726 89.1898 120.605C93.6024 120.485 98.4899 121.974 98.4899 121.974C98.4899 121.974 98.4308 118.519 95.8677 114.59C93.3047 110.66 88.1785 104.108 85.6154 102.143C83.0524 100.177 78.0444 91.1234 78.0444 91.1234C78.0444 91.1234 80.8968 84.1838 80.6624 83.3063C80.4281 82.4288 75.8973 74.7847 75.8973 74.7847C75.8973 74.7847 75.2935 69.6253 74.9409 69.446C74.5883 69.2667 73.5137 69.446 73.5137 69.446C73.5137 69.446 73.9887 74.4071 73.1548 74.7847C72.3208 75.1622 69.2194 75.2403 66.7175 74.7847C64.2157 74.3291 60.6371 73.2554 60.6371 73.2554L58.7897 66.2461C58.7897 66.2461 57.4575 65.3434 56.7038 65.4551L56.7017 65.4594Z" fill="#50AB6F"/>
<path opacity="0.3" d="M56.7015 65.4595C56.7015 65.4595 58.2111 79.7586 61.4709 81.8784C64.7307 83.9983 66.3965 85.825 70.9673 85.9051C75.5382 85.9853 80.5377 84.2303 80.5377 84.2303C80.5377 84.2303 78.3209 90.3916 78.0422 91.1257C77.7635 91.8597 75.1413 92.8131 75.1413 92.8131L61.8277 96.0699L59.4039 92.2457L54.2588 82.1568C54.2588 82.1568 56.2624 72.608 56.2624 69.4482C56.2624 66.2884 55.6923 65.0671 55.6923 65.0671L56.6994 65.4595H56.7015Z" fill="#151718"/>
<path opacity="0.3" d="M75.8972 74.7869L82.9657 82.5998L80.6623 83.3085L75.8972 74.7869Z" fill="#151718"/>
<path opacity="0.3" d="M66.0016 94.9371C66.0016 94.9371 63.9748 101.071 64.2134 106.313C64.4519 111.554 66.2402 120.308 68.9236 122.095C71.607 123.881 73.2031 124.849 73.2031 124.849C73.2031 124.849 71.4297 125.594 68.2691 125.691C65.1085 125.788 64.3612 125.864 63.6771 126.324C63.1134 126.703 63.6771 128.169 63.6771 128.169C63.6771 128.169 62.3322 128.735 62.1866 127.693C62.0409 126.651 59.9803 111.434 61.2914 101.012L61.8297 96.0698L66.0016 94.9392V94.9371Z" fill="#151718"/>
<path d="M46.4619 70.6906C46.4619 70.6906 36.5538 78.7967 36.7923 79.9884C37.0309 81.1802 37.2695 83.7072 38.7009 84.2303C40.1323 84.7534 45.9235 83.7958 49.9075 82.7284C53.8915 81.6611 55.154 79.3345 56.7037 79.4527C58.2533 79.5708 58.6122 79.9884 60.5187 79.3535C62.4252 78.7186 65.1677 77.3286 65.9637 76.9721C66.7596 76.6156 66.7976 76.4152 66.5992 76.217C66.4007 76.0187 65.4865 75.3437 64.5322 75.8204C64.5322 75.8204 65.5646 74.9071 65.5858 74.3122C65.6069 73.7174 64.1184 73.7174 64.1184 73.7174C64.1184 73.7174 64.4203 72.4075 64.1184 72.3675C63.8165 72.3274 63.1008 72.726 63.1008 72.726C63.1008 72.726 62.8622 72.0089 62.307 71.7705C61.7517 71.5322 61.2746 72.127 61.2746 72.127C61.2746 72.127 61.6926 71.3233 61.0465 71.1504C60.4005 70.9774 58.7305 71.4921 58.7305 71.4921L55.0337 75.5019L50.0257 77.2885C50.0257 77.2885 47.5556 75.3374 47.7667 74.7868C47.9778 74.2363 48.5943 73.517 48.2375 72.4835C47.8807 71.4499 46.4619 70.6906 46.4619 70.6906Z" fill="#F4AA88"/>
<path d="M104.889 104.068L108.466 106.412L109.515 107.848L109.952 108.091L108.943 106.081" fill="#A55D41"/>
<path d="M41.8975 78.4001L50.0258 77.2885L48.6535 76.1073L41.8975 78.4001Z" fill="#A55D41"/>
<path d="M59.2351 72.7239C59.2351 72.7239 58.0718 74.8374 58.9079 74.9851C59.7439 75.1327 61.2725 72.127 61.2725 72.127C61.2725 72.127 59.5032 75.7887 58.9374 75.3732C58.3716 74.9576 58.0211 74.3227 59.2351 72.7239Z" fill="#A55D41"/>
<path d="M62.4549 73.1099C62.4549 73.1099 61.0847 75.6115 60.5167 75.5525C59.9488 75.4934 60.0332 74.4957 60.3351 73.8777C60.3351 73.8777 59.5941 75.1053 59.9509 75.4934C60.3077 75.8815 61.2029 75.9996 62.4549 73.112V73.1099Z" fill="#A55D41"/>
<path d="M64.1186 73.7152C64.1186 73.7152 62.0686 76.1852 61.4711 76.1072C60.8736 76.0291 61.298 74.9133 61.298 74.9133C61.298 74.9133 60.6477 76.0882 61.0446 76.2675C61.4415 76.4468 63.9877 74.7994 64.1186 73.7173V73.7152Z" fill="#A55D41"/>
<path d="M64.5302 75.8182C64.5302 75.8182 62.6912 77.2188 62.155 76.9193C61.6187 76.6198 62.0663 75.8182 62.0663 75.8182C62.0663 75.8182 61.2704 76.8602 61.8911 77.0986C62.5118 77.3369 63.5653 76.9995 64.5302 75.8182Z" fill="#A55D41"/>
<path d="M58.967 76.2803C58.967 76.2803 58.6693 77.0755 57.924 77.5353C57.1787 77.9951 55.7769 78.0247 55.7769 78.0247C55.7769 78.0247 58.7875 78.5879 58.967 76.2803Z" fill="#A55D41"/>
<path opacity="0.3" d="M74.643 124.354C74.643 124.354 68.951 127.933 67.0298 127.933C65.1085 127.933 67.1945 133.949 66.2993 137.879C65.4041 141.808 58.1118 155.804 58.1118 155.804C58.1118 155.804 58.7494 144.47 64.2535 137.6L63.6771 126.324L74.643 124.354Z" fill="#151718"/>
<path opacity="0.3" d="M95.5002 121.247C95.5002 121.247 91.0391 120.962 90.9188 122.69C90.7985 124.417 93.3024 127.334 93.6022 129.659C93.902 131.983 95.629 144.369 96.7607 145.976C97.8923 147.584 98.4961 148.411 98.4961 148.411L95.7557 149.322C95.7557 149.322 92.9055 144.983 91.833 130.929C91.833 130.929 88.1446 127.879 85.4189 120.907C85.4189 120.907 93.4798 119.825 95.5002 121.247Z" fill="#151718"/>
<path d="M67.7499 156.403C67.7499 156.403 60.6328 157.251 58.1099 155.804C58.1099 155.804 58.7665 164.758 58.5279 165.95C58.2893 167.141 57.6095 166.665 58.1099 167.618C58.6102 168.571 58.6884 169.048 58.6081 169.445C58.5279 169.841 58.7665 174.845 59.0853 177.148C59.4041 179.451 59.9192 185.009 62.8412 184.294C65.7632 183.579 66.0799 175.083 65.4444 172.303C64.8089 169.523 64.887 166.188 64.887 166.188L67.7499 156.403Z" fill="#3E5079"/>
<path d="M94.943 149.604C98.2113 148.647 102.565 144.468 103.844 144.046C104.6 143.798 106.458 157.055 106.458 157.055C106.458 157.055 114.962 154.789 116.155 155.802C117.348 156.814 118.619 157.371 116.712 161.105C114.806 164.838 107.731 171.111 104.948 172.062C102.166 173.014 99.5435 170.394 99.3049 167.932C99.0663 165.471 98.7919 160.562 98.832 158.483C98.8552 157.211 94.9409 149.602 94.9409 149.602L94.943 149.604Z" fill="#3E5079"/>
<path d="M100.895 169.284C100.895 169.284 104.63 164.678 105.822 162.853C107.015 161.029 111.772 156.12 114.407 156.342C117.042 156.563 117.413 157.86 117.253 159.923C117.092 161.986 108.911 168.808 108.911 168.808C108.911 168.808 106.492 171.881 104.948 172.064C103.405 172.248 100.656 171.826 100.895 169.284Z" fill="#2E3C59"/>
<path opacity="0.3" d="M99.476 147.105C99.476 147.105 98.9482 150.822 99.742 153.005C100.536 155.188 100.975 158.126 101.53 160.073C102.086 162.02 102.286 164.005 102.206 164.68C102.126 165.355 101.961 165.751 102.223 166.308C102.485 166.865 102.723 166.996 102.723 166.996C102.723 166.996 100.931 169.116 101.214 170.32C101.496 171.525 102.723 172.105 102.723 172.105C102.723 172.105 99.3915 171.968 99.1614 166.142L98.8342 158.489L94.9431 149.609L99.476 147.109V147.105Z" fill="#151718"/>
<path d="M109.331 70.8571L98.5805 73.3608L95.6838 84.2534L124.895 96.5064L134.343 90.6172L136.465 80.8025L109.331 70.8571Z" fill="#0092AC"/>
<path d="M120.215 77.8433C118.722 78.4634 117.521 78.1048 116.611 76.7739L119.742 66.2526L123.346 67.322L120.215 77.8433Z" fill="#99D3DE"/>
<path d="M99.5982 74.251L127.95 84.6963L125.584 95.167L96.8789 83.5468L99.5982 74.251Z" fill="#29BBD5"/>
<path d="M115.067 58.6611L110.155 58.5936L132.895 65.7063L130.568 73.9073L133.849 71.6018C134.276 71.3023 134.59 70.8699 134.744 70.3721L136.208 65.6177C136.379 65.0587 136.056 64.4702 135.492 64.3141L115.067 58.6611Z" fill="#0092AC"/>
<path d="M132.608 65.1264L110.673 58.61C110.14 58.4516 109.579 58.755 109.421 59.2877L107.38 66.1457C107.221 66.6783 107.525 67.2385 108.058 67.3969L129.993 73.9133C130.526 74.0716 131.087 73.7682 131.245 73.2356L133.286 66.3776C133.445 65.8449 133.141 65.2848 132.608 65.1264Z" fill="#29BBD5"/>
<path d="M131.629 65.5416L111.21 59.4755C110.737 59.335 110.24 59.6041 110.1 60.0764L108.387 65.8306C108.247 66.3029 108.516 66.7996 108.989 66.9401L129.408 73.0062C129.88 73.1466 130.378 72.8776 130.518 72.4052L132.231 66.6511C132.371 66.1788 132.102 65.682 131.629 65.5416Z" fill="#263A68"/>
<path d="M112.133 86.7868C113.161 86.7868 113.995 85.9538 113.995 84.9263C113.995 83.8988 113.161 83.0659 112.133 83.0659C111.104 83.0659 110.271 83.8988 110.271 84.9263C110.271 85.9538 111.104 86.7868 112.133 86.7868Z" fill="#99D3DE"/>
<path d="M116.683 66.7841L115.279 66.3665C115.173 66.3053 115.124 66.2125 115.129 66.0902L115.507 66.0649L116.655 66.4066L116.683 66.7841ZM115.154 66.0058L115.483 64.9005L115.593 64.8415L115.773 65.1726L115.532 65.9805L115.154 66.0079V66.0058ZM116.191 63.7678L115.95 64.5757L115.618 64.755L115.559 64.6453L115.889 63.54L116.191 63.7678ZM117.364 64.0252L116.22 63.6856L115.918 63.4577C115.98 63.3523 116.072 63.3038 116.195 63.308L117.595 63.7235L117.367 64.0252H117.364Z" fill="white"/>
<path d="M117.901 65.8034L117.635 66.6956L117.407 66.9972C117.301 66.9361 117.253 66.8433 117.257 66.7209L117.612 65.5313L117.721 65.4722L117.901 65.8034ZM118.319 64.4007L118.078 65.2085L117.747 65.3878L117.688 65.2781L118.017 64.1729L118.319 64.4007ZM119.146 65.6642L119.267 65.8856L119.045 66.0059L117.939 65.6768L117.818 65.4553L118.04 65.3351L119.146 65.6642ZM119.364 64.6179L118.346 64.3163L118.044 64.0885C118.106 63.983 118.198 63.9345 118.321 63.9387L119.594 64.3163L119.364 64.6179ZM119.336 65.9531L119.396 66.0628L119.041 67.2525C118.98 67.3579 118.887 67.4064 118.764 67.4022L118.737 67.0247L119.003 66.1324L119.334 65.9531H119.336ZM119.182 65.5376L119.448 64.6453L119.676 64.3437C119.782 64.4049 119.83 64.4977 119.826 64.62L119.472 65.8097L119.362 65.8687L119.182 65.5376Z" fill="white"/>
<path d="M120.812 68.0096L119.535 67.63C119.429 67.5688 119.381 67.476 119.385 67.3536L119.763 67.3283L120.785 67.6321L120.812 68.0096ZM120.447 65.0313L120.206 65.8392L119.875 66.0184L119.816 65.9088L120.145 64.8035L120.447 65.0313ZM121.275 66.2948L121.395 66.5162L121.173 66.6365L120.067 66.3074L119.947 66.0859L120.168 65.9657L121.275 66.2948ZM120.477 64.9469L120.175 64.7191C120.236 64.6136 120.329 64.5651 120.451 64.5693L121.809 64.9722C121.914 65.0334 121.963 65.1262 121.959 65.2485L121.581 65.276L120.479 64.949L120.477 64.9469ZM121.467 66.5837L121.526 66.6934L121.171 67.8831C121.11 67.9886 121.017 68.0371 120.895 68.0328L120.867 67.6553L121.133 66.763L121.465 66.5837H121.467Z" fill="white"/>
<path d="M122.157 67.067L121.891 67.9592L121.663 68.2608C121.558 68.1997 121.509 68.1069 121.513 67.9845L121.868 66.7949L121.978 66.7358L122.157 67.067ZM121.99 66.6936L121.931 66.5839L122.286 65.3943C122.347 65.2888 122.44 65.2403 122.562 65.2445L122.59 65.6221L122.324 66.5143L121.992 66.6936H121.99ZM123.403 66.9277L123.523 67.1492L123.304 67.2695L122.197 66.9404L122.077 66.7189L122.299 66.5987L123.405 66.9277H123.403ZM123.595 67.2167L123.654 67.3264L123.299 68.5161C123.238 68.6215 123.145 68.67 123.023 68.6658L122.995 68.2883L123.261 67.396L123.593 67.2167H123.595ZM123.441 66.8012L123.707 65.9089L123.935 65.6073C124.04 65.6685 124.089 65.7613 124.085 65.8836L123.73 67.0733L123.62 67.1324L123.441 66.8012Z" fill="white"/>
<path d="M141.794 92.3975C141.216 90.6088 139.784 89.4002 137.711 88.6282C139.588 87.6937 140.931 86.2953 141.655 84.3652C142.869 86.1919 144.214 87.506 145.738 88.1346C144.024 89.1175 142.662 90.4844 141.794 92.3975Z" fill="#FFC400"/>
<path d="M103.603 118.88C103.025 117.091 101.593 115.883 99.52 115.111C101.397 114.176 102.74 112.778 103.464 110.848C104.678 112.674 106.023 113.989 107.547 114.617C105.833 115.6 104.471 116.967 103.603 118.88Z" fill="#FFC400"/>
<path d="M122.744 128.53L118.23 141.587L129.295 142.612L134.075 127.811L122.744 128.53Z" fill="#263A68"/>
<path d="M137.392 129.091L133.41 142.994L129.295 142.612L132.988 128.682L137.392 129.091Z" fill="#3E5079"/>
<path d="M150.368 138.227L107.391 134.24C106.215 134.13 105.415 133 105.702 131.857L113.25 102.799C113.6 101.453 114.774 100.482 116.163 100.392L156.117 97.81C157.331 97.7572 158.287 98.8267 158.101 100.025L152.447 136.605C152.291 137.611 151.381 138.319 150.366 138.227H150.368Z" fill="#263A68"/>
<path d="M148.432 136.107L108.362 132.392C107.61 132.323 107.173 131.572 107.378 130.72L113.957 103.362C114.138 102.605 114.873 101.963 115.601 101.923L153.993 99.8434C155.017 99.7886 155.745 100.472 155.61 101.373L150.682 134.396C150.526 135.438 149.515 136.206 148.432 136.105V136.107Z" fill="#C8CACD"/>
<path d="M154.643 107.85L112.608 108.781L113.883 103.48C114.081 102.659 114.877 101.961 115.667 101.919L153.752 99.856C154.907 99.7928 155.73 100.565 155.578 101.586L154.643 107.85Z" fill="#29BBD5"/>
<path d="M139.78 106.376L116.592 107.066C115.884 107.087 115.454 106.509 115.627 105.775L115.713 105.408C115.884 104.678 116.592 104.064 117.297 104.033L140.392 103.02C141.264 102.982 141.857 103.611 141.712 104.427L141.638 104.838C141.49 105.659 140.656 106.349 139.78 106.374V106.376Z" fill="#F1F3F7"/>
<path d="M149.848 106.076L144.746 106.228C143.781 106.258 143.13 105.564 143.285 104.684L143.323 104.463C143.477 103.587 144.372 102.847 145.332 102.805L150.41 102.581C151.419 102.537 152.129 103.233 151.985 104.14L151.949 104.37C151.808 105.281 150.862 106.047 149.848 106.076Z" fill="#F1F3F7"/>
<path d="M118.409 118.724L113.511 118.604C112.825 118.587 112.413 117.971 112.589 117.231L113.788 112.153C113.959 111.432 114.645 110.841 115.327 110.833L120.183 110.774C120.901 110.765 121.353 111.362 121.188 112.109L120.031 117.366C119.862 118.131 119.134 118.741 118.409 118.724Z" fill="#F1F3F7"/>
<path d="M118.158 120.264L113.015 120.099C112.785 120.093 112.646 119.882 112.705 119.631C112.764 119.38 112.998 119.182 113.228 119.188L118.367 119.329C118.61 119.336 118.76 119.551 118.703 119.808C118.646 120.068 118.401 120.27 118.158 120.262V120.264Z" fill="#F1F3F7"/>
<path d="M128.159 118.966L122.812 118.834C122.062 118.815 121.596 118.171 121.762 117.399L122.909 112.101C123.071 111.348 123.802 110.732 124.543 110.723L129.838 110.658C130.621 110.647 131.134 111.272 130.978 112.052L129.884 117.549C129.724 118.351 128.949 118.988 128.157 118.969L128.159 118.966Z" fill="#F1F3F7"/>
<path d="M127.936 120.576L122.32 120.397C122.069 120.388 121.91 120.169 121.967 119.907C122.024 119.646 122.273 119.439 122.525 119.445L128.134 119.599C128.4 119.606 128.571 119.831 128.516 120.101C128.461 120.371 128.202 120.584 127.938 120.576H127.936Z" fill="#F1F3F7"/>
<path d="M138.836 119.23L132.975 119.085C132.156 119.064 131.624 118.391 131.78 117.581L132.861 112.039C133.015 111.253 133.792 110.609 134.603 110.599L140.396 110.529C141.253 110.519 141.838 111.17 141.695 111.987L140.681 117.743C140.533 118.585 139.704 119.249 138.836 119.228V119.23Z" fill="#F1F3F7"/>
<path d="M138.644 120.918L132.487 120.721C132.211 120.713 132.031 120.483 132.084 120.207C132.137 119.933 132.403 119.715 132.677 119.724L138.828 119.892C139.119 119.901 139.313 120.137 139.265 120.42C139.214 120.702 138.937 120.926 138.646 120.918H138.644Z" fill="#F1F3F7"/>
<path d="M150.305 119.513L143.865 119.353C142.966 119.329 142.36 118.623 142.505 117.777L143.504 111.976C143.646 111.154 144.475 110.479 145.364 110.468L151.717 110.39C152.659 110.379 153.324 111.061 153.195 111.917L152.283 117.954C152.15 118.836 151.261 119.534 150.307 119.511L150.305 119.513Z" fill="#F1F3F7"/>
<path d="M150.155 121.285L143.388 121.069C143.086 121.059 142.881 120.818 142.93 120.529C142.979 120.243 143.264 120.015 143.565 120.023L150.322 120.209C150.642 120.217 150.864 120.466 150.82 120.764C150.773 121.061 150.476 121.295 150.157 121.285H150.155Z" fill="#F1F3F7"/>
<path d="M115.899 129.971L110.944 129.585C110.25 129.53 109.84 128.857 110.022 128.083L111.278 122.77C111.457 122.014 112.156 121.426 112.844 121.451L117.757 121.639C118.483 121.666 118.937 122.322 118.764 123.105L117.55 128.617C117.373 129.42 116.632 130.028 115.899 129.971Z" fill="#F1F3F7"/>
<path d="M115.635 131.589L110.433 131.144C110.201 131.125 110.062 130.895 110.123 130.631C110.184 130.367 110.423 130.171 110.657 130.19L115.853 130.612C116.098 130.631 116.25 130.867 116.188 131.137C116.129 131.409 115.88 131.612 115.633 131.591L115.635 131.589Z" fill="#F1F3F7"/>
<path d="M125.778 130.743L120.358 130.321C119.6 130.262 119.131 129.555 119.307 128.743L120.51 123.185C120.681 122.396 121.424 121.78 122.176 121.81L127.543 122.017C128.337 122.046 128.854 122.734 128.689 123.554L127.541 129.33C127.374 130.173 126.582 130.806 125.778 130.745V130.743Z" fill="#F1F3F7"/>
<path d="M125.539 132.439L119.847 131.951C119.592 131.93 119.433 131.688 119.493 131.414C119.552 131.139 119.805 130.933 120.061 130.954L125.746 131.414C126.014 131.435 126.187 131.684 126.13 131.966C126.073 132.251 125.807 132.462 125.539 132.439Z" fill="#F1F3F7"/>
<path d="M136.619 131.587L130.663 131.123C129.832 131.057 129.295 130.315 129.462 129.463L130.598 123.637C130.758 122.81 131.552 122.166 132.376 122.198L138.262 122.424C139.134 122.457 139.725 123.179 139.573 124.039L138.507 130.104C138.35 130.99 137.504 131.654 136.619 131.584V131.587Z" fill="#F1F3F7"/>
<path d="M136.415 133.371L130.159 132.835C129.878 132.812 129.699 132.557 129.754 132.268C129.808 131.979 130.081 131.764 130.359 131.787L136.607 132.293C136.902 132.316 137.101 132.578 137.046 132.877C136.993 133.177 136.708 133.398 136.412 133.373L136.415 133.371Z" fill="#F1F3F7"/>
<path d="M148.295 132.498L141.737 131.987C140.821 131.916 140.211 131.133 140.363 130.239L141.414 124.126C141.564 123.259 142.411 122.586 143.314 122.62L149.783 122.869C150.744 122.905 151.417 123.666 151.28 124.571L150.317 130.947C150.176 131.88 149.266 132.576 148.292 132.5L148.295 132.498Z" fill="#F1F3F7"/>
<path d="M148.132 134.375L141.241 133.784C140.933 133.757 140.726 133.491 140.778 133.185C140.829 132.882 141.121 132.656 141.429 132.681L148.309 133.238C148.637 133.266 148.863 133.54 148.814 133.854C148.765 134.168 148.461 134.4 148.134 134.373L148.132 134.375Z" fill="#F1F3F7"/>
<path d="M108.33 140.667L137.124 143.34L136.805 146.778L106.724 143.987L108.33 140.667Z" fill="#263A68"/>
<path d="M137.688 146.86L132.365 146.367L133.41 142.994L138.007 143.42L137.688 146.86Z" fill="#3E5079"/>
<path d="M4.45197 147.136C3.94527 145.571 2.69329 144.512 0.875488 143.835C2.52016 143.017 3.69403 141.793 4.32741 140.102C5.38937 141.701 6.56746 142.85 7.90389 143.403C6.40278 144.263 5.20992 145.462 4.45197 147.136Z" fill="#FFC400"/>
<path d="M17.7594 167.903C16.9276 165.327 14.8649 163.587 11.8774 162.473C14.5799 161.128 16.5138 159.115 17.5546 156.333C19.3007 158.963 21.2409 160.853 23.4366 161.763C20.9685 163.178 19.0072 165.146 17.7594 167.903Z" fill="#FFC400"/>
<path d="M116.068 186.785L32.5085 200.241L68.1847 186.785L129.076 173.33L116.068 186.785Z" fill="#263A68"/>
<path d="M129.076 173.33L116.068 186.785L32.5085 200.241L32.9392 201.808C33.4333 203.611 35.4517 204.767 37.546 204.447L113.944 192.78C116.265 192.426 118.355 191.339 119.816 189.728L128.998 179.601C129.819 178.696 130.129 177.517 129.846 176.388L129.076 173.33Z" fill="#09828E"/>
<path d="M70.2367 186.785L123.797 175.315L114.694 184.942L44.0486 197.317L70.2367 186.785Z" fill="#F1F3F7"/>
<g filter="url(#filter0_d_3316_92045)">
<path d="M179.402 107.451L169.946 145.644L309.317 141.455L316.434 103.922L179.402 107.451Z" fill="#0092AC"/>
</g>
<g filter="url(#filter1_d_3316_92045)">
<path d="M193.723 132.144L188.768 132.262L186.638 121.043L186.555 121.047C186.226 122.796 185.941 124.139 185.705 125.074L183.847 132.383L180.608 132.461L184.733 116.586L189.422 116.337L191.641 127.2H191.698C192.009 125.561 192.283 124.251 192.522 123.264L194.268 116.078L197.572 115.903L193.721 132.149L193.723 132.144Z" fill="#F6F9FC"/>
<path d="M203.87 131.902L203.505 130.181H203.424C202.732 130.953 202.084 131.482 201.48 131.775C200.876 132.066 200.146 132.222 199.289 132.241C198.239 132.267 197.5 131.917 197.072 131.197C196.645 130.48 196.586 129.463 196.892 128.145C197.211 126.782 197.851 125.757 198.818 125.065C199.785 124.374 201.051 123.956 202.626 123.815L204.499 123.675L204.539 123.494C204.771 122.444 204.436 121.939 203.534 121.975C202.726 122.009 201.632 122.363 200.253 123.041L199.823 120.222C201.267 119.415 202.964 118.963 204.926 118.87C206.349 118.803 207.368 119.151 207.981 119.919C208.597 120.691 208.749 121.809 208.435 123.273L206.596 131.834L203.868 131.9L203.87 131.902ZM201.643 129.02C202.109 129.008 202.548 128.822 202.96 128.468C203.37 128.113 203.636 127.662 203.758 127.114L203.98 126.11L203.08 126.186C201.803 126.283 201.049 126.839 200.817 127.865C200.638 128.656 200.912 129.042 201.643 129.02Z" fill="#F6F9FC"/>
<path d="M212.613 115.614C212.75 114.964 213.014 114.47 213.406 114.137C213.799 113.802 214.357 113.614 215.085 113.574C215.813 113.534 216.314 113.667 216.584 113.973C216.854 114.28 216.924 114.753 216.795 115.394C216.535 116.679 215.697 117.358 214.289 117.425C212.902 117.493 212.345 116.888 212.613 115.611V115.614ZM213.339 131.674L209.319 131.771L212.051 118.756L215.999 118.571L213.339 131.674Z" fill="#F6F9FC"/>
<path d="M221.613 123.981C222.276 123.085 222.829 122.387 223.273 121.885L226.636 118.071L231.272 117.854L226.064 123.652L229.182 131.292L224.332 131.408L222.586 126.639L221.026 127.827L220.325 131.503L216.185 131.602L219.734 113.675L223.769 113.454L222.441 120.414C222.211 121.623 221.907 122.813 221.531 123.981H221.615H221.613Z" fill="#F6F9FC"/>
<path d="M251.2 130.765L245.99 130.889L243.703 124.104L242.249 125L241.324 131.003L236.831 131.111L239.658 113.658L244.033 113.424L242.876 120.925C243.173 120.446 243.739 119.682 244.577 118.634L248.823 113.169L253.736 112.907L247.356 120.982L251.198 130.765H251.2Z" fill="#F6F9FC"/>
<path d="M259.314 130.826C257.038 130.879 255.366 130.284 254.289 129.05C253.223 127.824 252.847 126.063 253.157 123.77C253.474 121.423 254.279 119.611 255.571 118.32C256.861 117.031 258.558 116.337 260.669 116.236C262.692 116.141 264.202 116.609 265.19 117.649C266.186 118.697 266.57 120.263 266.336 122.351L266.091 124.54L257.659 124.823C257.589 125.612 257.787 126.226 258.252 126.66C258.716 127.095 259.405 127.303 260.313 127.276C261.142 127.251 261.917 127.147 262.637 126.962C263.357 126.776 264.151 126.472 265.019 126.048L264.611 129.634C263.811 130.056 263.002 130.351 262.185 130.527C261.37 130.699 260.412 130.799 259.312 130.824L259.314 130.826ZM260.435 119.474C259.888 119.497 259.411 119.693 258.999 120.064C258.588 120.436 258.303 121.003 258.142 121.769L262.149 121.615C262.215 120.938 262.092 120.406 261.786 120.016C261.48 119.628 261.03 119.446 260.435 119.472V119.474Z" fill="#F6F9FC"/>
<path d="M273.082 130.24L268.173 130.358L270.261 110.895L275.015 110.634L273.082 130.24Z" fill="#F6F9FC"/>
<path d="M286.125 129.927L285.291 127.964H285.185C284.427 128.848 283.68 129.457 282.939 129.792C282.2 130.128 281.267 130.309 280.143 130.335C278.765 130.366 277.722 129.972 277.015 129.153C276.309 128.339 276.029 127.179 276.17 125.679C276.316 124.127 276.953 122.958 278.085 122.167C279.217 121.374 280.802 120.893 282.846 120.72L285.284 120.549L285.301 120.345C285.396 119.149 284.849 118.577 283.671 118.628C282.614 118.672 281.248 119.083 279.569 119.86L278.438 116.668C280.173 115.742 282.314 115.217 284.873 115.095C286.733 115.006 288.147 115.394 289.11 116.261C290.079 117.134 290.51 118.402 290.394 120.069L289.714 129.843L286.12 129.93L286.125 129.927ZM282.601 126.65C283.215 126.631 283.758 126.42 284.227 126.015C284.695 125.61 284.955 125.093 285.004 124.466L285.094 123.323L283.925 123.416C282.261 123.534 281.381 124.173 281.281 125.34C281.205 126.242 281.645 126.679 282.601 126.652V126.65Z" fill="#F6F9FC"/>
<path d="M305.498 124.739C305.428 126.378 304.799 127.639 303.615 128.512C302.428 129.385 300.766 129.847 298.638 129.898C297.49 129.925 296.497 129.888 295.659 129.786C294.825 129.685 293.983 129.482 293.132 129.183L293.398 125.011C294.188 125.34 295.064 125.603 296.025 125.806C296.989 126.008 297.857 126.097 298.628 126.076C299.783 126.042 300.374 125.766 300.401 125.247C300.414 124.979 300.266 124.747 299.954 124.547C299.641 124.348 298.729 123.973 297.219 123.422C295.854 122.906 294.918 122.302 294.412 121.611C293.905 120.921 293.689 120.035 293.757 118.955C293.844 117.594 294.447 116.517 295.568 115.715C296.69 114.913 298.239 114.464 300.222 114.371C301.222 114.325 302.162 114.384 303.036 114.555C303.914 114.726 304.826 114.991 305.77 115.354L304.178 118.714C303.484 118.436 302.747 118.208 301.97 118.027C301.195 117.845 300.562 117.767 300.068 117.786C299.206 117.822 298.767 118.044 298.744 118.453C298.729 118.706 298.868 118.915 299.16 119.079C299.451 119.246 300.302 119.577 301.721 120.073C302.781 120.463 303.57 120.855 304.085 121.252C304.603 121.648 304.976 122.125 305.204 122.682C305.434 123.241 305.532 123.927 305.496 124.743L305.498 124.739Z" fill="#F6F9FC"/>
</g>
<g filter="url(#filter2_d_3316_92045)">
<path d="M212.469 74.9481L204.185 106.341L331.124 104.023L330.377 72.3895L212.469 74.9481Z" fill="#263A68"/>
</g>
<g filter="url(#filter3_d_3316_92045)">
<path d="M246.247 77.5679L242.78 89.1734C242.027 91.6962 240.646 93.6684 238.623 95.0964C236.586 96.5371 234.019 97.3091 230.896 97.4061C227.801 97.5031 225.601 96.883 224.32 95.5351C223.03 94.1767 222.772 92.175 223.56 89.5362L227.216 77.2769L233.44 77.3718L229.959 89.0342C229.539 90.439 229.536 91.4536 229.95 92.0759C230.362 92.696 231.149 92.9934 232.311 92.9702C233.546 92.9449 234.532 92.6158 235.269 91.983C236.003 91.3523 236.582 90.3335 237.002 88.9266L240.42 77.4793L246.245 77.5679H246.247Z" fill="#F6F9FC"/>
<path d="M253.96 96.4316L253.846 82.9826H253.719C253.223 85.2944 252.784 87.0916 252.402 88.3719L249.957 96.554L244.968 96.708L250.666 77.6355L258.02 77.7473L258.229 90.9748H258.336L266.251 77.8738L273.077 77.9793L267.683 96.0119L262.945 96.1574L265.337 88.1568C265.462 87.7412 265.605 87.2793 265.772 86.771C265.939 86.2626 266.368 85.0181 267.064 83.0396H266.946L259.09 96.2756L253.962 96.4338L253.96 96.4316Z" fill="#F6F9FC"/>
<path d="M286.874 95.4232L281.594 95.5856L280.101 88.9813L278.421 89.844L276.656 95.7375L271.703 95.8894L277.044 78.0403L281.932 78.1141L279.639 85.7688C280.025 85.2942 280.741 84.5412 281.784 83.5161L287.062 78.1921L292.104 78.2702L284.385 85.984L286.872 95.4232H286.874Z" fill="#F6F9FC"/>
<path d="M295.93 95.1448L296.221 83.0816H296.12C295.655 85.1551 295.252 86.7624 294.908 87.9098L292.71 95.2439L288.707 95.3663L293.821 78.2955L299.724 78.3862L299.519 90.2533H299.607L306.359 78.4875L311.88 78.5719L307.012 94.8052L303.176 94.9233L305.333 87.7305C305.445 87.3572 305.576 86.9417 305.722 86.4839C305.869 86.0283 306.252 84.9083 306.87 83.128H306.775L300.061 95.0182L295.93 95.1448Z" fill="#F6F9FC"/>
</g>
<path d="M44.0489 197.317L7.90405 136.115L138.262 122.426L123.798 175.315L114.694 184.942L44.0489 197.317Z" fill="url(#paint4_linear_3316_92045)"/>
<defs>
<filter id="filter0_d_3316_92045" x="98.536" y="32.5119" width="308.168" height="203.402" filterUnits="userSpaceOnUse" color-interpolation-filters="sRGB">
<feFlood flood-opacity="0" result="BackgroundImageFix"/>
<feColorMatrix in="SourceAlpha" type="matrix" values="0 0 0 0 0 0 0 0 0 0 0 0 0 0 0 0 0 0 127 0" result="hardAlpha"/>
<feOffset dx="9.43" dy="9.43"/>
<feGaussianBlur stdDeviation="40.42"/>
<feColorMatrix type="matrix" values="0 0 0 0 0 0 0 0 0 0 0 0 0 0 0 0 0 0 0.2 0"/>
<feBlend mode="normal" in2="BackgroundImageFix" result="effect1_dropShadow_3316_92045"/>
<feBlend mode="normal" in="SourceGraphic" in2="effect1_dropShadow_3316_92045" result="shape"/>
</filter>
<filter id="filter1_d_3316_92045" x="167.128" y="103.894" width="152.122" height="48.7871" filterUnits="userSpaceOnUse" color-interpolation-filters="sRGB">
<feFlood flood-opacity="0" result="BackgroundImageFix"/>
<feColorMatrix in="SourceAlpha" type="matrix" values="0 0 0 0 0 0 0 0 0 0 0 0 0 0 0 0 0 0 127 0" result="hardAlpha"/>
<feOffset dy="6.74"/>
<feGaussianBlur stdDeviation="6.74"/>
<feColorMatrix type="matrix" values="0 0 0 0 0 0 0 0 0 0 0 0 0 0 0 0 0 0 0.2 0"/>
<feBlend mode="normal" in2="BackgroundImageFix" result="effect1_dropShadow_3316_92045"/>
<feBlend mode="normal" in="SourceGraphic" in2="effect1_dropShadow_3316_92045" result="shape"/>
</filter>
<filter id="filter2_d_3316_92045" x="132.775" y="0.97953" width="288.62" height="195.632" filterUnits="userSpaceOnUse" color-interpolation-filters="sRGB">
<feFlood flood-opacity="0" result="BackgroundImageFix"/>
<feColorMatrix in="SourceAlpha" type="matrix" values="0 0 0 0 0 0 0 0 0 0 0 0 0 0 0 0 0 0 127 0" result="hardAlpha"/>
<feOffset dx="9.43" dy="9.43"/>
<feGaussianBlur stdDeviation="40.42"/>
<feColorMatrix type="matrix" values="0 0 0 0 0 0 0 0 0 0 0 0 0 0 0 0 0 0 0.2 0"/>
<feBlend mode="normal" in2="BackgroundImageFix" result="effect1_dropShadow_3316_92045"/>
<feBlend mode="normal" in="SourceGraphic" in2="effect1_dropShadow_3316_92045" result="shape"/>
</filter>
<filter id="filter3_d_3316_92045" x="209.674" y="70.5569" width="115.647" height="47.0192" filterUnits="userSpaceOnUse" color-interpolation-filters="sRGB">
<feFlood flood-opacity="0" result="BackgroundImageFix"/>
<feColorMatrix in="SourceAlpha" type="matrix" values="0 0 0 0 0 0 0 0 0 0 0 0 0 0 0 0 0 0 127 0" result="hardAlpha"/>
<feOffset dy="6.72"/>
<feGaussianBlur stdDeviation="6.72"/>
<feColorMatrix type="matrix" values="0 0 0 0 0 0 0 0 0 0 0 0 0 0 0 0 0 0 0.2 0"/>
<feBlend mode="normal" in2="BackgroundImageFix" result="effect1_dropShadow_3316_92045"/>
<feBlend mode="normal" in="SourceGraphic" in2="effect1_dropShadow_3316_92045" result="shape"/>
</filter>
<linearGradient id="paint0_linear_3316_92045" x1="53.9653" y1="112.128" x2="57.4299" y2="112.128" gradientUnits="userSpaceOnUse">
<stop stop-color="#0A0A0A" stop-opacity="0.73"/>
<stop offset="0.73" stop-color="#888888" stop-opacity="0.35"/>
<stop offset="1" stop-color="white" stop-opacity="0"/>
</linearGradient>
<linearGradient id="paint1_linear_3316_92045" x1="155.927" y1="166.658" x2="158.853" y2="166.658" gradientUnits="userSpaceOnUse">
<stop stop-color="#0A0A0A" stop-opacity="0.73"/>
<stop offset="0.73" stop-color="#888888" stop-opacity="0.35"/>
<stop offset="1" stop-color="white" stop-opacity="0"/>
</linearGradient>
<linearGradient id="paint2_linear_3316_92045" x1="32.3045" y1="117.392" x2="35.1297" y2="116.707" gradientUnits="userSpaceOnUse">
<stop stop-color="#0A0A0A" stop-opacity="0.73"/>
<stop offset="0.73" stop-color="#888888" stop-opacity="0.35"/>
<stop offset="1" stop-color="white" stop-opacity="0"/>
</linearGradient>
<linearGradient id="paint3_linear_3316_92045" x1="133.993" y1="162.877" x2="135.831" y2="163.423" gradientUnits="userSpaceOnUse">
<stop stop-color="#0A0A0A" stop-opacity="0.73"/>
<stop offset="0.73" stop-color="#888888" stop-opacity="0.35"/>
<stop offset="1" stop-color="white" stop-opacity="0"/>
</linearGradient>
<linearGradient id="paint4_linear_3316_92045" x1="73.083" y1="197.317" x2="73.083" y2="122.426" gradientUnits="userSpaceOnUse">
<stop stop-color="#EEEEFF"/>
<stop offset="0.07" stop-color="#F0EEFC" stop-opacity="0.87"/>
<stop offset="0.2" stop-color="#F4EFF9" stop-opacity="0.64"/>
<stop offset="0.34" stop-color="#F7F0F6" stop-opacity="0.45"/>
<stop offset="0.47" stop-color="#FAF1F3" stop-opacity="0.29"/>
<stop offset="0.6" stop-color="#FCF2F1" stop-opacity="0.16"/>
<stop offset="0.72" stop-color="#FDF2F0" stop-opacity="0.07"/>
<stop offset="0.84" stop-color="#FEF2EF" stop-opacity="0.02"/>
<stop offset="0.94" stop-color="#FFF3EF" stop-opacity="0"/>
</linearGradient>
</defs>
</svg>
