<svg width="334" height="201" viewBox="0 0 334 201" fill="none" xmlns="http://www.w3.org/2000/svg">
<mask id="mask0_3311_96001" style="mask-type:alpha" maskUnits="userSpaceOnUse" x="10" y="15" width="314" height="171">
<g style="mix-blend-mode:multiply">
<path d="M308.562 137.694C356.063 57.8357 283.855 23.8771 198.618 16.6723C111.31 9.29247 10.3333 29.982 10.3333 58.165C10.3333 65.8199 15.4766 72.6944 23.6459 77.4266C-7.8854 219.795 165.605 180.744 233.503 181.437C259.781 181.707 303.633 189.557 317.423 168.768C329.394 150.724 321.714 141.804 308.56 137.694H308.562Z" fill="#F6FEFF"/>
</g>
</mask>
<g mask="url(#mask0_3311_96001)">
<path d="M308.562 137.694C356.063 57.8357 283.855 23.8771 198.618 16.6723C111.31 9.29247 10.3333 29.982 10.3333 58.165C10.3333 65.8199 15.4766 72.6944 23.6459 77.4266C-7.8854 219.795 165.605 180.744 233.503 181.437C259.781 181.707 303.633 189.557 317.423 168.768C329.394 150.724 321.714 141.804 308.56 137.694H308.562Z" fill="#C5EBEE"/>
<g style="mix-blend-mode:multiply">
<path fill-rule="evenodd" clip-rule="evenodd" d="M75.0554 114.043C75.0554 113.321 75.6399 112.734 76.3623 112.734C77.0846 112.734 77.6691 113.319 77.6691 114.041C77.6857 132.893 70.2176 154.342 61.723 175.012C73.1759 160.646 113.251 107.065 79.1043 100.785C51.1351 95.6405 56.9637 161.722 58.5271 175.896C67.2332 154.9 75.0673 133.017 75.0506 114.043H75.0554Z" fill="#C5EBEE"/>
<path fill-rule="evenodd" clip-rule="evenodd" d="M50.389 158.027C47.8133 153.187 38.9005 136.714 38.8743 136.673C38.43 135.956 38.651 135.017 39.3685 134.573C40.0861 134.129 41.0247 134.352 41.469 135.067C41.9751 135.887 52.4871 152.985 56.9304 168.958C56.6785 153.349 54.1313 117.451 35.6238 127.209C20.2955 135.291 47.2287 162.388 56.2984 171.937L50.389 158.027Z" fill="#C5EBEE"/>
<path fill-rule="evenodd" clip-rule="evenodd" d="M102.21 146.026C86.9312 140.853 70.1725 163.271 63.4219 173.591C71.2821 167.689 78.1919 163.274 83.0391 160.384C89.8823 156.302 94.1047 154.34 94.2805 154.259C94.9363 153.955 95.7133 154.242 96.0174 154.896C96.3216 155.552 96.0365 156.328 95.3806 156.633C95.2214 156.706 80.2567 163.709 61.4997 178.36C64.8547 177.813 75.3619 176.129 89.6566 174.116C107.138 171.654 121.91 152.695 102.212 146.028L102.21 146.026Z" fill="#C5EBEE"/>
</g>
<g style="mix-blend-mode:multiply">
<path fill-rule="evenodd" clip-rule="evenodd" d="M275.082 96.6419C275.082 95.6388 274.271 94.8237 273.268 94.8237C272.264 94.8237 271.453 95.6354 271.453 96.6386C271.43 122.819 281.801 152.607 293.598 181.312C277.693 161.362 222.037 86.9503 269.46 78.2288C308.302 71.0847 300.208 162.856 298.036 182.54C285.946 153.383 275.066 122.991 275.089 96.6419H275.082Z" fill="#C5EBEE"/>
<path fill-rule="evenodd" clip-rule="evenodd" d="M309.338 157.725C312.915 151.003 325.293 128.125 325.329 128.069C325.946 127.073 325.639 125.769 324.643 125.152C323.646 124.535 322.343 124.845 321.726 125.839C321.023 126.977 306.424 150.723 300.254 172.904C300.604 151.228 304.141 101.374 329.843 114.926C351.131 126.149 313.727 163.78 301.131 177.042L309.338 157.725Z" fill="#C5EBEE"/>
<path fill-rule="evenodd" clip-rule="evenodd" d="M237.372 141.058C258.59 133.874 281.864 165.008 291.239 179.339C280.323 171.142 270.727 165.011 263.995 160.999C254.491 155.33 248.628 152.604 248.383 152.492C247.473 152.069 246.394 152.469 245.971 153.376C245.549 154.287 245.945 155.366 246.856 155.788C247.077 155.891 267.859 165.615 293.908 185.962C289.249 185.203 274.657 182.863 254.805 180.068C230.528 176.65 210.013 150.32 237.368 141.061L237.372 141.058Z" fill="#C5EBEE"/>
</g>
</g>
<mask id="mask1_3311_96001" style="mask-type:alpha" maskUnits="userSpaceOnUse" x="10" y="15" width="314" height="171">
<path d="M308.562 137.694C356.063 57.8357 283.855 23.8771 198.618 16.6723C111.31 9.29247 10.3333 29.982 10.3333 58.165C10.3333 65.8199 15.4766 72.6944 23.6459 77.4266C-7.8854 219.795 165.605 180.744 233.503 181.437C259.781 181.707 303.633 189.557 317.423 168.768C329.394 150.724 321.714 141.804 308.56 137.694H308.562Z" fill="#F6FEFF"/>
</mask>
<g mask="url(#mask1_3311_96001)">
<path d="M121.903 61.7643V65.0749H91.6667H88.1667V68.5749V186.163V189.663H91.6667H227.518H231.018V189.661H260.298H262.805H262.806V186.731L266.306 186.163V186.161V182.661H265.328H265.3C263.782 178.3 260.322 168.545 256.345 158.522C253.693 151.838 250.783 144.964 248.044 139.472C246.678 136.732 245.317 134.26 244.018 132.303C242.827 130.508 241.34 128.594 239.591 127.629L239.59 127.629C239.361 127.503 239.123 127.383 238.878 127.27L236.339 115.687L236.23 115.192L235.985 114.747L231.018 105.735V68.5749V65.0749H227.518H197.281V61.7643V58.2643L193.781 58.2643L169.757 58.2642C168.308 54.0408 164.31 51 159.592 51C154.875 51 150.877 54.0408 149.428 58.2642L125.403 58.2643L121.903 58.2643V61.7643Z" fill="white" stroke="white" stroke-width="7"/>
<path d="M240.808 143.293L234.92 116.437L229.518 106.636V128.155L240.808 143.293Z" fill="#E39875"/>
<path d="M161.592 54.5C157.59 54.5 154.347 57.7513 154.347 61.7642C154.347 65.7772 157.59 69.0284 161.592 69.0284C165.595 69.0284 168.838 65.7772 168.838 61.7642C168.838 57.7513 165.595 54.5 161.592 54.5ZM161.592 66.2282C159.134 66.2282 157.14 64.2292 157.14 61.7642C157.14 59.2993 159.134 57.3002 161.592 57.3002C164.051 57.3002 166.045 59.2993 166.045 61.7642C166.045 64.2292 164.051 66.2282 161.592 66.2282Z" fill="#243A68"/>
<path d="M229.518 68.575H93.6667V186.163H229.518V68.575Z" fill="#67A5BA"/>
<path d="M218.877 75.2253H104.31V186.163H218.877V75.2253Z" fill="#F2F9FE"/>
<path d="M195.782 61.7642H127.403V80.3795H195.782V61.7642Z" fill="#243A68"/>
<path d="M156.26 90.2147H110.616V98.386H156.26V90.2147Z" fill="#CEDBE3"/>
<path d="M156.26 104.593H110.616V108.68H156.26V104.593Z" fill="#CEDBE3"/>
<path d="M210.83 113.597H110.744V114.618H210.83V113.597Z" fill="#CEDBE3"/>
<path d="M210.786 119.535H110.7V120.556H210.786V119.535Z" fill="#CEDBE3"/>
<path d="M210.744 125.473H110.658V126.494H210.744V125.473Z" fill="#CEDBE3"/>
<path d="M210.703 131.414H110.616V132.434H210.703V131.414Z" fill="#CEDBE3"/>
<path d="M210.956 137.352H110.869V138.373H210.956V137.352Z" fill="#CEDBE3"/>
<path d="M210.914 143.293H110.828V144.313H210.914V143.293Z" fill="#CEDBE3"/>
<path d="M210.872 149.231H110.786V150.251H210.872V149.231Z" fill="#CEDBE3"/>
<path d="M211 155.169H110.914V156.189H211V155.169Z" fill="#CEDBE3"/>
<path d="M202.769 162.1H176.853V181.623H202.769V162.1Z" stroke="#CEDBE3" stroke-width="4.35" stroke-miterlimit="10"/>
<path d="M264.806 186.163C264.806 186.163 247.372 134.813 239.901 130.694C234.266 127.588 212.527 126.489 202.184 126.134C198.267 126.001 195.277 129.649 196.212 133.465C196.93 136.391 199.01 139.398 204.126 140.877C215.9 144.281 219.976 144.311 219.976 144.311L229.518 171.859V186.161H264.806V186.163Z" fill="#F5AA89"/>
</g>
</svg>
